<?xml version="1.0" encoding="UTF-8" standalone="no"?>
<!-- Created with Inkscape (http://www.inkscape.org/) -->

<svg
   width="158.58525mm"
   height="62.919769mm"
   version="1.1"
   viewBox="0 0 158.58525 62.919773"
   id="svg145"
   sodipodi:docname="bug-report-night.svg"
   inkscape:version="1.4.1-rc (06eac75fbf, 2025-03-29)"
   xmlns:inkscape="http://www.inkscape.org/namespaces/inkscape"
   xmlns:sodipodi="http://sodipodi.sourceforge.net/DTD/sodipodi-0.dtd"
   xmlns="http://www.w3.org/2000/svg"
   xmlns:svg="http://www.w3.org/2000/svg">
  <sodipodi:namedview
     id="namedview145"
     pagecolor="#ffffff"
     bordercolor="#000000"
     borderopacity="0.25"
     inkscape:showpageshadow="2"
     inkscape:pageopacity="0.0"
     inkscape:pagecheckerboard="0"
     inkscape:deskcolor="#d1d1d1"
     inkscape:document-units="mm"
     inkscape:zoom="2.2783048"
     inkscape:cx="311.63521"
     inkscape:cy="176.22752"
     inkscape:window-width="2256"
     inkscape:window-height="1427"
     inkscape:window-x="0"
     inkscape:window-y="40"
     inkscape:window-maximized="1"
     inkscape:current-layer="svg145"
     showgrid="false" />
  <defs
     id="defs11">
    <linearGradient
       id="linearGradient50606"
       x1="421.45999"
       x2="458.98999"
       y1="81.216003"
       y2="80.958"
       gradientTransform="matrix(0.36219,-0.0075634,0.0085593,0.45242,-122.38,55.957)"
       gradientUnits="userSpaceOnUse">
      <stop
         stop-color="#d1a448"
         offset="0"
         id="stop1" />
      <stop
         stop-color="#9b7527"
         stop-opacity=".9918"
         offset="1"
         id="stop2" />
    </linearGradient>
    <linearGradient
       id="linearGradient33560"
       x1="439.64001"
       x2="412.56"
       y1="53.484001"
       y2="53.870998"
       gradientTransform="matrix(0.36219,-0.0075634,0.0085593,0.45242,-123.44,56.069)"
       gradientUnits="userSpaceOnUse">
      <stop
         stop-color="#96312a"
         offset="0"
         id="stop3" />
      <stop
         stop-color="#65211c"
         stop-opacity=".9959"
         offset="1"
         id="stop4" />
    </linearGradient>
    <linearGradient
       id="linearGradient33562"
       x1="419.64999"
       x2="452.28"
       y1="64.963997"
       y2="65.350998"
       gradientTransform="matrix(0.36219,-0.0071478,0.0085593,0.42756,-122.85,57.356)"
       gradientUnits="userSpaceOnUse">
      <stop
         stop-color="#c33f37"
         offset="0"
         id="stop5" />
      <stop
         stop-color="#b33a33"
         stop-opacity=".98039"
         offset="1"
         id="stop6" />
    </linearGradient>
    <linearGradient
       id="linearGradient15121"
       x1="367.10999"
       x2="367.22"
       y1="87.487"
       y2="90.810997"
       gradientUnits="userSpaceOnUse">
      <stop
         stop-color="#916f6f"
         offset="0"
         id="stop7" />
      <stop
         stop-color="#685050"
         stop-opacity=".9918"
         offset="1"
         id="stop8" />
    </linearGradient>
    <clipPath
       id="clipPath14">
      <ellipse
         transform="matrix(0.9996,0.028384,-0.013912,0.9999,0,0)"
         cx="106.13"
         cy="91.443001"
         rx="117.86"
         ry="38.66"
         fill="#00ffff"
         stroke-width="0.32164"
         id="ellipse8" />
    </clipPath>
    <filter
       id="filter37"
       x="0"
       y="0"
       width="1"
       height="1"
       color-interpolation-filters="sRGB">
      <feColorMatrix
         values="1 0 0 -0.185732 -0 0 1 0 -0.185732 -0 0 0 1 -0.185732 -0 0 0 0 1 0"
         id="feColorMatrix8" />
    </filter>
    <filter
       id="filter38"
       x="-0.0085321581"
       y="-0.0082565416"
       width="1.0170484"
       height="1.0082566"
       color-interpolation-filters="sRGB">
      <feColorMatrix
         values="1 0 0 -0.185732 -0 0 1 0 -0.185732 -0 0 0 1 -0.185732 -0 0 0 0 1 0"
         id="feColorMatrix9" />
    </filter>
    <filter
       id="filter39"
       x="0"
       y="0"
       width="1"
       height="1"
       color-interpolation-filters="sRGB">
      <feColorMatrix
         values="1 0 0 -0.156224 -0 0 1 0 -0.156224 -0 0 0 1 -0.156224 -0 0 0 0 1 0"
         id="feColorMatrix10" />
    </filter>
    <filter
       id="filter40"
       x="-0.0018578861"
       y="-0.0014373991"
       width="1.0037158"
       height="1.0034285"
       color-interpolation-filters="sRGB">
      <feColorMatrix
         values="1 0 0 -0.156224 -0 0 1 0 -0.156224 -0 0 0 1 -0.156224 -0 0 0 0 1 0"
         id="feColorMatrix11" />
    </filter>
    <clipPath
       clipPathUnits="userSpaceOnUse"
       id="clipPath5535">
      <path
         id="path5537"
         style="fill:#00ffff;stroke-width:0;stroke-linecap:round"
         d="m 393.29228,-172.81412 a 52.076837,52.076837 0 0 0 -52.07693,52.0764 52.076837,52.076837 0 0 0 52.07693,52.076929 52.076837,52.076837 0 0 0 52.07692,-52.076929 52.076837,52.076837 0 0 0 -52.07692,-52.0764 z m -1.05834,22.02914 a 30.047716,30.047716 0 0 1 30.04778,30.04726 30.047716,30.047716 0 0 1 -30.04778,30.047784 30.047716,30.047716 0 0 1 -30.04777,-30.047784 30.047716,30.047716 0 0 1 30.04777,-30.04726 z" />
    </clipPath>
  </defs>
  <g
     transform="matrix(0.87941693,0,0,1,-11.674261,-42.158998)"
     style="mix-blend-mode:difference"
     id="g33">
    <ellipse
       cx="103.44"
       cy="70.320999"
       rx="90.165001"
       ry="28.162001"
       fill-opacity="0.8"
       stroke-width="0.2401"
       id="ellipse11" />
    <g
       transform="translate(-0.69493,-5.1774)"
       fill="#fbc02d"
       style="mix-blend-mode:difference"
       id="g32">
      <path
         d="m 59.692479,84.9947 c -0.54276,-0.02542 -1.0345,-0.1814 -1.4709,-0.46665 -0.44097,-0.28821 -0.77949,-0.66864 -1.0151,-1.1407 -0.15942,-0.3195 -0.25144,-0.64276 -0.29118,-1.0229 -0.01024,-0.09691 -0.01002,-0.43517 0,-0.52679 0.01326,-0.11865 0.02508,-0.20192 0.04021,-0.28117 0.15798,-0.82707 0.66936,-1.545 1.4021,-1.9681 0.06857,-0.03961 0.29833,-0.15386 0.30942,-0.15386 0.0035,0 -0.0184,0.05131 -0.0488,0.11395 -0.15032,0.30981 -0.23589,0.61724 -0.27058,0.97221 -0.01141,0.11695 -0.0098,0.40488 0.0032,0.52383 0.06237,0.57676 0.27366,1.0769 0.64377,1.5242 0.06612,0.07991 0.25882,0.27167 0.34262,0.34094 0.18278,0.15115 0.34378,0.25663 0.54456,0.35675 0.31293,0.15605 0.61382,0.2435 0.97364,0.28301 0.09497,0.01047 0.46861,0.01047 0.55343,2.07e-4 0.24026,-0.02929 0.41144,-0.06608 0.60214,-0.12911 0.12066,-0.03986 0.20509,-0.07462 0.33698,-0.13856 0.1129,-0.05475 0.11903,-0.05705 0.11374,-0.04182 -0.0149,0.04287 -0.12811,0.26315 -0.17679,0.34413 -0.29288,0.4872 -0.70941,0.87014 -1.2164,1.1183 -0.32562,0.15942 -0.67038,0.25407 -1.0329,0.28357 -0.08461,0.0069 -0.27754,0.01165 -0.34329,0.0088 z"
         opacity="0.79214"
         stroke-width="0.0073911"
         id="path17" />
      <path
         d="m 125.15,60.837 c -0.0266,-0.25973 -0.12165,-0.51859 -0.25421,-0.6909 -0.16942,-0.22041 -0.45881,-0.3679 -0.80925,-0.41247 l -0.15634,-0.01984 0.14171,-0.01951 c 0.19252,-0.02657 0.33069,-0.06659 0.48112,-0.13897 0.10142,-0.04884 0.15252,-0.08672 0.25759,-0.19095 0.11147,-0.11059 0.14137,-0.15139 0.19974,-0.27288 0.32874,-0.82093 -0.0206,-0.67922 0.31428,0.01412 0.0497,0.10067 0.0899,0.15479 0.18435,0.24893 0.0664,0.06625 0.15959,0.14312 0.20705,0.17093 0.12486,0.07322 0.3154,0.13437 0.5095,0.16353 l 0.16943,0.02557 -0.14823,0.0185 c -0.35428,0.04449 -0.64751,0.19478 -0.81511,0.41771 -0.13349,0.17759 -0.20356,0.35821 -0.24496,0.63129 l -0.0252,0.16673 z"
         opacity="0.90921"
         stroke-width="0.01504"
         id="path18" />
      <path
         d="M 68.8,70.26 C 68.78358,70.09984 68.72488,69.94027 68.6433,69.83405 68.53883,69.69816 68.36042,69.60723 68.14436,69.57973 L 68.048,69.56746 68.13538,69.55544 c 0.11868,-0.01636 0.20386,-0.04099 0.29659,-0.08575 0.0625,-0.03015 0.09406,-0.05345 0.15882,-0.11771 0.06873,-0.06812 0.08718,-0.09336 0.12314,-0.16824 0.20266,-0.5061 -0.01254,-0.41874 0.19373,0.0087 0.03079,0.06207 0.05535,0.09549 0.11367,0.15349 0.04098,0.04079 0.0984,0.08825 0.12768,0.10538 0.07692,0.04514 0.19442,0.08283 0.31411,0.10083 l 0.10443,0.01585 -0.09131,0.01151 c -0.21845,0.02744 -0.39922,0.12006 -0.50253,0.25752 -0.08234,0.1095 -0.12553,0.22083 -0.15106,0.38921 l -0.01566,0.10278 z"
         opacity="0.90921"
         stroke-width="0.012196"
         id="path19" />
      <path
         d="m 41.921,70.818 c -0.0208,-0.20446 -0.0958,-0.40819 -0.20006,-0.54381 -0.13337,-0.17353 -0.36114,-0.2896 -0.63698,-0.32468 l -0.12307,-0.01547 0.11149,-0.01548 c 0.15153,-0.02085 0.26028,-0.0524 0.3787,-0.10948 0.0798,-0.03838 0.11998,-0.06825 0.20275,-0.15028 0.0877,-0.08695 0.11123,-0.1191 0.15722,-0.21479 0.25871,-0.64615 -0.0162,-0.53459 0.24735,0.01144 0.0391,0.07916 0.0708,0.12176 0.14509,0.19592 0.0523,0.05213 0.1256,0.11264 0.16301,0.13457 0.0983,0.05758 0.24825,0.10576 0.40101,0.12869 l 0.13337,0.02018 -0.11672,0.01446 c -0.27886,0.03497 -0.50966,0.15327 -0.64158,0.32878 -0.10514,0.13978 -0.16023,0.28192 -0.19282,0.49692 l -0.0198,0.13121 z"
         opacity="0.90921"
         stroke-width="0.011838"
         id="path20" />
      <path
         d="m 81.89,71.2 c 0.01837,-0.17826 0.08353,-0.35585 0.17442,-0.47409 0.11626,-0.15124 0.31482,-0.25244 0.55531,-0.28305 L 82.727,70.42919 82.62976,70.4158 c -0.1321,-0.01831 -0.2269,-0.04565 -0.33012,-0.09535 -0.06957,-0.03348 -0.10467,-0.0595 -0.17678,-0.13101 -0.07648,-0.07583 -0.09701,-0.10387 -0.13705,-0.18725 -0.22557,-0.5633 0.01398,-0.46606 -0.21562,0.0093 -0.03414,0.06914 -0.06169,0.10623 -0.1265,0.17081 -0.04559,0.04546 -0.10954,0.09816 -0.14212,0.1173 -0.08567,0.05021 -0.21638,0.09218 -0.34958,0.11221 l -0.11626,0.01749 0.10172,0.01285 c 0.24312,0.03059 0.44429,0.13364 0.5593,0.28664 0.09163,0.12183 0.1397,0.24576 0.16812,0.43318 l 0.01723,0.1144 z"
         opacity="0.90921"
         stroke-width="0.0095588"
         id="path21" />
      <path
         d="m 64.621,58.743 c 0.01927,-0.18879 0.08847,-0.37693 0.18475,-0.50216 0.12315,-0.16019 0.33347,-0.2674 0.58818,-0.29979 l 0.11361,-0.01455 -0.10298,-0.01432 c -0.13993,-0.01949 -0.24034,-0.04837 -0.34968,-0.10103 -0.07368,-0.0355 -0.11084,-0.06299 -0.18722,-0.13878 -0.08103,-0.08029 -0.10277,-0.11002 -0.14517,-0.19832 -0.23893,-0.59666 0.0148,-0.49366 -0.22842,0.01032 -0.03616,0.07311 -0.06527,0.11251 -0.13399,0.18095 -0.0483,0.04809 -0.11601,0.10401 -0.15052,0.12423 -0.09074,0.05325 -0.22922,0.09767 -0.3703,0.11887 l -0.12312,0.01855 0.10772,0.01361 c 0.25751,0.03231 0.47062,0.14156 0.59243,0.3036 0.09703,0.12909 0.14798,0.26036 0.17806,0.45884 l 0.01829,0.12115 z"
         opacity="0.90921"
         stroke-width="0.01566"
         id="path22" />
      <path
         d="m 140.54,58.93 c 0.0223,-0.21822 0.10227,-0.43567 0.21354,-0.58042 0.14233,-0.18514 0.38543,-0.30905 0.67983,-0.34651 l 0.13133,-0.01665 -0.11905,-0.01643 c -0.16171,-0.02238 -0.27778,-0.05592 -0.40416,-0.11678 -0.0852,-0.04099 -0.12811,-0.07284 -0.21639,-0.16039 -0.0936,-0.09284 -0.11876,-0.12718 -0.16778,-0.22923 -0.27617,-0.6896 0.0171,-0.57059 -0.26401,0.01192 -0.0418,0.08455 -0.0755,0.13005 -0.15485,0.20914 -0.0558,0.0556 -0.13409,0.12019 -0.17397,0.14358 -0.10491,0.06151 -0.26494,0.11288 -0.42799,0.13739 l -0.14233,0.02135 0.12451,0.01561 c 0.29764,0.03742 0.54394,0.16361 0.68478,0.35089 0.11214,0.14918 0.17102,0.30092 0.20578,0.53034 l 0.0212,0.14005 z"
         opacity="0.90921"
         stroke-width="0.020683"
         id="path23" />
      <path
         d="m 133.22,70.536 c 0.0188,-0.18407 0.0862,-0.36748 0.18009,-0.48958 0.12009,-0.15618 0.32514,-0.2607 0.57349,-0.29229 l 0.11076,-0.01419 -0.10042,-0.01396 c -0.13642,-0.01899 -0.23433,-0.04716 -0.34091,-0.0985 -0.0719,-0.03461 -0.10809,-0.06141 -0.18255,-0.13531 -0.079,-0.07828 -0.10017,-0.10726 -0.14153,-0.19336 -0.23294,-0.58172 0.0144,-0.48129 -0.22269,0.01007 -0.0352,0.07128 -0.0637,0.10969 -0.13063,0.17642 -0.0471,0.04688 -0.11311,0.1014 -0.14675,0.12111 -0.0885,0.05191 -0.22349,0.09522 -0.36103,0.11589 l -0.12007,0.01809 0.10505,0.01327 c 0.25104,0.03149 0.45884,0.138 0.5776,0.29599 0.0946,0.12586 0.14426,0.25384 0.1736,0.44736 l 0.0178,0.11812 z"
         opacity="0.90921"
         stroke-width="0.01566"
         id="path24" />
      <path
         d="m 156.5,77.742 c -0.0208,-0.20446 -0.0958,-0.40819 -0.20006,-0.54381 -0.13337,-0.17353 -0.36114,-0.2896 -0.63698,-0.32468 l -0.12307,-0.01547 0.11149,-0.01548 c 0.15153,-0.02085 0.26028,-0.0524 0.3787,-0.10948 0.0798,-0.03838 0.11998,-0.06825 0.20275,-0.15028 0.0877,-0.08695 0.11123,-0.1191 0.15722,-0.21479 0.25871,-0.64615 -0.0162,-0.53459 0.24735,0.01144 0.0391,0.07916 0.0708,0.12176 0.14509,0.19592 0.0523,0.05213 0.1256,0.11264 0.16301,0.13457 0.0983,0.05758 0.24825,0.10576 0.40101,0.12869 l 0.13337,0.02018 -0.11672,0.01446 c -0.27886,0.03497 -0.50966,0.15327 -0.64158,0.32878 -0.10514,0.13978 -0.16023,0.28192 -0.19282,0.49692 l -0.0198,0.13121 z"
         opacity="0.90921"
         stroke-width="0.011838"
         id="path25" />
      <g
         fill-opacity="0.67168"
         stroke-width="0.011838"
         id="g31">
        <path
           d="m 167.15166,65.564708 c -0.0208,-0.20447 -0.0959,-0.4082 -0.20006,-0.5438 -0.13336,-0.1735 -0.36114,-0.2896 -0.63698,-0.32468 l -0.12307,-0.01581 0.1115,-0.01547 c 0.15152,-0.02086 0.26028,-0.05238 0.37866,-0.10945 0.0798,-0.03841 0.12001,-0.06828 0.20275,-0.15031 0.0877,-0.08695 0.11126,-0.11911 0.15721,-0.21476 0.25875,-0.64617 -0.0162,-0.53463 0.24735,0.01143 0.0392,0.07918 0.0708,0.12176 0.1451,0.19592 0.0523,0.05214 0.12563,0.11264 0.16303,0.13458 0.0983,0.05758 0.24823,0.10574 0.40103,0.12868 l 0.13336,0.02018 -0.11671,0.01446 c -0.27888,0.03498 -0.50967,0.15332 -0.64159,0.32878 -0.10514,0.13979 -0.16023,0.28196 -0.19283,0.49692 l -0.0198,0.13121 z"
           opacity="0.90921"
           id="path26" />
        <path
           d="m 148.58,69.338 c -0.0208,-0.20447 -0.0959,-0.4082 -0.20006,-0.5438 -0.13336,-0.1735 -0.36114,-0.2896 -0.63698,-0.32468 l -0.12307,-0.01581 0.1115,-0.01547 c 0.15152,-0.02086 0.26028,-0.05238 0.37866,-0.10945 0.0798,-0.03841 0.12001,-0.06828 0.20275,-0.15031 0.0877,-0.08695 0.11126,-0.11911 0.15721,-0.21476 0.25875,-0.64617 -0.0162,-0.53463 0.24735,0.01143 0.0392,0.07918 0.0708,0.12176 0.1451,0.19592 0.0523,0.05214 0.12563,0.11264 0.16303,0.13458 0.0983,0.05758 0.24823,0.10574 0.40103,0.12868 l 0.13336,0.02018 -0.11671,0.01446 c -0.27888,0.03498 -0.50967,0.15332 -0.64159,0.32878 -0.10514,0.13979 -0.16023,0.28196 -0.19283,0.49692 l -0.0198,0.13121 z"
           opacity="0.90921"
           id="path27" />
        <path
           d="M 57.853,72.33 C 57.8322,72.12553 57.7571,71.9218 57.65294,71.7862 57.51958,71.6127 57.2918,71.4966 57.01596,71.46152 l -0.12307,-0.01581 0.1115,-0.01547 c 0.15152,-0.02086 0.26028,-0.05238 0.37866,-0.10945 0.0798,-0.03841 0.12001,-0.06828 0.20275,-0.15031 0.0877,-0.08695 0.11126,-0.11911 0.15721,-0.21476 0.25875,-0.64617 -0.0162,-0.53463 0.24735,0.01143 0.0392,0.07918 0.0708,0.12176 0.1451,0.19592 0.0523,0.05214 0.12563,0.11264 0.16303,0.13458 0.0983,0.05758 0.24823,0.10574 0.40103,0.12868 l 0.13336,0.02018 -0.11671,0.01446 c -0.27888,0.03498 -0.50967,0.15332 -0.64159,0.32878 -0.10514,0.13979 -0.16023,0.28196 -0.19283,0.49692 l -0.0198,0.13121 z"
           opacity="0.90921"
           id="path28" />
        <path
           d="M 30.366,78.403 C 30.3452,78.19853 30.2701,77.9948 30.16594,77.8592 30.03258,77.6857 29.8048,77.5696 29.52896,77.53452 l -0.12307,-0.01581 0.1115,-0.01547 c 0.15152,-0.02086 0.26028,-0.05238 0.37866,-0.10945 0.0798,-0.03841 0.12001,-0.06828 0.20275,-0.15031 0.0877,-0.08695 0.11126,-0.11911 0.15721,-0.21476 0.25875,-0.64617 -0.0162,-0.53463 0.24735,0.01143 0.0392,0.07918 0.0708,0.12176 0.1451,0.19592 0.0523,0.05214 0.12563,0.11264 0.16303,0.13458 0.0983,0.05758 0.24823,0.10574 0.40103,0.12868 l 0.13336,0.02018 -0.11671,0.01446 c -0.27888,0.03498 -0.50967,0.15332 -0.64159,0.32878 -0.10514,0.13979 -0.16023,0.28196 -0.19283,0.49692 l -0.0198,0.13121 z"
           opacity="0.90921"
           id="path29" />
        <path
           d="M 48.44,62.55 C 48.4192,62.34553 48.3441,62.1418 48.23994,62.0062 48.10658,61.8327 47.8788,61.7166 47.60296,61.68152 l -0.12307,-0.01581 0.1115,-0.01547 c 0.15152,-0.02086 0.26028,-0.05238 0.37866,-0.10945 0.0798,-0.03841 0.12001,-0.06828 0.20275,-0.15031 0.0877,-0.08695 0.11126,-0.11911 0.15721,-0.21476 0.25875,-0.64617 -0.0162,-0.53463 0.24735,0.01143 0.0392,0.07918 0.0708,0.12176 0.1451,0.19592 0.0523,0.05214 0.12563,0.11264 0.16303,0.13458 0.0983,0.05758 0.24823,0.10574 0.40103,0.12868 l 0.13336,0.02018 -0.11671,0.01446 c -0.27888,0.03498 -0.50967,0.15332 -0.64159,0.32878 -0.10514,0.13979 -0.16023,0.28196 -0.19283,0.49692 l -0.0198,0.13121 z"
           opacity="0.90921"
           id="path30" />
        <path
           d="m 174.49,72.36 c -0.0208,-0.20447 -0.0959,-0.4082 -0.20006,-0.5438 -0.13336,-0.1735 -0.36114,-0.2896 -0.63698,-0.32468 l -0.12307,-0.01581 0.1115,-0.01547 c 0.15152,-0.02086 0.26028,-0.05238 0.37866,-0.10945 0.0798,-0.03841 0.12001,-0.06828 0.20275,-0.15031 0.0877,-0.08695 0.11126,-0.11911 0.15721,-0.21476 0.25875,-0.64617 -0.0162,-0.53463 0.24735,0.01143 0.0392,0.07918 0.0708,0.12176 0.1451,0.19592 0.0523,0.05214 0.12563,0.11264 0.16303,0.13458 0.0983,0.05758 0.24823,0.10574 0.40103,0.12868 l 0.13336,0.02018 -0.11671,0.01446 c -0.27888,0.03498 -0.50967,0.15332 -0.64159,0.32878 -0.10514,0.13979 -0.16023,0.28196 -0.19283,0.49692 l -0.0198,0.13121 z"
           opacity="0.90921"
           id="path31" />
        <path
           d="m 115.69823,78.628533 c -0.0208,-0.20447 -0.0959,-0.4082 -0.20006,-0.5438 -0.13336,-0.1735 -0.36114,-0.2896 -0.63698,-0.32468 l -0.12307,-0.01581 0.1115,-0.01547 c 0.15152,-0.02086 0.26028,-0.05238 0.37866,-0.10945 0.0798,-0.03841 0.12001,-0.06828 0.20275,-0.15031 0.0877,-0.08695 0.11126,-0.11911 0.15721,-0.21476 0.25875,-0.64617 -0.0162,-0.53463 0.24735,0.01143 0.0392,0.07918 0.0708,0.12176 0.1451,0.19592 0.0523,0.05214 0.12563,0.11264 0.16303,0.13458 0.0983,0.05758 0.24823,0.10574 0.40103,0.12868 l 0.13336,0.02018 -0.11671,0.01446 c -0.27888,0.03498 -0.50967,0.15332 -0.64159,0.32878 -0.10514,0.13979 -0.16023,0.28196 -0.19283,0.49692 l -0.0198,0.13121 z"
           opacity="0.90921"
           id="path9" />
        <path
           d="m 96.02199,93.72565 c -0.0208,-0.20447 -0.0959,-0.4082 -0.20006,-0.5438 -0.13336,-0.1735 -0.36114,-0.2896 -0.63698,-0.32468 l -0.12307,-0.01581 0.1115,-0.01547 c 0.15152,-0.02086 0.26028,-0.05238 0.37866,-0.10945 0.0798,-0.03841 0.12001,-0.06828 0.20275,-0.15031 0.0877,-0.08695 0.11126,-0.11911 0.15721,-0.21476 0.25875,-0.64617 -0.0162,-0.53463 0.24735,0.01143 0.0392,0.07918 0.0708,0.12176 0.1451,0.19592 0.0523,0.05214 0.12563,0.11264 0.16303,0.13458 0.0983,0.05758 0.24823,0.10574 0.40103,0.12868 l 0.13336,0.02018 -0.11671,0.01446 c -0.27888,0.03498 -0.50967,0.15332 -0.64159,0.32878 -0.10514,0.13979 -0.16023,0.28196 -0.19283,0.49692 l -0.0198,0.13121 z"
           opacity="0.90921"
           id="path10" />
        <path
           d="m 168.38829,84.783512 c -0.0208,-0.20447 -0.0959,-0.4082 -0.20006,-0.5438 -0.13336,-0.1735 -0.36114,-0.2896 -0.63698,-0.32468 l -0.12307,-0.01581 0.1115,-0.01547 c 0.15152,-0.02086 0.26028,-0.05238 0.37866,-0.10945 0.0798,-0.03841 0.12001,-0.06828 0.20275,-0.15031 0.0877,-0.08695 0.11126,-0.11911 0.15721,-0.21476 0.25875,-0.64617 -0.0162,-0.53463 0.24735,0.01143 0.0392,0.07918 0.0708,0.12176 0.1451,0.19592 0.0523,0.05214 0.12563,0.11264 0.16303,0.13458 0.0983,0.05758 0.24823,0.10574 0.40103,0.12868 l 0.13336,0.02018 -0.11671,0.01446 c -0.27888,0.03498 -0.50967,0.15332 -0.64159,0.32878 -0.10514,0.13979 -0.16023,0.28196 -0.19283,0.49692 l -0.0198,0.13121 z"
           opacity="0.90921"
           id="path11" />
        <path
           d="m 179.08477,77.351085 c -0.0208,-0.20447 -0.0959,-0.4082 -0.20006,-0.5438 -0.13336,-0.1735 -0.36114,-0.2896 -0.63698,-0.32468 l -0.12307,-0.01581 0.1115,-0.01547 c 0.15152,-0.02086 0.26028,-0.05238 0.37866,-0.10945 0.0798,-0.03841 0.12001,-0.06828 0.20275,-0.15031 0.0877,-0.08695 0.11126,-0.11911 0.15721,-0.21476 0.25875,-0.64617 -0.0162,-0.53463 0.24735,0.01143 0.0392,0.07918 0.0708,0.12176 0.1451,0.19592 0.0523,0.05214 0.12563,0.11264 0.16303,0.13458 0.0983,0.05758 0.24823,0.10574 0.40103,0.12868 l 0.13336,0.02018 -0.11671,0.01446 c -0.27888,0.03498 -0.50967,0.15332 -0.64159,0.32878 -0.10514,0.13979 -0.16023,0.28196 -0.19283,0.49692 l -0.0198,0.13121 z"
           opacity="0.90921"
           id="path12" />
      </g>
      <path
         d="m 45.954433,85.937775 c -0.01642,-0.16016 -0.07512,-0.31973 -0.1567,-0.42595 -0.10447,-0.13589 -0.28288,-0.22682 -0.49894,-0.25432 l -0.09636,-0.01227 0.08738,-0.01202 c 0.11868,-0.01636 0.20386,-0.04099 0.29659,-0.08575 0.0625,-0.03015 0.09406,-0.05345 0.15882,-0.11771 0.06873,-0.06812 0.08718,-0.09336 0.12314,-0.16824 0.20266,-0.5061 -0.01254,-0.41874 0.19373,0.0087 0.03079,0.06207 0.05535,0.09549 0.11367,0.15349 0.04098,0.04079 0.0984,0.08825 0.12768,0.10538 0.07692,0.04514 0.19442,0.08283 0.31411,0.10083 l 0.10443,0.01585 -0.09131,0.01151 c -0.21845,0.02744 -0.39922,0.12006 -0.50253,0.25752 -0.08234,0.1095 -0.12553,0.22083 -0.15106,0.38921 l -0.01566,0.10278 z"
         opacity="0.90921"
         stroke-width="0.012196"
         id="path1" />
      <path
         d="m 65.366562,94.64765 c -0.01642,-0.16016 -0.07512,-0.31973 -0.1567,-0.42595 -0.10447,-0.13589 -0.28288,-0.22682 -0.49894,-0.25432 l -0.09636,-0.01227 0.08738,-0.01202 c 0.11868,-0.01636 0.20386,-0.04099 0.29659,-0.08575 0.0625,-0.03015 0.09406,-0.05345 0.15882,-0.11771 0.06873,-0.06812 0.08718,-0.09336 0.12314,-0.16824 0.20266,-0.5061 -0.01254,-0.41874 0.19373,0.0087 0.03079,0.06207 0.05535,0.09549 0.11367,0.15349 0.04098,0.04079 0.0984,0.08825 0.12768,0.10538 0.07692,0.04514 0.19442,0.08283 0.31411,0.10083 l 0.10443,0.01585 -0.09131,0.01151 c -0.21845,0.02744 -0.39922,0.12006 -0.50253,0.25752 -0.08234,0.1095 -0.12553,0.22083 -0.15106,0.38921 l -0.01566,0.10278 z"
         opacity="0.90921"
         stroke-width="0.012196"
         id="path2" />
      <path
         d="m 92.173788,77.460163 c -0.01642,-0.16016 -0.07512,-0.31973 -0.1567,-0.42595 -0.10447,-0.13589 -0.28288,-0.22682 -0.49894,-0.25432 l -0.09636,-0.01227 0.08738,-0.01202 c 0.11868,-0.01636 0.20386,-0.04099 0.29659,-0.08575 0.0625,-0.03015 0.09406,-0.05345 0.15882,-0.11771 0.06873,-0.06812 0.08718,-0.09336 0.12314,-0.16824 0.20266,-0.5061 -0.01254,-0.41874 0.19373,0.0087 0.03079,0.06207 0.05535,0.09549 0.11367,0.15349 0.04098,0.04079 0.0984,0.08825 0.12768,0.10538 0.07692,0.04514 0.19442,0.08283 0.31411,0.10083 l 0.10443,0.01585 -0.09131,0.01151 c -0.21845,0.02744 -0.39922,0.12006 -0.50253,0.25752 -0.08234,0.1095 -0.12553,0.22083 -0.15106,0.38921 l -0.01566,0.10278 z"
         opacity="0.90921"
         stroke-width="0.012196"
         id="path3" />
      <path
         d="m 101.99265,70.240035 c 0.0193,-0.18879 0.0885,-0.37693 0.18475,-0.50216 0.12315,-0.16019 0.33347,-0.2674 0.58818,-0.29979 l 0.11361,-0.01455 -0.10298,-0.01432 c -0.13993,-0.01949 -0.24034,-0.04837 -0.34968,-0.10103 -0.0737,-0.0355 -0.11084,-0.06299 -0.18722,-0.13878 -0.081,-0.08029 -0.10277,-0.11002 -0.14517,-0.19832 -0.23893,-0.59666 0.0148,-0.49366 -0.22842,0.01032 -0.0362,0.07311 -0.0653,0.11251 -0.13399,0.18095 -0.0483,0.04809 -0.11601,0.10401 -0.15052,0.12423 -0.0907,0.05325 -0.22922,0.09767 -0.3703,0.11887 l -0.12312,0.01855 0.10772,0.01361 c 0.25751,0.03231 0.47062,0.14156 0.59243,0.3036 0.097,0.12909 0.14798,0.26036 0.17806,0.45884 l 0.0183,0.12115 z"
         opacity="0.90921"
         stroke-width="0.01566"
         id="path4" />
      <path
         d="m 112.16091,90.79534 c 0.0193,-0.18879 0.0885,-0.37693 0.18475,-0.50216 0.12315,-0.16019 0.33347,-0.2674 0.58818,-0.29979 l 0.11361,-0.01455 -0.10298,-0.01432 c -0.13993,-0.01949 -0.24034,-0.04837 -0.34968,-0.10103 -0.0737,-0.0355 -0.11084,-0.06299 -0.18722,-0.13878 -0.081,-0.08029 -0.10277,-0.11002 -0.14517,-0.19832 -0.23893,-0.59666 0.0148,-0.49366 -0.22842,0.01032 -0.0362,0.07311 -0.0653,0.11251 -0.13399,0.18095 -0.0483,0.04809 -0.11601,0.10401 -0.15052,0.12423 -0.0907,0.05325 -0.22922,0.09767 -0.3703,0.11887 l -0.12312,0.01855 0.10772,0.01361 c 0.25751,0.03231 0.47062,0.14156 0.59243,0.3036 0.097,0.12909 0.14798,0.26036 0.17806,0.45884 l 0.0183,0.12115 z"
         opacity="0.90921"
         stroke-width="0.01566"
         id="path5" />
      <path
         d="m 84.429297,97.76324 c 0.0193,-0.18879 0.0885,-0.37693 0.18475,-0.50216 0.12315,-0.16019 0.33347,-0.2674 0.58818,-0.29979 l 0.11361,-0.01455 -0.10298,-0.01432 c -0.13993,-0.01949 -0.24034,-0.04837 -0.34968,-0.10103 -0.0737,-0.0355 -0.11084,-0.06299 -0.18722,-0.13878 -0.081,-0.08029 -0.10277,-0.11002 -0.14517,-0.19832 -0.23893,-0.59666 0.0148,-0.49366 -0.22842,0.01032 -0.0362,0.07311 -0.0653,0.11251 -0.13399,0.18095 -0.0483,0.04809 -0.11601,0.10401 -0.15052,0.12423 -0.0907,0.05325 -0.22922,0.09767 -0.3703,0.11887 l -0.12312,0.01855 0.10772,0.01361 c 0.25751,0.03231 0.47062,0.14156 0.59243,0.3036 0.097,0.12909 0.14798,0.26036 0.17806,0.45884 l 0.0183,0.12115 z"
         opacity="0.90921"
         stroke-width="0.01566"
         id="path6" />
      <path
         d="m 84.429297,97.76324 c 0.0193,-0.18879 0.0885,-0.37693 0.18475,-0.50216 0.12315,-0.16019 0.33347,-0.2674 0.58818,-0.29979 l 0.11361,-0.01455 -0.10298,-0.01432 c -0.13993,-0.01949 -0.24034,-0.04837 -0.34968,-0.10103 -0.0737,-0.0355 -0.11084,-0.06299 -0.18722,-0.13878 -0.081,-0.08029 -0.10277,-0.11002 -0.14517,-0.19832 -0.23893,-0.59666 0.0148,-0.49366 -0.22842,0.01032 -0.0362,0.07311 -0.0653,0.11251 -0.13399,0.18095 -0.0483,0.04809 -0.11601,0.10401 -0.15052,0.12423 -0.0907,0.05325 -0.22922,0.09767 -0.3703,0.11887 l -0.12312,0.01855 0.10772,0.01361 c 0.25751,0.03231 0.47062,0.14156 0.59243,0.3036 0.097,0.12909 0.14798,0.26036 0.17806,0.45884 l 0.0183,0.12115 z"
         opacity="0.90921"
         stroke-width="0.01566"
         id="path7" />
      <path
         d="m 146.59585,90.400352 c -0.0208,-0.20446 -0.0958,-0.40819 -0.20006,-0.54381 -0.13337,-0.17353 -0.36114,-0.2896 -0.63698,-0.32468 l -0.12307,-0.01547 0.11149,-0.01548 c 0.15153,-0.02085 0.26028,-0.0524 0.3787,-0.10948 0.0798,-0.03838 0.11998,-0.06825 0.20275,-0.15028 0.0877,-0.08695 0.11123,-0.1191 0.15722,-0.21479 0.25871,-0.64615 -0.0162,-0.53459 0.24735,0.01144 0.0391,0.07916 0.0708,0.12176 0.14509,0.19592 0.0523,0.05213 0.1256,0.11264 0.16301,0.13457 0.0983,0.05758 0.24825,0.10576 0.40101,0.12869 l 0.13337,0.02018 -0.11672,0.01446 c -0.27886,0.03497 -0.50966,0.15327 -0.64158,0.32878 -0.10514,0.13978 -0.16023,0.28192 -0.19282,0.49692 l -0.0198,0.13121 z"
         opacity="0.90921"
         stroke-width="0.011838"
         id="path8" />
    </g>
  </g>
  <g
     transform="matrix(0.55508673,0,0,0.55508674,-138.26703,100.60012)"
     id="g5340"
     clip-path="url(#clipPath5535)"
     style="mix-blend-mode:difference">
    <g
       transform="matrix(0.57548,0,0,0.57548,393.14,-121.3)"
       stroke-width="0.92194"
       id="g5338">
      <path
         id="october"
         d="m -45.782,-77.133 a 90,90 0 0 1 45.225,-12.02 l -0.29047,90 z"
         fill="#00e6a7" />
      <path
         id="september"
         d="m -78.752,-44.219 a 90,90 0 0 1 32.97,-32.915 l 44.934,77.98 z"
         fill="#00e513" />
      <path
         id="august"
         d="m -90.848,0.77143 a 90,90 0 0 1 12.095,-44.989 l 77.904,45.065 z"
         fill="#beee00" />
      <path
         d="m -78.827,45.782 a 90,90 0 0 1 -12.02,-45.01 l 90,0.075889 z"
         fill="#fbfb00"
         id="path5328" />
      <path
         id="june"
         d="M -45.914,78.752 A 90,90 0 0 1 -78.829,45.782 L -0.849,0.848 Z"
         fill="#ffd119" />
      <path
         id="july"
         d="m -0.92271,90.847 a 90,90 0 0 1 -44.989,-12.095 l 45.065,-77.904 z"
         fill="#ff8201" />
      <path
         id="april"
         d="m 44.087,78.827 a 90,90 0 0 1 -45.01,12.02 l 0.075889,-90 z"
         fill="#ff6303" />
      <path
         id="march"
         d="M 77.057,45.913 A 90,90 0 0 1 44.087,78.828 L -0.847,0.848 Z"
         fill="#fb0000" />
      <path
         id="february"
         d="m 89.152,0.92271 a 90,90 0 0 1 -12.095,44.989 L -0.847,0.84671 Z"
         fill="#ff11ce" />
      <path
         id="january"
         d="m 77.309,-43.817 c 7.8877,13.688 11.857,28.941 11.844,44.74 l -90,-0.075889 z"
         fill="#7f2aff" />
      <path
         id="december"
         d="M 43.780351,-77.057 A 91.196669,91.196669 0 0 1 77.133,-43.64862 L -1.8838474,1.8828369 Z"
         fill="#4343ff"
         style="stroke-width:0.934198" />
      <path
         id="november"
         d="m -0.77143,-89.153 a 90,90 0 0 1 44.989,12.095 l -45.065,77.904 z"
         fill="#0cacf5" />
    </g>
  </g>
</svg>
