<?xml version="1.0" encoding="UTF-8"?>
<!-- Created with Inkscape (http://www.inkscape.org/) -->
<svg width="158.59mm" height="62.92mm" version="1.1" viewBox="0 0 158.59 62.92" xmlns="http://www.w3.org/2000/svg">
 <defs>
  <clipPath id="clipPath14">
   <ellipse transform="matrix(.9996 .028384 -.013912 .9999 0 0)" cx="106.13" cy="91.443" rx="117.86" ry="38.66" fill="#0ff" stroke-width=".32164"/>
  </clipPath>
 </defs>
 <g transform="matrix(.87942 0 0 1 -11.674 -42.159)" style="mix-blend-mode:difference">
  <ellipse cx="103.44" cy="70.321" rx="90.165" ry="28.162" fill="#2b2b2b" stroke-width=".2401"/>
  <g transform="matrix(.92895 -.020679 .012925 .72824 6.7956 3.7091)" clip-path="url(#clipPath14)">
   <path d="m80.205 119.5c0.78266-2.441 0.81359-1.1754 0.65624-0.19034 0.77965-1.7561-0.32288 1.803 0.76204-0.35445-0.75132 2.4271 1.2715-2.1531 0.33244 0.5636 1.0464-1.8257 1.165-2.0814 0.37675 0.0521 0.44508-0.57094 1.0677-1.6394 0.39586 0.51681 0.64173-0.43065 0.47837-0.97874 0.49353 0.0549 0.88314-0.46552-0.51607 1.2081 0.83446-0.22535-0.0797 0.75977 0.3853 0.10695-0.25842 1.6837 0.81951-1.2176 1.1522-2.6355 0.7097-0.38257 1.3613-2.2495-0.09093 1.4581 1.1948-0.9864 0.05491 0.32522-0.14729 1.5382-0.22208 2.224" fill="#32c63d" stroke-opacity="0"/>
   <path d="m23.066 118.44c2.1259-2.8852-0.43368-10.488 6.2176-12.782l0.56058 1.7068c6.613-1.8719 5.6384-0.5814 6.6693 1.4147 1.5957-3.9695 5.014-4.3044 8.2441-5.0149 8.2767-0.86306 7.3899 4.0338 9.8397 6.8333 2.3327-2.4244 3.9663-6.9934 9.5577-2.9283 1.9929-3.972 4.0214-7.7994 8.785-0.51663 3.1456-5.3403 5.7111-0.0566 7.8282 3.3578 5.0895 0.63029 4.7048 8.5772 6.3105 15.75z" fill="#16561a" stroke-width=".32162"/>
   <path d="m9.0677 127.45c-2.6365-6.3204 27.569-15.03 37.542-15.489 16.721-0.76192 39.3 6.6615 44.083 15.534 0.2996 0.55578 0.16868 0.31312 0.38521 0.78324 0.28639 0.6218 0.38004 1.2773-0.0052 1.5815-14.96 12.445-66.933 11.824-82.006-2.4102z" fill="#008409"/>
   <path d="m28.658 116.04c-0.50948-2.5589-0.67781-1.3119-0.62917-0.30821-0.58102-1.8804 0.12358 1.8434-0.71609-0.48995 0.47994 2.5394-1.0249-2.3632-0.39054 0.49711-0.83757-1.9981-0.92721-2.2728-0.37876-0.0173-0.37864-0.64637-0.87894-1.8175-0.44824 0.43922-0.58864-0.54341-0.36724-1.0561-0.49471-0.0358-0.8239-0.62205 0.37962 1.2899-0.80184-0.37544-0.0037 0.76654-0.39321 0.0355 0.07271 1.7136-0.67907-1.3547-0.85424-2.8188-0.66119-0.50827-1.1034-2.475-0.0686 1.4597-1.0759-1.1944-0.08979 0.31182-0.02151 1.5493-0.02206 2.2417" fill="#008409" stroke-opacity="0"/>
   <path d="m175.32 130.53c0.63699-5.3569 3.0628-14.217-4.8752-11.022l-0.29766-4.6829c-6.3452-3.0854-3.4943-1.5688-4.7294 0.21509-1.1529-4.2269-4.3756-2.5316-7.4967-3.8368-4.6285-5.1958-7.8744-0.0478-10.6 2.267-2.0485-2.8347 0.12337-8.5676-5.8487-5.5854-1.0198-2.8389-3.5257-3.1504-6.6721-2.6303-1.6232 0.26829-3.3956-0.7641-5.2668 1.3873-2.5399-5.8727-5.0726-4.6452-7.5355-1.6597l-0.57638 4.9741c-8.861 3.295-5.4376 8.3032-7.9386 12.966z" fill="#16561a" stroke-width=".32162"/>
   <path d="m185.95 134.06c2.8102-6.1657-27.129-16.584-37.082-17.608-16.687-1.7106-39.454 4.4252-44.481 13.02-0.31483 0.53833-0.17725 0.3033-0.40669 0.76075-0.30346 0.60506-0.41527 1.2547-0.039 1.5805 14.602 13.284 66.552 15.615 82.008 2.247z" fill="#008409"/>
  </g>
  <g transform="translate(-.69493 -5.1774)" fill="#fbc02d" style="mix-blend-mode:difference">
   <path d="m77.652 64.091c-0.54276-0.02542-1.0345-0.1814-1.4709-0.46665-0.44097-0.28821-0.77949-0.66864-1.0151-1.1407-0.15942-0.3195-0.25144-0.64276-0.29118-1.0229-0.01024-0.09691-0.01002-0.43517 0-0.52679 0.01326-0.11865 0.02508-0.20192 0.04021-0.28117 0.15798-0.82707 0.66936-1.545 1.4021-1.9681 0.06857-0.03961 0.29833-0.15386 0.30942-0.15386 0.0035 0-0.0184 0.05131-0.0488 0.11395-0.15032 0.30981-0.23589 0.61724-0.27058 0.97221-0.01141 0.11695-0.0098 0.40488 0.0032 0.52383 0.06237 0.57676 0.27366 1.0769 0.64377 1.5242 0.06612 0.07991 0.25882 0.27167 0.34262 0.34094 0.18278 0.15115 0.34378 0.25663 0.54456 0.35675 0.31293 0.15605 0.61382 0.2435 0.97364 0.28301 0.09497 0.01047 0.46861 0.01047 0.55343 2.07e-4 0.24026-0.02929 0.41144-0.06608 0.60214-0.12911 0.12066-0.03986 0.20509-0.07462 0.33698-0.13856 0.1129-0.05475 0.11903-0.05705 0.11374-0.04182-0.0149 0.04287-0.12811 0.26315-0.17679 0.34413-0.29288 0.4872-0.70941 0.87014-1.2164 1.1183-0.32562 0.15942-0.67038 0.25407-1.0329 0.28357-0.08461 0.0069-0.27754 0.01165-0.34329 0.0088z" opacity=".79214" stroke-width=".0073911"/>
   <path d="m125.15 60.837c-0.0266-0.25973-0.12165-0.51859-0.25421-0.6909-0.16942-0.22041-0.45881-0.3679-0.80925-0.41247l-0.15634-0.01984 0.14171-0.01951c0.19252-0.02657 0.33069-0.06659 0.48112-0.13897 0.10142-0.04884 0.15252-0.08672 0.25759-0.19095 0.11147-0.11059 0.14137-0.15139 0.19974-0.27288 0.32874-0.82093-0.0206-0.67922 0.31428 0.01412 0.0497 0.10067 0.0899 0.15479 0.18435 0.24893 0.0664 0.06625 0.15959 0.14312 0.20705 0.17093 0.12486 0.07322 0.3154 0.13437 0.5095 0.16353l0.16943 0.02557-0.14823 0.0185c-0.35428 0.04449-0.64751 0.19478-0.81511 0.41771-0.13349 0.17759-0.20356 0.35821-0.24496 0.63129l-0.0252 0.16673z" opacity=".90921" stroke-width=".01504"/>
   <path d="m68.8 70.26c-0.01642-0.16016-0.07512-0.31973-0.1567-0.42595-0.10447-0.13589-0.28288-0.22682-0.49894-0.25432l-0.09636-0.01227 0.08738-0.01202c0.11868-0.01636 0.20386-0.04099 0.29659-0.08575 0.0625-0.03015 0.09406-0.05345 0.15882-0.11771 0.06873-0.06812 0.08718-0.09336 0.12314-0.16824 0.20266-0.5061-0.01254-0.41874 0.19373 0.0087 0.03079 0.06207 0.05535 0.09549 0.11367 0.15349 0.04098 0.04079 0.0984 0.08825 0.12768 0.10538 0.07692 0.04514 0.19442 0.08283 0.31411 0.10083l0.10443 0.01585-0.09131 0.01151c-0.21845 0.02744-0.39922 0.12006-0.50253 0.25752-0.08234 0.1095-0.12553 0.22083-0.15106 0.38921l-0.01566 0.10278z" opacity=".90921" stroke-width=".012196"/>
   <path d="m41.921 70.818c-0.0208-0.20446-0.0958-0.40819-0.20006-0.54381-0.13337-0.17353-0.36114-0.2896-0.63698-0.32468l-0.12307-0.01547 0.11149-0.01548c0.15153-0.02085 0.26028-0.0524 0.3787-0.10948 0.0798-0.03838 0.11998-0.06825 0.20275-0.15028 0.0877-0.08695 0.11123-0.1191 0.15722-0.21479 0.25871-0.64615-0.0162-0.53459 0.24735 0.01144 0.0391 0.07916 0.0708 0.12176 0.14509 0.19592 0.0523 0.05213 0.1256 0.11264 0.16301 0.13457 0.0983 0.05758 0.24825 0.10576 0.40101 0.12869l0.13337 0.02018-0.11672 0.01446c-0.27886 0.03497-0.50966 0.15327-0.64158 0.32878-0.10514 0.13978-0.16023 0.28192-0.19282 0.49692l-0.0198 0.13121z" opacity=".90921" stroke-width=".011838"/>
   <path d="m81.89 71.2c0.01837-0.17826 0.08353-0.35585 0.17442-0.47409 0.11626-0.15124 0.31482-0.25244 0.55531-0.28305l0.10727-0.01367-0.09724-0.01339c-0.1321-0.01831-0.2269-0.04565-0.33012-0.09535-0.06957-0.03348-0.10467-0.0595-0.17678-0.13101-0.07648-0.07583-0.09701-0.10387-0.13705-0.18725-0.22557-0.5633 0.01398-0.46606-0.21562 0.0093-0.03414 0.06914-0.06169 0.10623-0.1265 0.17081-0.04559 0.04546-0.10954 0.09816-0.14212 0.1173-0.08567 0.05021-0.21638 0.09218-0.34958 0.11221l-0.11626 0.01749 0.10172 0.01285c0.24312 0.03059 0.44429 0.13364 0.5593 0.28664 0.09163 0.12183 0.1397 0.24576 0.16812 0.43318l0.01723 0.1144z" opacity=".90921" stroke-width=".0095588"/>
   <path d="m64.621 58.743c0.01927-0.18879 0.08847-0.37693 0.18475-0.50216 0.12315-0.16019 0.33347-0.2674 0.58818-0.29979l0.11361-0.01455-0.10298-0.01432c-0.13993-0.01949-0.24034-0.04837-0.34968-0.10103-0.07368-0.0355-0.11084-0.06299-0.18722-0.13878-0.08103-0.08029-0.10277-0.11002-0.14517-0.19832-0.23893-0.59666 0.0148-0.49366-0.22842 0.01032-0.03616 0.07311-0.06527 0.11251-0.13399 0.18095-0.0483 0.04809-0.11601 0.10401-0.15052 0.12423-0.09074 0.05325-0.22922 0.09767-0.3703 0.11887l-0.12312 0.01855 0.10772 0.01361c0.25751 0.03231 0.47062 0.14156 0.59243 0.3036 0.09703 0.12909 0.14798 0.26036 0.17806 0.45884l0.01829 0.12115z" opacity=".90921" stroke-width=".01566"/>
   <path d="m140.54 58.93c0.0223-0.21822 0.10227-0.43567 0.21354-0.58042 0.14233-0.18514 0.38543-0.30905 0.67983-0.34651l0.13133-0.01665-0.11905-0.01643c-0.16171-0.02238-0.27778-0.05592-0.40416-0.11678-0.0852-0.04099-0.12811-0.07284-0.21639-0.16039-0.0936-0.09284-0.11876-0.12718-0.16778-0.22923-0.27617-0.6896 0.0171-0.57059-0.26401 0.01192-0.0418 0.08455-0.0755 0.13005-0.15485 0.20914-0.0558 0.0556-0.13409 0.12019-0.17397 0.14358-0.10491 0.06151-0.26494 0.11288-0.42799 0.13739l-0.14233 0.02135 0.12451 0.01561c0.29764 0.03742 0.54394 0.16361 0.68478 0.35089 0.11214 0.14918 0.17102 0.30092 0.20578 0.53034l0.0212 0.14005z" opacity=".90921" stroke-width=".020683"/>
   <path d="m133.22 70.536c0.0188-0.18407 0.0862-0.36748 0.18009-0.48958 0.12009-0.15618 0.32514-0.2607 0.57349-0.29229l0.11076-0.01419-0.10042-0.01396c-0.13642-0.01899-0.23433-0.04716-0.34091-0.0985-0.0719-0.03461-0.10809-0.06141-0.18255-0.13531-0.079-0.07828-0.10017-0.10726-0.14153-0.19336-0.23294-0.58172 0.0144-0.48129-0.22269 0.01007-0.0352 0.07128-0.0637 0.10969-0.13063 0.17642-0.0471 0.04688-0.11311 0.1014-0.14675 0.12111-0.0885 0.05191-0.22349 0.09522-0.36103 0.11589l-0.12007 0.01809 0.10505 0.01327c0.25104 0.03149 0.45884 0.138 0.5776 0.29599 0.0946 0.12586 0.14426 0.25384 0.1736 0.44736l0.0178 0.11812z" opacity=".90921" stroke-width=".01566"/>
   <path d="m156.5 77.742c-0.0208-0.20446-0.0958-0.40819-0.20006-0.54381-0.13337-0.17353-0.36114-0.2896-0.63698-0.32468l-0.12307-0.01547 0.11149-0.01548c0.15153-0.02085 0.26028-0.0524 0.3787-0.10948 0.0798-0.03838 0.11998-0.06825 0.20275-0.15028 0.0877-0.08695 0.11123-0.1191 0.15722-0.21479 0.25871-0.64615-0.0162-0.53459 0.24735 0.01144 0.0391 0.07916 0.0708 0.12176 0.14509 0.19592 0.0523 0.05213 0.1256 0.11264 0.16301 0.13457 0.0983 0.05758 0.24825 0.10576 0.40101 0.12869l0.13337 0.02018-0.11672 0.01446c-0.27886 0.03497-0.50966 0.15327-0.64158 0.32878-0.10514 0.13978-0.16023 0.28192-0.19282 0.49692l-0.0198 0.13121z" opacity=".90921" stroke-width=".011838"/>
   <g fill-opacity=".67168" stroke-width=".011838">
    <path d="m163.19 68.468c-0.0208-0.20447-0.0959-0.4082-0.20006-0.5438-0.13336-0.1735-0.36114-0.2896-0.63698-0.32468l-0.12307-0.01581 0.1115-0.01547c0.15152-0.02086 0.26028-0.05238 0.37866-0.10945 0.0798-0.03841 0.12001-0.06828 0.20275-0.15031 0.0877-0.08695 0.11126-0.11911 0.15721-0.21476 0.25875-0.64617-0.0162-0.53463 0.24735 0.01143 0.0392 0.07918 0.0708 0.12176 0.1451 0.19592 0.0523 0.05214 0.12563 0.11264 0.16303 0.13458 0.0983 0.05758 0.24823 0.10574 0.40103 0.12868l0.13336 0.02018-0.11671 0.01446c-0.27888 0.03498-0.50967 0.15332-0.64159 0.32878-0.10514 0.13979-0.16023 0.28196-0.19283 0.49692l-0.0198 0.13121z" opacity=".90921"/>
    <path d="m148.58 69.338c-0.0208-0.20447-0.0959-0.4082-0.20006-0.5438-0.13336-0.1735-0.36114-0.2896-0.63698-0.32468l-0.12307-0.01581 0.1115-0.01547c0.15152-0.02086 0.26028-0.05238 0.37866-0.10945 0.0798-0.03841 0.12001-0.06828 0.20275-0.15031 0.0877-0.08695 0.11126-0.11911 0.15721-0.21476 0.25875-0.64617-0.0162-0.53463 0.24735 0.01143 0.0392 0.07918 0.0708 0.12176 0.1451 0.19592 0.0523 0.05214 0.12563 0.11264 0.16303 0.13458 0.0983 0.05758 0.24823 0.10574 0.40103 0.12868l0.13336 0.02018-0.11671 0.01446c-0.27888 0.03498-0.50967 0.15332-0.64159 0.32878-0.10514 0.13979-0.16023 0.28196-0.19283 0.49692l-0.0198 0.13121z" opacity=".90921"/>
    <path d="m57.853 72.33c-0.0208-0.20447-0.0959-0.4082-0.20006-0.5438-0.13336-0.1735-0.36114-0.2896-0.63698-0.32468l-0.12307-0.01581 0.1115-0.01547c0.15152-0.02086 0.26028-0.05238 0.37866-0.10945 0.0798-0.03841 0.12001-0.06828 0.20275-0.15031 0.0877-0.08695 0.11126-0.11911 0.15721-0.21476 0.25875-0.64617-0.0162-0.53463 0.24735 0.01143 0.0392 0.07918 0.0708 0.12176 0.1451 0.19592 0.0523 0.05214 0.12563 0.11264 0.16303 0.13458 0.0983 0.05758 0.24823 0.10574 0.40103 0.12868l0.13336 0.02018-0.11671 0.01446c-0.27888 0.03498-0.50967 0.15332-0.64159 0.32878-0.10514 0.13979-0.16023 0.28196-0.19283 0.49692l-0.0198 0.13121z" opacity=".90921"/>
    <path d="m30.366 78.403c-0.0208-0.20447-0.0959-0.4082-0.20006-0.5438-0.13336-0.1735-0.36114-0.2896-0.63698-0.32468l-0.12307-0.01581 0.1115-0.01547c0.15152-0.02086 0.26028-0.05238 0.37866-0.10945 0.0798-0.03841 0.12001-0.06828 0.20275-0.15031 0.0877-0.08695 0.11126-0.11911 0.15721-0.21476 0.25875-0.64617-0.0162-0.53463 0.24735 0.01143 0.0392 0.07918 0.0708 0.12176 0.1451 0.19592 0.0523 0.05214 0.12563 0.11264 0.16303 0.13458 0.0983 0.05758 0.24823 0.10574 0.40103 0.12868l0.13336 0.02018-0.11671 0.01446c-0.27888 0.03498-0.50967 0.15332-0.64159 0.32878-0.10514 0.13979-0.16023 0.28196-0.19283 0.49692l-0.0198 0.13121z" opacity=".90921"/>
    <path d="m48.44 62.55c-0.0208-0.20447-0.0959-0.4082-0.20006-0.5438-0.13336-0.1735-0.36114-0.2896-0.63698-0.32468l-0.12307-0.01581 0.1115-0.01547c0.15152-0.02086 0.26028-0.05238 0.37866-0.10945 0.0798-0.03841 0.12001-0.06828 0.20275-0.15031 0.0877-0.08695 0.11126-0.11911 0.15721-0.21476 0.25875-0.64617-0.0162-0.53463 0.24735 0.01143 0.0392 0.07918 0.0708 0.12176 0.1451 0.19592 0.0523 0.05214 0.12563 0.11264 0.16303 0.13458 0.0983 0.05758 0.24823 0.10574 0.40103 0.12868l0.13336 0.02018-0.11671 0.01446c-0.27888 0.03498-0.50967 0.15332-0.64159 0.32878-0.10514 0.13979-0.16023 0.28196-0.19283 0.49692l-0.0198 0.13121z" opacity=".90921"/>
    <path d="m174.49 72.36c-0.0208-0.20447-0.0959-0.4082-0.20006-0.5438-0.13336-0.1735-0.36114-0.2896-0.63698-0.32468l-0.12307-0.01581 0.1115-0.01547c0.15152-0.02086 0.26028-0.05238 0.37866-0.10945 0.0798-0.03841 0.12001-0.06828 0.20275-0.15031 0.0877-0.08695 0.11126-0.11911 0.15721-0.21476 0.25875-0.64617-0.0162-0.53463 0.24735 0.01143 0.0392 0.07918 0.0708 0.12176 0.1451 0.19592 0.0523 0.05214 0.12563 0.11264 0.16303 0.13458 0.0983 0.05758 0.24823 0.10574 0.40103 0.12868l0.13336 0.02018-0.11671 0.01446c-0.27888 0.03498-0.50967 0.15332-0.64159 0.32878-0.10514 0.13979-0.16023 0.28196-0.19283 0.49692l-0.0198 0.13121z" opacity=".90921"/>
   </g>
  </g>
 </g>
 <g transform="translate(-27.477 -42.159)">
  <g transform="matrix(.92895 -.020679 .012925 .72824 55.479 5.1355)" fill="#007705">
   <path d="m9.0677 127.45c-2.6365-6.3204 22.213-15.177 28.941-16.552 3.0341-0.19651 13.556-1.5538 19.268-0.0704 13.261 3.4438 30.074 10.467 33.417 16.669 0.29959 0.55579 0.16868 0.31312 0.38521 0.78324 0.28639 0.6218 0.38004 1.2773-0.0052 1.5815-14.96 12.445-66.933 11.824-82.006-2.4102z"/>
   <path d="m27.454 113.81c-1.8184-5.9745-1.9351-2.9062-1.5858-0.5058-1.8337-4.3126 0.72399 4.3958-1.8371-0.91102 1.7428 5.9386-3.0139-5.3089-0.82505 1.345-2.4784-4.4994-2.7577-5.1276-0.9157 0.10094-1.061-1.415-2.5362-4.0488-0.97736 1.2272-1.5427-1.0878-1.1283-2.4066-1.1991 0.1-2.1272-1.1888 1.2122 2.9654-2.017-0.60278 0.16835 1.8486-0.93827 0.23367 0.57153 4.1022-1.948-3.0088-2.7084-6.4712-1.7092-0.97584-3.2287-5.5489 0.17262 3.5434-2.8662-2.4733-0.14399 0.78523 0.30671 3.7416 0.46559 5.4106" stroke-opacity="0" stroke-width="2.4265"/>
   <path d="m72.154 115.15c1.9329-6.0284 2.0093-2.9028 1.6207-0.47008 1.9255-4.337-0.7974 4.4528 1.882-0.87536-1.8555 5.9941 3.1402-5.3174 0.82101 1.3919 2.5842-4.5088 2.8771-5.1403 0.93044 0.12867 1.0992-1.41 2.6368-4.0488 0.97764 1.2763 1.5848-1.0636 1.1814-2.4172 1.2188 0.13558 2.181-1.1497-1.2745 2.9836 2.0608-0.55653-0.19683 1.8764 0.95156 0.26413-0.63821 4.1582 2.0239-3.007 2.8455-6.5088 1.7527-0.94482 3.3619-5.5555-0.22456 3.601 2.9507-2.4361 0.13561 0.80318-0.36376 3.7988-0.54846 5.4925" stroke-opacity="0" stroke-width="2.4696"/>
  </g>
 </g>
 <g transform="matrix(-.92895 -.020679 -.012925 .72824 122.35 -30.476)">
  <g>
   <path d="m59.351 109.92c-0.03763 2.7046-6.3386 4.7252-14.074 4.5056-7.7349-0.21964-13.975-2.5963-13.937-5.301 0.03763-2.7047 6.3386-4.725 14.074-4.5053 7.7348 0.21964 13.975 2.596 13.937 5.3007z" fill="#1a1a1a" opacity=".2" stroke-width=".13184"/>
   <path d="m65.621 84.029c0.40517 0.81275 0.52533 1.4208 0.45098 2.3248 0.42616 0.8949 0.83583 1.0238 1.2116-0.23533l-0.66611-2.0612" fill="#ed9b9b" stroke="#1a1a1a" stroke-width=".32162"/>
   <path transform="matrix(.13745 .0039029 -.0024394 .17533 429.81 598.26)" d="m-2852-2745.4v-42.16c0-2.578 2.096-4.675 4.674-4.675 2.576 0 4.672 2.097 4.672 4.675v41.431c55.233 0.631 53.779 12.346 53.779 12.346h-71.706c-0.715-7.505 4.48-10.457 8.581-11.617z" fill="#bca843" stroke="#231f20" stroke-linecap="round" stroke-linejoin="round" stroke-miterlimit="10" stroke-width="4"/>
   <path transform="matrix(.13745 .0039029 -.0024394 .17533 429.81 598.26)" d="m-2873.8-2737.4v-42.16c0-2.579 2.096-4.674 4.675-4.674 2.583 0 4.679 2.095 4.679 4.674v41.426c55.227 0.636 53.772 12.352 53.772 12.352h-71.705c-0.718-7.507 4.482-10.457 8.579-11.618z" fill="#ffd500" stroke="#231f20" stroke-linecap="round" stroke-linejoin="round" stroke-miterlimit="10" stroke-width="4"/>
  </g>
  <g stroke="#231f20" stroke-linecap="round" stroke-linejoin="round" stroke-miterlimit="10" stroke-width="4">
   <path transform="matrix(.13745 .0039029 -.0024394 .17533 429.81 598.26)" d="m-2946.9-2804.2c-0.069-0.612 99.626-97.947 133.43-97.947 33.802 0 61.219 27.413 61.219 61.221 0 33.816-27.417 61.23-61.219 61.23-28.163 0-102.05 5.157-125.97-12.646-37.363 66.929-71.234 23.368-71.234 23.368z" fill="#f2f2f2"/>
   <path transform="matrix(.13745 .0039029 -.0024394 .17533 429.81 598.26)" d="m-2764.8-2862.4c24.788-8.118 40.457-33.453 35.755-59.871-5.164-28.92-32.781-48.184-61.703-43.031-28.925 5.157-48.182 32.775-43.032 61.701 0.872 4.893 2.388 9.508 4.447 13.771" fill="#fff"/>
   <path transform="matrix(.13745 .0039029 -.0024394 .17533 429.81 598.26)" d="m-2747.1-2875c-28.349 2.932-28.914-24.668-4.88-27.371 0 0 10.768-11.717 22.927-19.883 15.36 18.48 43.516 19.977 46.341 49.161z" fill="#ffd500"/>
   <path transform="matrix(.13745 .0039029 -.0024394 .17533 429.81 598.26)" d="m-2776.9-2846s9.356 48.997-31.167 52.895c0 0-110.68 6.229-109.11-14.807l41.761-17.929" fill="#d7e3f4"/>
  </g>
  <circle transform="matrix(.13745 .0039029 -.0024394 .17533 429.81 598.26)" cx="-2785.3" cy="-2924.8" r="8.473" fill="#231f20"/>
  <path transform="matrix(.13745 .0039029 -.0024394 .17533 429.81 598.26)" d="m-2873.6-2824.9 45.167-20.505c23.554-9.4499 33.277-6.9727 49.405 0.091l-1.6129 16.091z" fill="#d7e3f4" stroke-width="2.0714"/>
  <path transform="matrix(.13745 .0039029 -.0024394 .17533 429.81 598.26)" d="m-2827.2-2892.6c9.7989 31.373 38.319 23.742 61.075 28.121l-14.06-11.864z" fill="#fff" stroke="#fff" stroke-width="2.0714"/>
  <path d="m68.086 84.051s-9.9196-1.3985-10.187-3.2549" fill="none" stroke="#231f20" stroke-linecap="round" stroke-linejoin="round" stroke-miterlimit="10" stroke-width=".4658"/>
  <path d="m63.001 82.796c-0.84232 0.97864-1.4432 2.2484-1.1091 3.7255 1.0571 2.0668-0.33191 2.3405-0.75516 3.2539-0.14837 1.1015 0.35388 1.3483 1.0545 1.2823 1.0968-1.4573 1.6219-2.5915 0.85691-5.1392-0.09671-1.3384 0.8236-1.7284 1.4573-2.6945-0.53924-0.95801-1.0264-0.79195-1.5044-0.42805z" fill="#e9afaf" stroke="#1a1a1a" stroke-width=".32162"/>
  <g fill="none" stroke="#1a1a1a" stroke-width=".32162">
   <path d="m61.601 89.618c0.02013 5.72e-4 0.06003 0.02739 0.06039 0.0017 3.57e-4 -0.02568-0.08001 4e-3 -0.06039-0.0017 0.01001-3e-3 0.16528-0.03557 0.18144-0.0141 0.0078 0.0104 0.0053 0.03071 0.01455 0.03895 0.02164 0.01925 0.08053-0.0085 0.10569 3e-3 0.0067 0.0031 0.0081 0.01662 0.01482 0.01968 0.04614 0.02104 0.07461 0.02087 0.11998 0.06121 0.03052 0.02714 0.05669 0.07698 0.08925 0.09887 0.0045 3e-3 0.01159-0.0042 0.01509 4.28e-4 0.0067 0.0089 0.05604 0.13324 0.05852 0.13653 0.0091 0.01207 0.03001 0.01404 0.02939 0.05863"/>
   <path d="m62.337 88.81c0.01995 0.01343 0.04944 0.06563 0.05986 0.04023 0.01044-0.02539-0.07981-0.05364-0.05986-0.04023 0.03991 0.02682 0.07981 0.05364 0.11972 0.08047 0.0099 0.01314 0.01797 0.02896 0.02966 0.03938 0.02315 0.0206 0.01028-0.03244 0.02993 0.02011 0.0022 0.0058-0.0038 0.01461-2.68e-4 0.01925 0.0035 0.0046 0.01159-0.0042 0.01509 4.28e-4 0.0086 0.01143 0.03565 0.1026 0.04369 0.11684 0.02479 0.04392 0.04453 0.05624 0.04369 0.11684"/>
   <path d="m62.972 83.337c0.02013 5.71e-4 0.06003 0.02739 0.06039 0.0017 3.57e-4 -0.02568-0.08052-0.0023-0.06039-0.0017 0.04026 0.0011 0.08085-0.0034 0.12078 0.0034 0.0208 0.0035 0.0228 0.04988 0.02939 0.05864 0.01029 0.01366 0.04609 0.0035 0.05986 0.04023 0.01005 0.02684-0.01852 0.0167 0.01455 0.03895 0.0089 6e-3 0.02126-0.0051 0.0302 8.57e-4 0.01261 0.0085 0.01623 0.03323 0.02966 0.03938 0.0095 0.0043 0.0207-0.0035 0.0302 8.57e-4 0.04685 0.02139-0.0052 0.01271 0.01455 0.03895 0.0035 0.0046 0.01237-5e-3 0.01509 4.29e-4 0.01873 0.03738 0.01404 0.07564 0.01348 0.11598"/>
   <path d="m62.6 84.02c0.02022-0.0059 0.06533 0.0083 0.06066-0.01753-0.0047-0.02582-0.08088 0.02339-0.06066 0.01753 0.03073-0.0089 0.17628-0.06618 0.22701-0.03209 0.02294 0.0154 0.11617 0.14386 0.11864 0.1575 5.34e-4 0.0026-0.0055 0.07116-0.0011 0.07704 0.01977 0.02625 0.01554-0.03168 0.01482 0.01968"/>
  </g>
  <path d="m62.196 84.837c0.02333-0.01049 0.24122-0.06436 0.27257-0.05006 0.0067 0.0031 0.0085 0.01546 0.01482 0.01968 0.0045 3e-3 0.01292-0.0054 0.01509 4.29e-4 0.0043 0.0116-0.0075 0.02925-5.36e-4 0.03852 7e-3 0.0093 0.02126-0.0051 0.0302 8.58e-4 0.0193 0.01297-0.02468 0.03783 0.01455 0.03895" fill="#f2f2f2" stroke="#1a1a1a" stroke-width=".32162"/>
 </g>
</svg>
