<?xml version="1.0" encoding="UTF-8"?>
<!-- Created with Inkscape (http://www.inkscape.org/) -->
<svg width="168.71mm" height="62.92mm" version="1.1" viewBox="0 0 168.71 62.92" xmlns="http://www.w3.org/2000/svg">
 <defs>
  <clipPath id="clipPath14">
   <ellipse transform="matrix(.9996 .028384 -.013912 .9999 0 0)" cx="106.13" cy="91.443" rx="117.86" ry="38.66" fill="#0ff" stroke-width=".32164"/>
  </clipPath>
 </defs>
 <g transform="matrix(.93555 0 0 1 -12.419 -42.159)" style="mix-blend-mode:difference">
  <ellipse cx="103.44" cy="70.321" rx="90.165" ry="28.162" fill="#0ff" stroke-width=".2401"/>
  <g transform="matrix(.090962 0 0 .090962 -30.683 344.62)" fill="#fff">
   <path d="m856.42-3104.5c-2.1267 6e-4 -4.1513 0.4425-6.024 1.2083-2.8018-12.236-13.14-21.323-25.473-21.323-12.337-1e-4 -22.676 9.0873-25.475 21.322-1.8716-0.7663-3.901-1.2076-6.0256-1.2076-9.2777 0-16.797 8.0285-16.797 17.926 0 9.9 7.5202 17.926 16.797 17.924 2.9112 1e-4 17.466 1e-4 31.501 1e-4 14.033 2e-4 28.585 2e-4 31.497-1e-4 9.2768 1e-4 16.797-8.0248 16.797-17.926-8e-5 -9.8964-7.5207-17.926-16.797-17.926z" stroke-width=".29057"/>
   <path d="m1900.7-2963.8c-1.6112 0-3.1449 0.3138-4.5632 0.858-2.1224-8.6877-9.9529-15.141-19.297-15.141-9.346 2e-4 -17.178 6.4528-19.298 15.141-1.4174-0.544-2.9552-0.8577-4.5643-0.8577-7.0282-2e-4 -12.725 5.701-12.725 12.729-1e-4 7.0293 5.6965 12.728 12.725 12.728 2.205 2e-4 13.23 0 23.862 1e-4 10.63-1e-4 21.654-1e-4 23.86-1e-4 7.0273 0 12.724-5.6981 12.724-12.728 0-7.0272-5.6971-12.728-12.724-12.729z" stroke-width=".21311"/>
   <path d="m2106.7-3096.3c-1.9475-7e-4 -3.8013 0.3796-5.5161 1.0371-2.5652-10.501-12.03-18.302-23.323-18.302-11.297 1e-4 -20.763 7.8-23.326 18.302-1.7134-0.6574-3.5721-1.0366-5.5172-1.0369-8.495 3e-4 -15.381 6.8915-15.381 15.386-2e-4 8.4973 6.8859 15.385 15.381 15.385 2.665 0 15.992-4e-4 28.844 0h28.84c8.494 0 15.381-6.8878 15.381-15.385 0-8.4939-6.8867-15.385-15.38-15.386z" stroke-width=".25759"/>
   <path d="m1145.6-3179.7c-1.412-5e-4 -2.7561 0.2752-3.9993 0.752-1.8599-7.6138-8.7226-13.269-16.91-13.269-8.1906 1e-4 -15.054 5.6552-16.912 13.269-1.2422-0.4767-2.5899-0.7516-4.0001-0.7518-6.159 2e-4 -11.152 4.9965-11.152 11.155-2e-4 6.1607 4.9924 11.154 11.152 11.154 1.9322 0 11.595-3e-4 20.912 0h20.91c6.1584 0 11.151-4.9939 11.151-11.154 0-6.1584-4.993-11.155-11.151-11.155z" stroke-width=".18676"/>
  </g>
  <g transform="matrix(.92895 -.020679 .012925 .72824 6.7956 3.7091)" clip-path="url(#clipPath14)" opacity=".86056">
   <path d="m80.205 119.5c0.78266-2.441 0.81359-1.1754 0.65624-0.19034 0.77965-1.7561-0.32288 1.803 0.76204-0.35445-0.75132 2.4271 1.2715-2.1531 0.33244 0.5636 1.0464-1.8257 1.165-2.0814 0.37675 0.0521 0.44508-0.57094 1.0677-1.6394 0.39586 0.51681 0.64173-0.43065 0.47837-0.97874 0.49353 0.0549 0.88314-0.46552-0.51607 1.2081 0.83446-0.22535-0.0797 0.75977 0.3853 0.10695-0.25842 1.6837 0.81951-1.2176 1.1522-2.6355 0.7097-0.38257 1.3613-2.2495-0.09093 1.4581 1.1948-0.9864 0.05491 0.32522-0.14729 1.5382-0.22208 2.224" fill="#32c63d" stroke-opacity="0"/>
   <path d="m15.274 121.06c-0.05467-5.4217-0.58405-11.475 6.9305-6.8322 2.1259-2.8852 0.42816-6.2696 7.0794-8.564l0.56058 1.7068c6.613-1.8719 5.6384-0.5814 6.6693 1.4147 1.5957-3.9695 5.7716-6.2447 9.0017-6.9552 8.2767-0.86306 6.6869 2.052 9.1367 4.8515 2.3327-2.4244 3.9117-3.0713 9.5031 0.99378 1.9929-3.972 4.0214-7.7994 8.785-0.51663 3.1456-5.3403 5.7476-6.0531 7.8647-2.6387 8.6584 7.5159 3.3309 9.8592 4.8316 17.228z" fill="#26972e" stroke-width=".32162"/>
   <path d="m9.0677 127.45c-2.6365-6.3204 27.569-15.03 37.542-15.489 16.721-0.76192 39.3 6.6615 44.083 15.534 0.2996 0.55578 0.16868 0.31312 0.38521 0.78324 0.28639 0.6218 0.38004 1.2773-0.0052 1.5815-14.96 12.445-66.933 11.824-82.006-2.4102z" fill="#32c63d"/>
   <path d="m28.658 116.04c-0.50948-2.5589-0.67781-1.3119-0.62917-0.30821-0.58102-1.8804 0.12358 1.8434-0.71609-0.48995 0.47994 2.5394-1.0249-2.3632-0.39054 0.49711-0.83757-1.9981-0.92721-2.2728-0.37876-0.0173-0.37864-0.64637-0.87894-1.8175-0.44824 0.43922-0.58864-0.54341-0.36724-1.0561-0.49471-0.0358-0.8239-0.62205 0.37962 1.2899-0.80184-0.37544-0.0037 0.76654-0.39321 0.0355 0.07271 1.7136-0.67907-1.3547-0.85424-2.8188-0.66119-0.50827-1.1034-2.475-0.0686 1.4597-1.0759-1.1944-0.08979 0.31182-0.02151 1.5493-0.02206 2.2417" fill="#32c63d" stroke-opacity="0"/>
   <path d="m185.13 131.15c0.63699-5.3569-0.34021-14.314-8.2782-11.119-1.7943-3.2523-5.2048-7.5608-5.2048-7.5608-6.3452-3.0854-6.0383-2.513-7.2734-0.72906-1.1529-4.2269-3.3256 0.7679-6.4467-0.5373-4.6285-5.1958-7.8744-0.0478-10.6 2.267-2.0485-2.8347 0.12337-8.5676-5.8487-5.5854-1.0198-2.8389-2.0287-5.7236-5.1751-5.2035-1.6232 0.26829-4.8926 1.8091-6.7638 3.9605-2.5399-5.8727-4.7102-4.4382-7.1731-1.4527-1.8038 1.3573-2.3916 5.6654-3.8205 6.1658-7.512 2.6305-5.5212 4.7866-7.047 10.203z" fill="#26972e" stroke-width=".32162"/>
   <path d="m185.95 134.06c2.8102-6.1657-27.129-16.584-37.082-17.608-16.687-1.7106-39.454 4.4252-44.481 13.02-0.31483 0.53833-0.17725 0.3033-0.40669 0.76075-0.30346 0.60506-0.41527 1.2547-0.039 1.5805 14.602 13.284 66.552 15.615 82.008 2.247z" fill="#32c63d"/>
  </g>
 </g>
 <g transform="translate(-20.916 -42.159)">
  <g transform="matrix(.92895 -.020679 .012925 .72824 55.479 5.1355)" fill="#2db337">
   <path d="m9.0677 127.45c-2.6365-6.3204 27.402-16.349 34.13-17.724 3.2117-0.20801 7.777-0.8166 13.939 0.69551 13.174 3.2328 30.299 11.029 33.557 17.074 0.29959 0.55579 0.16868 0.31312 0.38521 0.78324 0.28639 0.6218 0.38004 1.2773-0.0052 1.5815-14.96 12.445-66.933 11.824-82.006-2.4102z"/>
   <path d="m69.029 116.3c2.3942-8.5628 2.6562-4.2106 2.2356-0.78675 2.468-6.2036-0.88986 6.2737 2.5796-1.3731-2.288 8.5086 4.1123-7.6691 1.2136 1.8744 3.3777-6.4966 3.7545-7.4009 1.3033 0.10406 1.4619-2.0552 3.4739-5.8593 1.4262 1.7006 2.1561-1.6114 1.5264-3.4662 1.7056 0.0904 2.9829-1.7798-1.628 4.2636 2.8448-0.94298-0.18097 2.6324 1.3395 0.29125-0.68263 5.85 2.6714-4.357 3.6424-9.3065 2.396-1.4594 4.4096-8.019-0.1338 5.0395 3.9917-3.6359 0.22899 1.109-0.31797 5.3267-0.49113 7.7034" stroke-opacity="0" stroke-width="3.4466"/>
   <g transform="matrix(-.99921 -.056769 -.027816 .99921 98.13 11.356)">
    <g>
     <path d="m59.351 109.92c-0.03763 2.7046-6.3386 4.7252-14.074 4.5056-7.7349-0.21964-13.975-2.5963-13.937-5.301 0.03763-2.7047 6.3386-4.725 14.074-4.5053 7.7348 0.21964 13.975 2.596 13.937 5.3007z" fill="#1a1a1a" opacity=".2" stroke-width=".13184"/>
     <path d="m65.621 84.029c0.40517 0.81275 0.52533 1.4208 0.45098 2.3248 0.42616 0.8949 0.83583 1.0238 1.2116-0.23533l-0.66611-2.0612" fill="#ed9b9b" stroke="#1a1a1a" stroke-width=".32162"/>
     <path transform="matrix(.13745 .0039029 -.0024394 .17533 429.81 598.26)" d="m-2852-2745.4v-42.16c0-2.578 2.096-4.675 4.674-4.675 2.576 0 4.672 2.097 4.672 4.675v41.431c55.233 0.631 53.779 12.346 53.779 12.346h-71.706c-0.715-7.505 4.48-10.457 8.581-11.617z" fill="#bca843" stroke="#231f20" stroke-linecap="round" stroke-linejoin="round" stroke-miterlimit="10" stroke-width="4"/>
     <path transform="matrix(.13745 .0039029 -.0024394 .17533 429.81 598.26)" d="m-2873.8-2737.4v-42.16c0-2.579 2.096-4.674 4.675-4.674 2.583 0 4.679 2.095 4.679 4.674v41.426c55.227 0.636 53.772 12.352 53.772 12.352h-71.705c-0.718-7.507 4.482-10.457 8.579-11.618z" fill="#ffd500" stroke="#231f20" stroke-linecap="round" stroke-linejoin="round" stroke-miterlimit="10" stroke-width="4"/>
    </g>
    <g stroke="#231f20" stroke-linecap="round" stroke-linejoin="round" stroke-miterlimit="10" stroke-width="4">
     <path transform="matrix(.13745 .0039029 -.0024394 .17533 429.81 598.26)" d="m-2946.9-2804.2c-0.069-0.612 99.626-97.947 133.43-97.947 33.802 0 61.219 27.413 61.219 61.221 0 33.816-27.417 61.23-61.219 61.23-28.163 0-102.05 5.157-125.97-12.646-37.363 66.929-71.234 23.368-71.234 23.368z" fill="#f2f2f2"/>
     <path transform="matrix(.13745 .0039029 -.0024394 .17533 429.81 598.26)" d="m-2764.8-2862.4c24.788-8.118 40.457-33.453 35.755-59.871-5.164-28.92-32.781-48.184-61.703-43.031-28.925 5.157-48.182 32.775-43.032 61.701 0.872 4.893 2.388 9.508 4.447 13.771" fill="#fff"/>
     <path transform="matrix(.13745 .0039029 -.0024394 .17533 429.81 598.26)" d="m-2747.1-2875c-28.349 2.932-28.914-24.668-4.88-27.371 0 0 10.768-11.717 22.927-19.883 15.36 18.48 43.516 19.977 46.341 49.161z" fill="#ffd500"/>
     <path transform="matrix(.13745 .0039029 -.0024394 .17533 429.81 598.26)" d="m-2776.9-2846s9.356 48.997-31.167 52.895c0 0-110.68 6.229-109.11-14.807l41.761-17.929" fill="#d7e3f4"/>
    </g>
    <circle transform="matrix(.13745 .0039029 -.0024394 .17533 429.81 598.26)" cx="-2785.3" cy="-2924.8" r="8.473" fill="#231f20"/>
    <path transform="matrix(.13745 .0039029 -.0024394 .17533 429.81 598.26)" d="m-2873.6-2824.9 45.167-20.505c23.554-9.4499 33.277-6.9727 49.405 0.091l-1.6129 16.091z" fill="#d7e3f4" stroke-width="2.0714"/>
    <path transform="matrix(.13745 .0039029 -.0024394 .17533 429.81 598.26)" d="m-2827.2-2892.6c9.7989 31.373 38.319 23.742 61.075 28.121l-14.06-11.864z" fill="#fff" stroke="#fff" stroke-width="2.0714"/>
    <path d="m68.086 84.051s-9.9196-1.3985-10.187-3.2549" fill="none" stroke="#231f20" stroke-linecap="round" stroke-linejoin="round" stroke-miterlimit="10" stroke-width=".4658"/>
    <path d="m63.001 82.796c-0.84232 0.97864-1.4432 2.2484-1.1091 3.7255 1.0571 2.0668-0.33191 2.3405-0.75516 3.2539-0.14837 1.1015 0.35388 1.3483 1.0545 1.2823 1.0968-1.4573 1.6219-2.5915 0.85691-5.1392-0.09671-1.3384 0.8236-1.7284 1.4573-2.6945-0.53924-0.95801-1.0264-0.79195-1.5044-0.42805z" fill="#e9afaf" stroke="#1a1a1a" stroke-width=".32162"/>
    <g fill="none" stroke="#1a1a1a" stroke-width=".32162">
     <path d="m61.601 89.618c0.02013 5.72e-4 0.06003 0.02739 0.06039 0.0017 3.57e-4 -0.02568-0.08001 4e-3 -0.06039-0.0017 0.01001-3e-3 0.16528-0.03557 0.18144-0.0141 0.0078 0.0104 0.0053 0.03071 0.01455 0.03895 0.02164 0.01925 0.08053-0.0085 0.10569 3e-3 0.0067 0.0031 0.0081 0.01662 0.01482 0.01968 0.04614 0.02104 0.07461 0.02087 0.11998 0.06121 0.03052 0.02714 0.05669 0.07698 0.08925 0.09887 0.0045 3e-3 0.01159-0.0042 0.01509 4.28e-4 0.0067 0.0089 0.05604 0.13324 0.05852 0.13653 0.0091 0.01207 0.03001 0.01404 0.02939 0.05863"/>
     <path d="m62.337 88.81c0.01995 0.01343 0.04944 0.06563 0.05986 0.04023 0.01044-0.02539-0.07981-0.05364-0.05986-0.04023 0.03991 0.02682 0.07981 0.05364 0.11972 0.08047 0.0099 0.01314 0.01797 0.02896 0.02966 0.03938 0.02315 0.0206 0.01028-0.03244 0.02993 0.02011 0.0022 0.0058-0.0038 0.01461-2.68e-4 0.01925 0.0035 0.0046 0.01159-0.0042 0.01509 4.28e-4 0.0086 0.01143 0.03565 0.1026 0.04369 0.11684 0.02479 0.04392 0.04453 0.05624 0.04369 0.11684"/>
     <path d="m62.972 83.337c0.02013 5.71e-4 0.06003 0.02739 0.06039 0.0017 3.57e-4 -0.02568-0.08052-0.0023-0.06039-0.0017 0.04026 0.0011 0.08085-0.0034 0.12078 0.0034 0.0208 0.0035 0.0228 0.04988 0.02939 0.05864 0.01029 0.01366 0.04609 0.0035 0.05986 0.04023 0.01005 0.02684-0.01852 0.0167 0.01455 0.03895 0.0089 6e-3 0.02126-0.0051 0.0302 8.57e-4 0.01261 0.0085 0.01623 0.03323 0.02966 0.03938 0.0095 0.0043 0.0207-0.0035 0.0302 8.57e-4 0.04685 0.02139-0.0052 0.01271 0.01455 0.03895 0.0035 0.0046 0.01237-5e-3 0.01509 4.29e-4 0.01873 0.03738 0.01404 0.07564 0.01348 0.11598"/>
     <path d="m62.6 84.02c0.02022-0.0059 0.06533 0.0083 0.06066-0.01753-0.0047-0.02582-0.08088 0.02339-0.06066 0.01753 0.03073-0.0089 0.17628-0.06618 0.22701-0.03209 0.02294 0.0154 0.11617 0.14386 0.11864 0.1575 5.34e-4 0.0026-0.0055 0.07116-0.0011 0.07704 0.01977 0.02625 0.01554-0.03168 0.01482 0.01968"/>
    </g>
    <path d="m62.196 84.837c0.02333-0.01049 0.24122-0.06436 0.27257-0.05006 0.0067 0.0031 0.0085 0.01546 0.01482 0.01968 0.0045 3e-3 0.01292-0.0054 0.01509 4.29e-4 0.0043 0.0116-0.0075 0.02925-5.36e-4 0.03852 7e-3 0.0093 0.02126-0.0051 0.0302 8.58e-4 0.0193 0.01297-0.02468 0.03783 0.01455 0.03895" fill="#f2f2f2" stroke="#1a1a1a" stroke-width=".32162"/>
   </g>
   <g transform="translate(-1.0462 .35683)"></g>
   <path d="m27.652 115.95c-2.3526-7.7296-2.5036-3.7599-2.0517-0.65438-2.3724-5.5795 0.93667 5.6872-2.3768-1.1786 2.2548 7.6831-3.8993-6.8685-1.0674 1.7401-3.2065-5.8212-3.5678-6.634-1.1847 0.1306-1.3727-1.8307-3.2812-5.2382-1.2645 1.5877-1.9959-1.4074-1.4598-3.1136-1.5514 0.12933-2.7521-1.538 1.5684 3.8365-2.6095-0.77986 0.2178 2.3917-1.2139 0.30231 0.73943 5.3073-2.5203-3.8927-3.5041-8.3722-2.2113-1.2625-4.1771-7.1789 0.22333 4.5843-3.7081-3.1999-0.18628 1.0159 0.39681 4.8408 0.60237 7" stroke-opacity="0" stroke-width="3.1393"/>
  </g>
 </g>
</svg>
