<?xml version="1.0" encoding="UTF-8"?>
<!-- Created with Inkscape (http://www.inkscape.org/) -->
<svg width="168.71mm" height="62.92mm" version="1.1" viewBox="0 0 168.71 62.92" xmlns="http://www.w3.org/2000/svg">
 <defs>
  <clipPath id="clipPath14">
   <ellipse transform="matrix(.9996 .028384 -.013912 .9999 0 0)" cx="106.13" cy="91.443" rx="117.86" ry="38.66" fill="#0ff" stroke-width=".32164"/>
  </clipPath>
 </defs>
 <g transform="matrix(.93555 0 0 1 -12.419 -42.159)" style="mix-blend-mode:difference">
  <ellipse cx="103.44" cy="70.321" rx="90.165" ry="28.162" fill="#0ff" stroke-width=".2401"/>
  <g transform="matrix(.090962 0 0 .090962 -30.683 344.62)" fill="#fff">
   <path d="m856.42-3104.5c-2.1267 6e-4 -4.1513 0.4425-6.024 1.2083-2.8018-12.236-13.14-21.323-25.473-21.323-12.337-1e-4 -22.676 9.0873-25.475 21.322-1.8716-0.7663-3.901-1.2076-6.0256-1.2076-9.2777 0-16.797 8.0285-16.797 17.926 0 9.9 7.5202 17.926 16.797 17.924 2.9112 1e-4 17.466 1e-4 31.501 1e-4 14.033 2e-4 28.585 2e-4 31.497-1e-4 9.2768 1e-4 16.797-8.0248 16.797-17.926-8e-5 -9.8964-7.5207-17.926-16.797-17.926z" stroke-width=".29057"/>
   <path d="m1900.7-2963.8c-1.6112 0-3.1449 0.3138-4.5632 0.858-2.1224-8.6877-9.9529-15.141-19.297-15.141-9.346 2e-4 -17.178 6.4528-19.298 15.141-1.4174-0.544-2.9552-0.8577-4.5643-0.8577-7.0282-2e-4 -12.725 5.701-12.725 12.729-1e-4 7.0293 5.6965 12.728 12.725 12.728 2.205 2e-4 13.23 0 23.862 1e-4 10.63-1e-4 21.654-1e-4 23.86-1e-4 7.0273 0 12.724-5.6981 12.724-12.728 0-7.0272-5.6971-12.728-12.724-12.729z" stroke-width=".21311"/>
   <path d="m2106.7-3096.3c-1.9475-7e-4 -3.8013 0.3796-5.5161 1.0371-2.5652-10.501-12.03-18.302-23.323-18.302-11.297 1e-4 -20.763 7.8-23.326 18.302-1.7134-0.6574-3.5721-1.0366-5.5172-1.0369-8.495 3e-4 -15.381 6.8915-15.381 15.386-2e-4 8.4973 6.8859 15.385 15.381 15.385 2.665 0 15.992-4e-4 28.844 0h28.84c8.494 0 15.381-6.8878 15.381-15.385 0-8.4939-6.8867-15.385-15.38-15.386z" stroke-width=".25759"/>
   <path d="m1145.6-3179.7c-1.412-5e-4 -2.7561 0.2752-3.9993 0.752-1.8599-7.6138-8.7226-13.269-16.91-13.269-8.1906 1e-4 -15.054 5.6552-16.912 13.269-1.2422-0.4767-2.5899-0.7516-4.0001-0.7518-6.159 2e-4 -11.152 4.9965-11.152 11.155-2e-4 6.1607 4.9924 11.154 11.152 11.154 1.9322 0 11.595-3e-4 20.912 0h20.91c6.1584 0 11.151-4.9939 11.151-11.154 0-6.1584-4.993-11.155-11.151-11.155z" stroke-width=".18676"/>
  </g>
  <g transform="matrix(.92895 -.020679 .012925 .72824 6.7956 3.7091)" clip-path="url(#clipPath14)" opacity=".86056">
   <path d="m80.205 119.5c0.78266-2.441 0.81359-1.1754 0.65624-0.19034 0.77965-1.7561-0.32288 1.803 0.76204-0.35445-0.75132 2.4271 1.2715-2.1531 0.33244 0.5636 1.0464-1.8257 1.165-2.0814 0.37675 0.0521 0.44508-0.57094 1.0677-1.6394 0.39586 0.51681 0.64173-0.43065 0.47837-0.97874 0.49353 0.0549 0.88314-0.46552-0.51607 1.2081 0.83446-0.22535-0.0797 0.75977 0.3853 0.10695-0.25842 1.6837 0.81951-1.2176 1.1522-2.6355 0.7097-0.38257 1.3613-2.2495-0.09093 1.4581 1.1948-0.9864 0.05491 0.32522-0.14729 1.5382-0.22208 2.224" fill="#32c63d" stroke-opacity="0"/>
   <path d="m15.274 121.06c-0.05467-5.4217-0.58405-11.475 6.9305-6.8322 2.1259-2.8852 0.42816-6.2696 7.0794-8.564l0.56058 1.7068c6.613-1.8719 5.6384-0.5814 6.6693 1.4147 1.5957-3.9695 5.7716-6.2447 9.0017-6.9552 8.2767-0.86306 6.6869 2.052 9.1367 4.8515 2.3327-2.4244 3.9117-3.0713 9.5031 0.99378 1.9929-3.972 4.0214-7.7994 8.785-0.51663 3.1456-5.3403 5.7476-6.0531 7.8647-2.6387 8.6584 7.5159 3.3309 9.8592 4.8316 17.228z" fill="#26972e" stroke-width=".32162"/>
   <path d="m9.0677 127.45c-2.6365-6.3204 27.569-15.03 37.542-15.489 16.721-0.76192 39.3 6.6615 44.083 15.534 0.2996 0.55578 0.16868 0.31312 0.38521 0.78324 0.28639 0.6218 0.38004 1.2773-0.0052 1.5815-14.96 12.445-66.933 11.824-82.006-2.4102z" fill="#32c63d"/>
   <path d="m28.658 116.04c-0.50948-2.5589-0.67781-1.3119-0.62917-0.30821-0.58102-1.8804 0.12358 1.8434-0.71609-0.48995 0.47994 2.5394-1.0249-2.3632-0.39054 0.49711-0.83757-1.9981-0.92721-2.2728-0.37876-0.0173-0.37864-0.64637-0.87894-1.8175-0.44824 0.43922-0.58864-0.54341-0.36724-1.0561-0.49471-0.0358-0.8239-0.62205 0.37962 1.2899-0.80184-0.37544-0.0037 0.76654-0.39321 0.0355 0.07271 1.7136-0.67907-1.3547-0.85424-2.8188-0.66119-0.50827-1.1034-2.475-0.0686 1.4597-1.0759-1.1944-0.08979 0.31182-0.02151 1.5493-0.02206 2.2417" fill="#32c63d" stroke-opacity="0"/>
   <path d="m185.13 131.15c0.63699-5.3569-0.34021-14.314-8.2782-11.119-1.7943-3.2523-5.2048-7.5608-5.2048-7.5608-6.3452-3.0854-6.0383-2.513-7.2734-0.72906-1.1529-4.2269-3.3256 0.7679-6.4467-0.5373-4.6285-5.1958-7.8744-0.0478-10.6 2.267-2.0485-2.8347 0.12337-8.5676-5.8487-5.5854-1.0198-2.8389-2.0287-5.7236-5.1751-5.2035-1.6232 0.26829-4.8926 1.8091-6.7638 3.9605-2.5399-5.8727-4.7102-4.4382-7.1731-1.4527-1.8038 1.3573-2.3916 5.6654-3.8205 6.1658-7.512 2.6305-5.5212 4.7866-7.047 10.203z" fill="#26972e" stroke-width=".32162"/>
   <path d="m185.95 134.06c2.8102-6.1657-27.129-16.584-37.082-17.608-16.687-1.7106-39.454 4.4252-44.481 13.02-0.31483 0.53833-0.17725 0.3033-0.40669 0.76075-0.30346 0.60506-0.41527 1.2547-0.039 1.5805 14.602 13.284 66.552 15.615 82.008 2.247z" fill="#32c63d"/>
  </g>
 </g>
 <g transform="translate(-20.916 -42.159)">
  <g transform="matrix(.92895 -.020679 .012925 .72824 55.479 5.1355)" fill="#2db337">
   <path d="m9.0677 127.45c-2.6365-6.3204 27.402-16.349 34.13-17.724 3.2117-0.20801 7.777-0.8166 13.939 0.69551 13.174 3.2328 30.299 11.029 33.557 17.074 0.29959 0.55579 0.16868 0.31312 0.38521 0.78324 0.28639 0.6218 0.38004 1.2773-0.0052 1.5815-14.96 12.445-66.933 11.824-82.006-2.4102z"/>
   <path d="m69.029 116.3c2.3942-8.5628 2.6562-4.2106 2.2356-0.78675 2.468-6.2036-0.88986 6.2737 2.5796-1.3731-2.288 8.5086 4.1123-7.6691 1.2136 1.8744 3.3777-6.4966 3.7545-7.4009 1.3033 0.10406 1.4619-2.0552 3.4739-5.8593 1.4262 1.7006 2.1561-1.6114 1.5264-3.4662 1.7056 0.0904 2.9829-1.7798-1.628 4.2636 2.8448-0.94298-0.18097 2.6324 1.3395 0.29125-0.68263 5.85 2.6714-4.357 3.6424-9.3065 2.396-1.4594 4.4096-8.019-0.1338 5.0395 3.9917-3.6359 0.22899 1.109-0.31797 5.3267-0.49113 7.7034" stroke-opacity="0" stroke-width="3.4466"/>
   <g transform="translate(-1.0462 .35683)"></g>
   <path d="m27.652 115.95c-2.3526-7.7296-2.5036-3.7599-2.0517-0.65438-2.3724-5.5795 0.93667 5.6872-2.3768-1.1786 2.2548 7.6831-3.8993-6.8685-1.0674 1.7401-3.2065-5.8212-3.5678-6.634-1.1847 0.1306-1.3727-1.8307-3.2812-5.2382-1.2645 1.5877-1.9959-1.4074-1.4598-3.1136-1.5514 0.12933-2.7521-1.538 1.5684 3.8365-2.6095-0.77986 0.2178 2.3917-1.2139 0.30231 0.73943 5.3073-2.5203-3.8927-3.5041-8.3722-2.2113-1.2625-4.1771-7.1789 0.22333 4.5843-3.7081-3.1999-0.18628 1.0159 0.39681 4.8408 0.60237 7" stroke-opacity="0" stroke-width="3.1393"/>
   <g transform="matrix(.30576 .0086824 -.0054797 .39384 16.139 36.371)">
    <path d="m57.668 152.74c-9.2502-1.3534-19.061-7.6796-23.502-15.154-6.5207-10.976-5.4798-24.126 2.6902-33.986 9.2459-11.159 25.306-15.484 39.551-10.653 9.6012 3.2563 17.375 10.864 20.455 20.019 1.1812 3.5104 1.6049 9.9045 0.91783 13.85-2.1116 12.125-13.293 22.86-26.693 25.625-3.5314 0.7288-9.5592 0.86258-13.419 0.29783zm13.695-25.066c2.3357-0.87388 4.7269-3.0533 5.6989-5.1942 0.91624-2.018 0.92305-5.7234 0.0142-7.7245-1.4885-3.2774-4.9303-5.5092-9.0254-5.8525-4.9484-0.41486-9.2023 1.9518-10.994 6.1165-1.1678 2.7146-0.95213 6.0936 0.54254 8.5006 1.1398 1.8356 3.8369 3.9445 5.7558 4.5005 2.1055 0.61011 5.8888 0.44646 8.0078-0.34638z" fill="#ff13ff" stop-color="#000000"/>
    <path d="m91.762 95.146c-6.0323-1.1024-10.817-3.2737-15.614-7.0858-7.7524-6.1606-11.298-14.301-9.5199-21.856 1.2517-5.318 5.7069-9.3332 12.258-11.047 3.2063-0.83895 10.319-0.55709 14.093 0.55846 8.8948 2.6294 15.926 8.0849 19.653 15.248 2.9832 5.734 3.2765 10.438 0.94567 15.164-3.4721 7.0411-12.412 10.737-21.816 9.0184zm5.6098-15.97c0.63114-0.32638 1.4669-1.1171 1.8572-1.7572 2.5888-4.2457-2.9781-10.434-9.3865-10.434-6.3053 0-7.5095 6.8627-1.9249 10.97 2.8698 2.1105 6.7623 2.6133 9.4542 1.2212z" fill="#f00" stop-color="#000000"/>
    <path d="m139.15 96.05c-4.2746-0.64713-9.8151-3.5489-13.863-7.2609-6.1268-5.6179-9.8162-13.842-8.6497-19.281 0.77912-3.6329 3.0603-6.3678 6.5263-7.8243 1.6997-0.71428 7.3789-0.67347 9.886 0.07104 6.7619 2.0081 13.498 7.3286 17.357 13.709 4.019 6.6458 4.0282 14.149 0.022 17.949-2.4446 2.3187-6.742 3.3234-11.278 2.6368zm0.60256-13.277c4.5516-2.1599 0.19972-10.214-5.9099-10.937-1.7358-0.20558-1.9462-0.14272-2.9786 0.88964-0.84498 0.84499-1.1108 1.4381-1.1108 2.4781 0 2.9325 2.7456 6.4136 5.9565 7.5524 1.9676 0.69783 2.6026 0.70052 4.0429 0.01709z" fill="#fa8d04" stop-color="#000000"/>
    <path d="m170.19 135.15c-4.4102-0.97864-8.8468-3.8185-13.239-8.4741-5.237-5.5515-8.1182-11.258-9.0238-17.872-0.63718-4.6538 0.26393-8.7691 2.553-11.659 3.4428-4.3469 10.751-4.6111 17.356-0.6276 6.4765 3.9057 11.858 10.522 14.663 18.026 1.03 2.7562 1.1975 3.7032 1.3289 7.5158 0.13263 3.8467 0.0549 4.6166-0.6578 6.5139-1.9902 5.2984-7.0927 7.8838-12.981 6.5772zm1.1456-16.527c0.62187-0.62195 0.75888-1.1868 0.73404-3.0265-0.065-4.8117-4.0474-9.3183-8.2562-9.3426-2.1608-0.0125-3.1653 1.2216-3.1608 3.8834 8e-3 4.9181 4.475 9.8617 8.5018 9.4095 0.78023-0.0876 1.76-0.50259 2.1812-0.92375z" fill="#fddf00" stop-color="#000000"/>
    <path d="m123.97 141.86c-16.888-4.4227-27.813-25.144-20.849-39.546 1.3901-2.8749 5.0851-6.4801 8.2103-8.0108 10.748-5.2641 25.847 1.4001 32.927 14.533 5.9371 11.012 5.0149 22.261-2.3788 29.018-4.7234 4.317-11.193 5.7638-17.91 4.0049zm6.8666-19.551c0.49984-0.35766 1.2888-1.3768 1.7531-2.2649 2.6479-5.0635-2.3372-12.686-8.2966-12.686-2.564 0-4.6158 1.117-5.4572 2.9708-2.0702 4.5612 0.99593 11.013 6.0025 12.63 1.5268 0.49325 4.9132 0.12619 5.9982-0.65016z" fill="#999" stop-color="#000000"/>
    <path d="m102.44 222.87c-2.609-0.32932-4.9322-1.1181-8.6623-2.9412-2.469-1.2067-3.8058-2.2089-6.8237-5.1156-5.324-5.1279-8.0643-9.5322-10.438-16.777-1.5794-4.8194-2.1455-8.8583-2.1654-15.45-0.0204-6.7465 0.52093-10.287 2.3776-15.55 4.5461-12.886 13.506-22.079 24.193-24.823 3.1163-0.80007 8.4675-0.97647 11.559-0.38103 5.2672 1.0146 10.884 4.1397 15.071 8.3843 10.747 10.897 14.716 28.945 9.979 45.371-1.0461 3.6272-3.8025 9.6199-5.8293 12.673-4.2391 6.3864-11.812 12.155-18.345 13.973-2.0988 0.58416-8.4105 0.95177-10.915 0.63569zm10.411-33.87c2.3451-1.0921 5.0049-4.0437 5.9713-6.6265 0.83893-2.2422 1.034-7.644 0.36318-10.059-0.61285-2.2068-3.2828-5.7796-5.2096-6.9712-1.5191-0.93941-2.0581-1.0661-4.5185-1.062-3.2363 5e-3 -4.4731 0.51471-6.6186 2.7255-2.8696 2.9569-4.4169 8.1492-3.6782 12.343 0.44409 2.5211 1.8993 5.9232 3.071 7.1796 2.9905 3.2067 7.0243 4.1454 10.619 2.4712z" fill="#00e6ff" stop-color="#000000"/>
    <path d="m166.38 196.37c-7.7042-1.1285-16.521-8.835-21.525-18.815-3.4217-6.8238-5.1304-14.66-4.8084-22.051 0.22139-5.0829 0.82226-7.5612 2.8645-11.815 4.2876-8.9298 12.903-11.833 22.073-7.4389 8.3075 3.9813 15.471 13.219 18.877 24.343 1.6615 5.4267 1.9722 7.9042 1.7934 14.299-0.14458 5.1696-0.26035 5.9838-1.2551 8.8276-3.2123 9.1832-9.8543 13.846-18.019 12.65zm1.5392-24.873c0.58211-0.30102 1.456-1.2416 1.9421-2.0903 1.775-3.0992 1.5491-6.8774-0.68336-11.429-3.441-7.0162-10.559-7.961-12.395-1.6452-2.3484 8.0781 5.1349 18.268 11.136 15.165z" fill="#05f30a" stop-color="#000000"/>
   </g>
  </g>
 </g>
</svg>
