<?xml version="1.0" encoding="UTF-8"?>
<!-- Created with Inkscape (http://www.inkscape.org/) -->
<svg id="gea-logo" width="53.116mm" height="71.751mm" version="1.1" viewBox="0 0 53.116 71.751" xmlns="http://www.w3.org/2000/svg">
 <defs>
  <linearGradient id="linearGradient22" x1="465.52" x2="255.14" y1="826.25" y2="437.48" gradientTransform="matrix(.1047 0 0 .10479 -71.306 -39.891)" gradientUnits="userSpaceOnUse">
   <stop stop-color="#d6d6d6" stop-opacity=".15201" offset="0"/>
   <stop stop-color="#dfdfdf" stop-opacity="0" offset="1"/>
  </linearGradient>
  <clipPath id="clipPath6603-6-3">
   <path transform="matrix(.38984 -.0015378 .0015378 .38984 -191.48 -165.47)" d="m638.86 565.08-22.197-0.0302-0.56345 14.49 3.0937-3e-3c-0.0212 1.8291-0.0475 3.627-0.072 5.4948-4.3123 5.3811-8.475 4.9838-12.401 11.695-3.0607 12.43-0.64511 18.1 0.89325 27.415 1.1251 12.423-2.7724 12.529-1.908 35.529-0.0464 4.8162 4.2193 9.865 9.1615 9.7536l9.3328-9.4e-4v1e-3l16.495-6.7e-4c4.9422 0.11143 9.2079-4.9365 9.1615-9.7526 0.86445-23-3.0338-23.107-1.9088-35.531 1.5384-9.3143 3.9534-14.985 0.89275-27.415-3.9264-6.7113-8.0891-6.314-12.401-11.695-0.0246-1.8743-0.0507-3.679-0.0719-5.515l2.8867-4e-3 -0.39342-14.432z" fill="#fff" filter="url(#filter4530-5-2)" stroke="#000" stroke-linecap="round" stroke-linejoin="round" stroke-width="3.37"/>
  </clipPath>
  <filter id="filter1-7" x="-.81265" y="-.20447" width="2.6253" height="1.4089" color-interpolation-filters="sRGB">
   <feGaussianBlur result="blur" stdDeviation="5.94275 3.76793"/>
  </filter>
  <linearGradient id="linearGradient22-3" x1="465.52" x2="255.14" y1="826.25" y2="437.48" gradientTransform="matrix(.10387 0 0 .10395 -14.228 -40.221)" gradientUnits="userSpaceOnUse">
   <stop stop-color="#fff" stop-opacity=".15201" offset="0"/>
   <stop stop-color="#f2f2f2" stop-opacity="0" offset="1"/>
  </linearGradient>
  <clipPath id="clipPath6603-6-5">
   <path transform="matrix(.38984 -.0015378 .0015378 .38984 -191.48 -165.47)" d="m638.86 565.08-22.197-0.0302-0.56345 14.49 3.0937-3e-3c-0.0212 1.8291-0.0475 3.627-0.072 5.4948-4.3123 5.3811-8.475 4.9838-12.401 11.695-3.0607 12.43-0.64511 18.1 0.89325 27.415 1.1251 12.423-2.7724 12.529-1.908 35.529-0.0464 4.8162 4.2193 9.865 9.1615 9.7536l9.3328-9.4e-4v1e-3l16.495-6.7e-4c4.9422 0.11143 9.2079-4.9365 9.1615-9.7526 0.86445-23-3.0338-23.107-1.9088-35.531 1.5384-9.3143 3.9534-14.985 0.89275-27.415-3.9264-6.7113-8.0891-6.314-12.401-11.695-0.0246-1.8743-0.0507-3.679-0.0719-5.515l2.8867-4e-3 -0.39342-14.432z" fill="#fff" filter="url(#filter4530-5-2)" stroke="#000" stroke-linecap="round" stroke-linejoin="round" stroke-width="3.37"/>
  </clipPath>
  <filter id="filter1-5" x="-.81265" y="-.20447" width="2.6253" height="1.4089" color-interpolation-filters="sRGB">
   <feGaussianBlur result="blur" stdDeviation="5.94275 3.76793"/>
  </filter>
 </defs>
 <g id="logo-gobrik" transform="matrix(.54723 0 0 .54723 -74.272 42.845)" fill="#4d4d4d">
  <path d="m66.878 28.575h6.1451v7.3822q0.73414-0.35348 1.5091-0.54381t1.5906-0.19033q1.5635 0 2.8958 0.5846t2.2976 1.5906q0.96526 1.006 1.5091 2.352 0.55741 1.3459 0.55741 2.855 0 1.5227-0.54381 2.8686-0.53022 1.3459-1.4955 2.352-0.96526 0.99246-2.2976 1.5771-1.3323 0.571-2.923 0.571-0.8565 0-1.6314-0.16314t-1.4683-0.46224v0.38067h-4.1737v-17.429h-1.9713zm8.9593 10.4q-0.89729 0-1.6178 0.40786-0.70695 0.40786-1.1964 1.1692v4.2145q0.43505 0.65257 1.1556 1.0604 0.73414 0.39426 1.6314 0.39426 0.69336 0 1.3187-0.24471 0.62538-0.25831 1.0876-0.72055 0.47583-0.47584 0.74774-1.1284 0.2719-0.66617 0.2719-1.4955 0-0.84291-0.2719-1.5227t-0.73414-1.1556-1.0876-0.72055q-0.61179-0.25831-1.3051-0.25831zm20.985 1.7946h-3.8203v-1.4547q-0.55741 0-1.0196 0.08157-0.46224 0.06798-0.81572 0.24472-0.33988 0.17674-0.5846 0.48943-0.23112 0.31269-0.32629 0.77493v5.0982h2.8686v3.7251h-9.1904v-3.7251h2.1073v-6.6345h-2.0801v-3.7251h6.2674v0.99246q0.59819-0.47584 1.3459-0.73414 0.74774-0.25831 1.6314-0.25831 0.89729 0 1.849 0.0136 0.95167 0.0136 1.7674 0.0136zm1.0412-5.1254h6.3218v10.36h1.9577v3.7251h-8.2795v-3.7251h2.1209v-6.6345h-2.1209zm1.9033-4.5408q0-0.50302 0.17674-0.93807 0.19034-0.44864 0.51662-0.77493 0.32629-0.32629 0.76134-0.51662 0.44864-0.19033 0.96526-0.19033 0.48943 0 0.92448 0.19033t0.76133 0.51662q0.32629 0.32629 0.51662 0.77493 0.19034 0.43505 0.19034 0.93807t-0.19034 0.95167q-0.19033 0.43505-0.51662 0.76134-0.32628 0.32629-0.76133 0.51662t-0.92448 0.19033q-0.51662 0-0.96526-0.19033-0.43505-0.19033-0.76134-0.51662-0.32628-0.32629-0.51662-0.76134-0.17674-0.44864-0.17674-0.95167zm7.2814-2.5287h6.349v12.195h2.3792l0.97886-1.4003v-3.7251h7.2871v3.7251h-2.5287l-2.6239 3.0317 2.6783 3.2357h2.3384v4.0922h-3.8203l-4.568-6.0363h-2.1209v2.3112h1.4411v3.7251h-7.7901v-3.7251h2.1752v-13.704h-2.1752z"/>
  <path d="m47.72 48.492q-0.69336 0.73414-1.6178 1.142-0.91088 0.40786-2.0801 0.40786-1.4275 0-2.6647-0.48943-1.2236-0.50302-2.1345-1.4547-0.89729-0.96526-1.4139-2.352-0.50302-1.4003-0.50302-3.1949 0-1.6314 0.48943-2.9638 0.48943-1.3459 1.3867-2.284 0.89729-0.95167 2.1616-1.4683 1.2644-0.53022 2.8142-0.53022 1.0604 0 1.9033 0.24472 0.8565 0.23112 1.6586 0.81572v-0.72055h2.5287v13.527q0 3.3444-1.5906 5.0574-1.5771 1.713-4.9215 1.713-0.73414 0-1.5363-0.10876-0.80212-0.10876-1.5906-0.35348-0.77493-0.23112-1.5227-0.59819-0.73414-0.36707-1.3595-0.89729l1.3595-2.0529q0.40786 0.35348 0.92448 0.65257 0.53022 0.2991 1.1284 0.50302 0.59819 0.21752 1.2372 0.33988t1.278 0.12236q1.0468 0 1.8082-0.21752 0.77493-0.21752 1.2644-0.77493 0.50302-0.54381 0.74774-1.4819 0.24472-0.93807 0.24472-2.3792zm-3.3716-0.65257q0.62538 0 1.142-0.12236t0.93807-0.31269q0.42145-0.20393 0.73414-0.46224 0.32629-0.25831 0.55741-0.54381v-7.7085q-0.69336-0.61179-1.6042-0.88369-0.89729-0.2719-1.849-0.2719-0.89729 0-1.6858 0.33988-0.78852 0.32629-1.3867 0.96526-0.5846 0.63898-0.92448 1.5635-0.33988 0.92448-0.33988 2.1209 0 1.3051 0.32629 2.2976t0.91088 1.6722q0.5846 0.66617 1.4003 1.006 0.81572 0.33988 1.781 0.33988zm7.9204-5.1526q0.0136-1.6722 0.53022-3.0453 0.53022-1.3731 1.4683-2.352 0.93807-0.99245 2.2296-1.5227 1.2916-0.53022 2.8414-0.53022 1.5635 0 2.855 0.53022 1.3051 0.53022 2.2296 1.5091 0.92448 0.96526 1.4411 2.3384 0.51662 1.3731 0.51662 3.0453 0 1.645-0.51662 3.0317-0.51662 1.3731-1.4411 2.3656t-2.2296 1.5499q-1.2916 0.54381-2.855 0.54381-1.5906 0-2.8822-0.54381t-2.216-1.5227q-0.92448-0.99245-1.4411-2.3656-0.51662-1.3731-0.53022-3.0317zm2.6783 0q0 1.21 0.33988 2.1888 0.35348 0.97886 0.95167 1.6722 0.61179 0.67976 1.4003 1.0604 0.80212 0.36707 1.6994 0.36707 0.93807 0 1.7402-0.36707 0.81572-0.36707 1.4139-1.0468 0.59819-0.69336 0.93807-1.6722 0.33988-0.97886 0.33988-2.2024 0-1.278-0.33988-2.2704-0.33988-0.99245-0.93807-1.6586-0.5846-0.66617-1.4003-1.006-0.81572-0.33988-1.7538-0.33988-0.89729 0-1.6994 0.33988-0.78853 0.33988-1.4003 1.006-0.59819 0.66617-0.95167 1.6586-0.33988 0.99245-0.33988 2.2704z"/>
 </g>
 <rect x="-56.591" y="1.0255" width="52.8" height="52.8" ry="13.714" fill="url(#linearGradient22)" stroke="#666" stroke-width="1.243"/>
 <g transform="matrix(.55151 0 0 .55151 -88.856 -54.44)">
  <g transform="matrix(1.6414 -.78753 .78753 1.6414 -42.43 69.194)" clip-path="url(#clipPath6603-6-3)" fill-rule="evenodd" filter="url(#filter1-7)">
   <path d="m45.708 66.816 0.43519-9.7918c8.7427-10.184 13.385-2.9161 16.32 0.2176l0.2176 9.3566c-6.9137 3.8778-11.353 0.2398-16.972 0.21759z" fill="#f0f"/>
   <path d="m45.578 74.494 0.43519-9.7918c8.0577-1.7312 10.172 3.8557 16.32 0.2176l0.2176 9.3566z" fill="#00d6ff"/>
   <path d="m46.156 80.201-0.12695-8.7097c2.5623-3.0488 10.077 6.2534 16.882-0.8645l0.2176 9.3566c-5.8463 0.63489-12.788 4.5331-16.972 0.21759z" fill="#00f200"/>
   <path d="m45.926 89.701 0.43519-9.7918c7.9476 3.6455 11.478-3.8916 16.32 0.2176l0.2176 9.3566z" fill="#fff100"/>
   <path d="m45.919 96.017 0.43553-8.935c8.0493 0.61277 11.765 4.5126 16.332 0.19856l0.21776 8.5379z" fill="#f00"/>
  </g>
  <g transform="matrix(1.0561 0 0 1.0561 -4.2457 -8.2413)" stroke="#4d4d4d" stroke-linecap="round" stroke-linejoin="round">
   <path d="m91.644 120.01c-2.0808 1.4332-7.103 2.4326-5.8348 5.0548 1.0118 2.0921 1.8428 3.8965 2.7671 5.8686-1.0307 4.5181-3.6644 5.4981-4.0719 10.708 1.792 8.414 4.9145 11.135 8.5747 16.317 4.3215 7.1833 1.9957 8.3902 9.2595 22.046 1.3836 2.9261 5.1788 3.8407 8.399 3.2131" fill-opacity="0" stroke-width="2.2648"/>
   <path d="m88.574 121.5c2.4141-0.74523 6.3103-4.068 7.5828-1.4479 1.0152 2.0904 1.9164 3.8608 2.892 5.8082 4.185 1.9903 6.586 0.53027 10.928 3.4382 5.494 6.6198 5.6952 10.757 7.4948 16.841 2.9608 7.8428 5.3492 6.765 11.567 20.928 1.4394 2.899 0.41504 5.6389-2.682 8.5833-2.1218 1.5863-6.5208 5.3497-15.619 7.5697" fill="none" stroke-width="2.2648"/>
   <path d="m81.233 119.57c4.2244-4.4399 8.522-5.8179 13.432-6.4875l4.4685 8.6129c-3.6441 4.0826-8.1898 6.0561-13.995 6.8026z" fill="#2479b3" fill-rule="evenodd" stroke-width="1.7467"/>
   <path d="m82.869 119.82c3.4686-3.6488 6.3151-4.5155 10.711-5.4358-3.4854 3.2337-6.4715 4.2174-10.711 5.4358z" fill="#4d4d4d" stroke-width="1.3495"/>
  </g>
 </g>
 <rect x=".36859" y=".36859" width="52.379" height="52.379" ry="13.605" fill="url(#linearGradient22-3)" stroke="#000" stroke-width=".73718"/>
 <path d="m15.842 14.227 6.2745-3.0441 0.74549 1.8016 5.7154 1.3046 2.7956 3.1062 2.3607 6.3988 2.982 6.4609 3.9138 6.2124 0.43488 4.7214-7.2685 5.0942-5.0942 1.491-2.6713-1.0561-3.2305-6.2124-2.6713-7.7034-3.7896-4.9699-2.2365-5.4669 0.93186-3.1683 1.8016-3.1683z" fill="#f9f9f9" stroke="#000" stroke-width=".14476"/>
 <g transform="matrix(.94221 -.45206 .45206 .94221 -58.93 -18.976)" clip-path="url(#clipPath6603-6-5)" fill-rule="evenodd" filter="url(#filter1-5)">
  <path d="m45.708 66.816 0.43519-9.7918c8.7427-10.184 13.385-2.9161 16.32 0.2176l0.2176 9.3566c-6.9137 3.8778-11.353 0.2398-16.972 0.21759z" fill="#f0f"/>
  <path d="m45.578 74.494 0.43519-9.7918c8.0577-1.7312 10.172 3.8557 16.32 0.2176l0.2176 9.3566z" fill="#00d6ff"/>
  <path d="m46.156 80.201-0.12695-8.7097c2.5623-3.0488 10.077 6.2534 16.882-0.8645l0.2176 9.3566c-5.8463 0.63489-12.788 4.5331-16.972 0.21759z" fill="#00f200"/>
  <path d="m45.926 89.701 0.43519-9.7918c7.9476 3.6455 11.478-3.8916 16.32 0.2176l0.2176 9.3566z" fill="#fff100"/>
  <path d="m45.919 96.017 0.43553-8.935c8.0493 0.61277 11.765 4.5126 16.332 0.19856l0.21776 8.5379z" fill="#f00"/>
 </g>
 <g transform="matrix(.60623 0 0 .60623 -37.011 -63.426)" stroke="#000" stroke-linecap="round" stroke-linejoin="round">
  <path d="m91.644 120.01c-2.0808 1.4332-7.103 2.4326-5.8348 5.0548 1.0118 2.0921 1.8428 3.8965 2.7671 5.8686-1.0307 4.5181-3.6644 5.4981-4.0719 10.708 1.792 8.414 4.9145 11.135 8.5747 16.317 4.3215 7.1833 1.9957 8.3902 9.2595 22.046 1.3836 2.9261 5.1788 3.8407 8.399 3.2131" fill-opacity="0" stroke-width="2.2648"/>
  <path d="m88.574 121.5c2.4141-0.74523 6.3103-4.068 7.5828-1.4479 1.0152 2.0904 1.9164 3.8608 2.892 5.8082 4.185 1.9903 6.586 0.53027 10.928 3.4382 5.494 6.6198 5.6952 10.757 7.4948 16.841 2.9608 7.8428 5.3492 6.765 11.567 20.928 1.4394 2.899 0.41504 5.6389-2.682 8.5833-2.1218 1.5863-6.5208 5.3497-15.619 7.5697" fill="none" stroke-width="2.2648"/>
  <path d="m81.233 119.57c4.2244-4.4399 8.522-5.8179 13.432-6.4875l4.4685 8.6129c-3.6441 4.0826-8.1898 6.0561-13.995 6.8026z" fill="#2479b3" fill-rule="evenodd" stroke-width="1.7467"/>
  <path d="m82.869 119.82c3.4686-3.6488 6.3151-4.5155 10.711-5.4358-3.4854 3.2337-6.4715 4.2174-10.711 5.4358z" fill="#333" stroke-width="1.3495"/>
 </g>
 <g transform="matrix(.54723 0 0 .54723 -16.929 41.138)" fill="#ececec">
  <path d="m66.878 28.575h6.1451v7.3822q0.73414-0.35348 1.5091-0.54381t1.5906-0.19033q1.5635 0 2.8958 0.5846t2.2976 1.5906q0.96526 1.006 1.5091 2.352 0.55741 1.3459 0.55741 2.855 0 1.5227-0.54381 2.8686-0.53022 1.3459-1.4955 2.352-0.96526 0.99246-2.2976 1.5771-1.3323 0.571-2.923 0.571-0.8565 0-1.6314-0.16314t-1.4683-0.46224v0.38067h-4.1737v-17.429h-1.9713zm8.9593 10.4q-0.89729 0-1.6178 0.40786-0.70695 0.40786-1.1964 1.1692v4.2145q0.43505 0.65257 1.1556 1.0604 0.73414 0.39426 1.6314 0.39426 0.69336 0 1.3187-0.24471 0.62538-0.25831 1.0876-0.72055 0.47583-0.47584 0.74774-1.1284 0.2719-0.66617 0.2719-1.4955 0-0.84291-0.2719-1.5227t-0.73414-1.1556-1.0876-0.72055q-0.61179-0.25831-1.3051-0.25831zm20.985 1.7946h-3.8203v-1.4547q-0.55741 0-1.0196 0.08157-0.46224 0.06798-0.81572 0.24472-0.33988 0.17674-0.5846 0.48943-0.23112 0.31269-0.32629 0.77493v5.0982h2.8686v3.7251h-9.1904v-3.7251h2.1073v-6.6345h-2.0801v-3.7251h6.2674v0.99246q0.59819-0.47584 1.3459-0.73414 0.74774-0.25831 1.6314-0.25831 0.89729 0 1.849 0.0136 0.95167 0.0136 1.7674 0.0136zm1.0412-5.1254h6.3218v10.36h1.9577v3.7251h-8.2795v-3.7251h2.1209v-6.6345h-2.1209zm1.9033-4.5408q0-0.50302 0.17674-0.93807 0.19034-0.44864 0.51662-0.77493 0.32629-0.32629 0.76134-0.51662 0.44864-0.19033 0.96526-0.19033 0.48943 0 0.92448 0.19033t0.76133 0.51662q0.32629 0.32629 0.51662 0.77493 0.19034 0.43505 0.19034 0.93807t-0.19034 0.95167q-0.19033 0.43505-0.51662 0.76134-0.32628 0.32629-0.76133 0.51662t-0.92448 0.19033q-0.51662 0-0.96526-0.19033-0.43505-0.19033-0.76134-0.51662-0.32628-0.32629-0.51662-0.76134-0.17674-0.44864-0.17674-0.95167zm7.2814-2.5287h6.349v12.195h2.3792l0.97886-1.4003v-3.7251h7.2871v3.7251h-2.5287l-2.6239 3.0317 2.6783 3.2357h2.3384v4.0922h-3.8203l-4.568-6.0363h-2.1209v2.3112h1.4411v3.7251h-7.7901v-3.7251h2.1752v-13.704h-2.1752z"/>
  <path d="m47.72 48.492q-0.69336 0.73414-1.6178 1.142-0.91088 0.40786-2.0801 0.40786-1.4275 0-2.6647-0.48943-1.2236-0.50302-2.1345-1.4547-0.89729-0.96526-1.4139-2.352-0.50302-1.4003-0.50302-3.1949 0-1.6314 0.48943-2.9638 0.48943-1.3459 1.3867-2.284 0.89729-0.95167 2.1616-1.4683 1.2644-0.53022 2.8142-0.53022 1.0604 0 1.9033 0.24472 0.8565 0.23112 1.6586 0.81572v-0.72055h2.5287v13.527q0 3.3444-1.5906 5.0574-1.5771 1.713-4.9215 1.713-0.73414 0-1.5363-0.10876-0.80212-0.10876-1.5906-0.35348-0.77493-0.23112-1.5227-0.59819-0.73414-0.36707-1.3595-0.89729l1.3595-2.0529q0.40786 0.35348 0.92448 0.65257 0.53022 0.2991 1.1284 0.50302 0.59819 0.21752 1.2372 0.33988t1.278 0.12236q1.0468 0 1.8082-0.21752 0.77493-0.21752 1.2644-0.77493 0.50302-0.54381 0.74774-1.4819 0.24472-0.93807 0.24472-2.3792zm-3.3716-0.65257q0.62538 0 1.142-0.12236t0.93807-0.31269q0.42145-0.20393 0.73414-0.46224 0.32629-0.25831 0.55741-0.54381v-7.7085q-0.69336-0.61179-1.6042-0.88369-0.89729-0.2719-1.849-0.2719-0.89729 0-1.6858 0.33988-0.78852 0.32629-1.3867 0.96526-0.5846 0.63898-0.92448 1.5635-0.33988 0.92448-0.33988 2.1209 0 1.3051 0.32629 2.2976t0.91088 1.6722q0.5846 0.66617 1.4003 1.006 0.81572 0.33988 1.781 0.33988zm7.9204-5.1526q0.0136-1.6722 0.53022-3.0453 0.53022-1.3731 1.4683-2.352 0.93807-0.99245 2.2296-1.5227 1.2916-0.53022 2.8414-0.53022 1.5635 0 2.855 0.53022 1.3051 0.53022 2.2296 1.5091 0.92448 0.96526 1.4411 2.3384 0.51662 1.3731 0.51662 3.0453 0 1.645-0.51662 3.0317-0.51662 1.3731-1.4411 2.3656t-2.2296 1.5499q-1.2916 0.54381-2.855 0.54381-1.5906 0-2.8822-0.54381t-2.216-1.5227q-0.92448-0.99245-1.4411-2.3656-0.51662-1.3731-0.53022-3.0317zm2.6783 0q0 1.21 0.33988 2.1888 0.35348 0.97886 0.95167 1.6722 0.61179 0.67976 1.4003 1.0604 0.80212 0.36707 1.6994 0.36707 0.93807 0 1.7402-0.36707 0.81572-0.36707 1.4139-1.0468 0.59819-0.69336 0.93807-1.6722 0.33988-0.97886 0.33988-2.2024 0-1.278-0.33988-2.2704-0.33988-0.99245-0.93807-1.6586-0.5846-0.66617-1.4003-1.006-0.81572-0.33988-1.7538-0.33988-0.89729 0-1.6994 0.33988-0.78853 0.33988-1.4003 1.006-0.59819 0.66617-0.95167 1.6586-0.33988 0.99245-0.33988 2.2704z"/>
 </g>
</svg>
