<?xml version="1.0" encoding="UTF-8" standalone="no"?>
<svg
   width="195.24899mm"
   height="110.76658mm"
   viewBox="0 0 195.24899 110.76658"
   version="1.1"
   id="svg3346"
   inkscape:version="1.4.2 (2aeb623e1d, 2025-05-12)"
   sodipodi:docname="good-night.svg"
   xmlns:inkscape="http://www.inkscape.org/namespaces/inkscape"
   xmlns:sodipodi="http://sodipodi.sourceforge.net/DTD/sodipodi-0.dtd"
   xmlns:xlink="http://www.w3.org/1999/xlink"
   xmlns="http://www.w3.org/2000/svg"
   xmlns:svg="http://www.w3.org/2000/svg"
   xmlns:rdf="http://www.w3.org/1999/02/22-rdf-syntax-ns#"
   xmlns:cc="http://creativecommons.org/ns#"
   xmlns:dc="http://purl.org/dc/elements/1.1/">
  <defs
     id="defs3340">
    <linearGradient
       inkscape:collect="always"
       id="linearGradient36656">
      <stop
         style="stop-color:#000000;stop-opacity:1;"
         offset="0"
         id="stop36652" />
      <stop
         style="stop-color:#000000;stop-opacity:0;"
         offset="1"
         id="stop36654" />
    </linearGradient>
    <linearGradient
       inkscape:collect="always"
       xlink:href="#linearGradient36656"
       id="linearGradient36658"
       x1="110.00022"
       y1="127.92047"
       x2="110.00022"
       y2="133.93404"
       gradientUnits="userSpaceOnUse"
       gradientTransform="matrix(1,0,0,0.90751019,-3.7041668,-26.855228)" />
    <clipPath
       clipPathUnits="userSpaceOnUse"
       id="clipPath37579">
      <rect
         inkscape:export-ydpi="75.472282"
         inkscape:export-xdpi="75.472282"
         inkscape:export-filename="/home/russs/Dropbox/Vision Ecobrick Source FIles/Vision Landscapes/Blue sky top.png"
         y="74.653618"
         x="34.508389"
         height="104.12717"
         width="195.2485"
         id="rect37581"
         style="opacity:1;fill:#000000;fill-opacity:1;stroke:none;stroke-width:0.178806;stroke-opacity:1" />
    </clipPath>
    <clipPath
       clipPathUnits="userSpaceOnUse"
       id="clipPath37583">
      <rect
         inkscape:export-ydpi="75.472282"
         inkscape:export-xdpi="75.472282"
         inkscape:export-filename="/home/russs/Dropbox/Vision Ecobrick Source FIles/Vision Landscapes/Blue sky top.png"
         y="75.182785"
         x="34.955067"
         height="104.12717"
         width="195.33098"
         id="rect37585"
         style="opacity:1;fill:#000000;fill-opacity:1;stroke:none;stroke-width:0.178843;stroke-opacity:1" />
    </clipPath>
    <clipPath
       clipPathUnits="userSpaceOnUse"
       id="clipPath37587">
      <rect
         inkscape:export-ydpi="75.472282"
         inkscape:export-xdpi="75.472282"
         inkscape:export-filename="/home/russs/Dropbox/Vision Ecobrick Source FIles/Vision Landscapes/Blue sky top.png"
         y="74.653618"
         x="34.508389"
         height="104.12717"
         width="195.2485"
         id="rect37589"
         style="opacity:1;fill:#000000;fill-opacity:1;stroke:none;stroke-width:0.178806;stroke-opacity:1" />
    </clipPath>
    <clipPath
       clipPathUnits="userSpaceOnUse"
       id="clipPath37591">
      <rect
         inkscape:export-ydpi="75.472282"
         inkscape:export-xdpi="75.472282"
         inkscape:export-filename="/home/russs/Dropbox/Vision Ecobrick Source FIles/Vision Landscapes/Blue sky top.png"
         y="74.653618"
         x="34.508389"
         height="104.12717"
         width="195.2485"
         id="rect37593"
         style="opacity:1;fill:#000000;fill-opacity:1;stroke:none;stroke-width:0.178806;stroke-opacity:1" />
    </clipPath>
    <clipPath
       clipPathUnits="userSpaceOnUse"
       id="clipPath37595">
      <rect
         inkscape:export-ydpi="75.472282"
         inkscape:export-xdpi="75.472282"
         inkscape:export-filename="/home/russs/Dropbox/Vision Ecobrick Source FIles/Vision Landscapes/Blue sky top.png"
         y="74.653618"
         x="34.508389"
         height="104.12717"
         width="195.2485"
         id="rect37597"
         style="opacity:1;fill:#000000;fill-opacity:1;stroke:none;stroke-width:0.178806;stroke-opacity:1" />
    </clipPath>
    <clipPath
       clipPathUnits="userSpaceOnUse"
       id="clipPath37599">
      <rect
         inkscape:export-ydpi="75.472282"
         inkscape:export-xdpi="75.472282"
         inkscape:export-filename="/home/russs/Dropbox/Vision Ecobrick Source FIles/Vision Landscapes/Blue sky top.png"
         y="74.653618"
         x="34.508389"
         height="104.12717"
         width="195.2485"
         id="rect37601"
         style="opacity:1;fill:#000000;fill-opacity:1;stroke:none;stroke-width:0.178806;stroke-opacity:1" />
    </clipPath>
    <clipPath
       clipPathUnits="userSpaceOnUse"
       id="clipPath37603">
      <rect
         inkscape:export-ydpi="75.472282"
         inkscape:export-xdpi="75.472282"
         inkscape:export-filename="/home/russs/Dropbox/Vision Ecobrick Source FIles/Vision Landscapes/Blue sky top.png"
         y="74.653618"
         x="34.508389"
         height="104.12717"
         width="195.2485"
         id="rect37605"
         style="opacity:1;fill:#000000;fill-opacity:1;stroke:none;stroke-width:0.178806;stroke-opacity:1" />
    </clipPath>
    <clipPath
       clipPathUnits="userSpaceOnUse"
       id="clipPath37607">
      <rect
         inkscape:export-ydpi="75.472282"
         inkscape:export-xdpi="75.472282"
         inkscape:export-filename="/home/russs/Dropbox/Vision Ecobrick Source FIles/Vision Landscapes/Blue sky top.png"
         y="74.653618"
         x="34.508389"
         height="104.12717"
         width="195.2485"
         id="rect37609"
         style="opacity:1;fill:#000000;fill-opacity:1;stroke:none;stroke-width:0.178806;stroke-opacity:1" />
    </clipPath>
    <clipPath
       clipPathUnits="userSpaceOnUse"
       id="clipPath37611">
      <rect
         inkscape:export-ydpi="75.472282"
         inkscape:export-xdpi="75.472282"
         inkscape:export-filename="/home/russs/Dropbox/Vision Ecobrick Source FIles/Vision Landscapes/Blue sky top.png"
         y="74.653618"
         x="34.508389"
         height="104.12717"
         width="195.2485"
         id="rect37613"
         style="opacity:1;fill:#000000;fill-opacity:1;stroke:none;stroke-width:0.178806;stroke-opacity:1" />
    </clipPath>
    <linearGradient
       inkscape:collect="always"
       xlink:href="#linearGradient16429-6"
       id="linearGradient21073"
       gradientUnits="userSpaceOnUse"
       gradientTransform="matrix(0.22682387,0,0,0.17815282,-232.39557,135.79653)"
       x1="1594.9595"
       y1="-248.2505"
       x2="1595.7772"
       y2="240.18227" />
    <linearGradient
       inkscape:collect="always"
       id="linearGradient16429-6">
      <stop
         style="stop-color:#0d0093;stop-opacity:1;"
         offset="0"
         id="stop16431-7" />
      <stop
         style="stop-color:#3642ff;stop-opacity:0.70588237;"
         offset="0.62351018"
         id="stop1" />
      <stop
         style="stop-color:#9ce5ff;stop-opacity:0;"
         offset="1"
         id="stop16433-5" />
    </linearGradient>
  </defs>
  <sodipodi:namedview
     id="base"
     pagecolor="#ffffff"
     bordercolor="#666666"
     borderopacity="1.0"
     inkscape:pageopacity="0.0"
     inkscape:pageshadow="2"
     inkscape:zoom="0.98994949"
     inkscape:cx="310.62191"
     inkscape:cy="301.53054"
     inkscape:document-units="mm"
     inkscape:current-layer="g12"
     showgrid="false"
     inkscape:window-width="1920"
     inkscape:window-height="1129"
     inkscape:window-x="0"
     inkscape:window-y="32"
     inkscape:window-maximized="1"
     fit-margin-top="0"
     fit-margin-left="0"
     fit-margin-right="0"
     fit-margin-bottom="0"
     showguides="true"
     inkscape:guide-bbox="true"
     inkscape:document-rotation="0"
     inkscape:pagecheckerboard="0"
     inkscape:showpageshadow="2"
     inkscape:deskcolor="#d1d1d1">
    <sodipodi:guide
       position="48.664437,180.72931"
       orientation="0,1"
       id="guide36674"
       inkscape:locked="false" />
    <sodipodi:guide
       position="195.27197,89.3483"
       orientation="1,0"
       id="guide37492"
       inkscape:locked="false" />
    <sodipodi:guide
       position="72.697313,43.189712"
       orientation="0,-1"
       id="guide3099"
       inkscape:locked="false" />
    <sodipodi:guide
       position="198.72099,71.526719"
       orientation="0,-1"
       id="guide3107"
       inkscape:locked="false" />
  </sodipodi:namedview>
  <metadata
     id="metadata3343">
    <rdf:RDF>
      <cc:Work
         rdf:about="">
        <dc:format>image/svg+xml</dc:format>
        <dc:type
           rdf:resource="http://purl.org/dc/dcmitype/StillImage" />
      </cc:Work>
    </rdf:RDF>
  </metadata>
  <g
     inkscape:label="Layer 1"
     inkscape:groupmode="layer"
     id="layer1"
     transform="translate(-34.508389,-68.014201)">
    <g
       id="g37554">
      <path
         id="rect2193"
         style="display:inline;opacity:0.9;fill:url(#linearGradient21073);stroke-width:0.266779"
         d="m 35.042928,68.239149 c 72.148582,0.01175 129.605592,0.224 194.714452,-0.267269 v 110.8089 H 34.508389 Z"
         sodipodi:nodetypes="ccccc" />
      <g
         fill="#fdf4c8"
         id="g12"
         transform="matrix(0.35389512,0,0,0.35389512,97.487705,91.724153)">
        <path
           id="path88605-6-33"
           d="m 314.84,340.72 c 0.10621,1.0339 0.48451,2.064 1.0117,2.7498 0.6743,0.87721 1.826,1.4642 3.2209,1.6418 l 0.62214,0.0793 -0.56395,0.0777 c -0.76627,0.10619 -1.3161,0.26476 -1.9148,0.55303 -0.40351,0.1942 -0.60708,0.34512 -1.0253,0.75988 -0.44362,0.43984 -0.56269,0.60246 -0.79496,1.086 -1.3083,3.2672 0.0809,2.7033 -1.2506,-0.054 -0.19803,-0.40096 -0.35769,-0.61613 -0.73376,-0.99076 -0.26446,-0.26363 -0.6353,-0.56932 -0.82428,-0.68033 -0.49688,-0.29124 -1.2551,-0.53462 -2.0276,-0.65081 l -0.67432,-0.10146 0.58996,-0.0745 c 1.4101,-0.17741 2.577,-0.77515 3.244,-1.6625 0.53147,-0.70664 0.81035,-1.4254 0.97508,-2.5125 l 0.0999,-0.6635 z"
           fill-opacity="0.74157"
           opacity="0.79465"
           stroke-width="0.059859" />
        <path
           id="path88605-6-6-8"
           d="m 409.25,384.3 c 0.0585,0.56954 0.26691,1.137 0.5573,1.5148 0.37145,0.48323 1.0059,0.80658 1.7743,0.90441 l 0.34271,0.0437 -0.31066,0.0428 c -0.42211,0.0585 -0.72499,0.14585 -1.0548,0.30464 -0.22228,0.10698 -0.33442,0.19012 -0.56481,0.41859 -0.24438,0.24229 -0.30996,0.33187 -0.43791,0.59826 -0.72071,1.7998 0.0445,1.4891 -0.68892,-0.0298 -0.10908,-0.22088 -0.19704,-0.33941 -0.4042,-0.54577 -0.14568,-0.14523 -0.34996,-0.31363 -0.45407,-0.37477 -0.27371,-0.16044 -0.69136,-0.29451 -1.117,-0.35852 l -0.37145,-0.0559 0.32498,-0.0411 c 0.77678,-0.0977 1.4196,-0.427 1.787,-0.91583 0.29276,-0.38926 0.44639,-0.78523 0.53713,-1.384 l 0.055,-0.3655 z"
           fill-opacity="0.90009"
           stroke-width="0.032974" />
        <path
           id="path88605-6-6-3-6-3"
           d="m 472.59,325.33 c 0.0771,0.75047 0.35165,1.4981 0.7343,1.996 0.48947,0.63673 1.3254,1.0628 2.3378,1.1917 l 0.45164,0.0575 -0.40941,0.0564 c -0.55616,0.0771 -0.95526,0.19219 -1.3898,0.40142 -0.29289,0.14097 -0.44064,0.25051 -0.74422,0.55156 -0.32196,0.31925 -0.40841,0.43729 -0.577,0.78831 -0.94965,2.3715 0.0584,1.9622 -0.90781,-0.0392 -0.14368,-0.29104 -0.25958,-0.44722 -0.53255,-0.71914 -0.19198,-0.19136 -0.46117,-0.41324 -0.59831,-0.49382 -0.36065,-0.21139 -0.91096,-0.38805 -1.4718,-0.47239 l -0.4894,-0.0736 0.42817,-0.0541 c 1.0236,-0.12877 1.8705,-0.56264 2.3547,-1.2068 0.38572,-0.51292 0.58815,-1.0347 0.70775,-1.8237 l 0.0723,-0.4816 z"
           fill-opacity="0.54929"
           stroke-width="0.043449" />
        <path
           id="path88605-6-6-3-2-3"
           d="m -0.15969,472.08 c 0.0771,0.75047 0.35169,1.4981 0.73433,1.996 0.48945,0.63673 1.3254,1.0628 2.3379,1.1917 l 0.45159,0.0575 -0.40935,0.0564 c -0.55619,0.0771 -0.95529,0.19218 -1.3898,0.40142 -0.29288,0.14096 -0.44064,0.2505 -0.74422,0.55156 -0.322,0.31925 -0.40843,0.43729 -0.57702,0.78831 -0.94965,2.3715 0.0587,1.9622 -0.90777,-0.0392 -0.14373,-0.29104 -0.25963,-0.44722 -0.53259,-0.71914 -0.19196,-0.19136 -0.46114,-0.41324 -0.59831,-0.49382 -0.36066,-0.2114 -0.91098,-0.38805 -1.4718,-0.4724 l -0.48945,-0.0736 0.42822,-0.0541 c 1.0235,-0.12877 1.8705,-0.56265 2.3547,-1.2068 0.38576,-0.51291 0.5882,-1.0347 0.70776,-1.8237 l 0.0725,-0.4816 z"
           fill-opacity="0.36501"
           stroke-width="0.043449" />
        <g
           fill-opacity="0.31594"
           stroke-width="0.03216"
           id="g8">
          <path
             id="path88605-6-3-9-8-7-0-3-08-7"
             d="m -611.7,-189.03 c -0.0571,0.55547 -0.26032,1.1089 -0.54354,1.4774 -0.36229,0.47135 -0.98105,0.78668 -1.7305,0.88211 l -0.33425,0.0424 0.30299,0.0416 c 0.41169,0.0573 0.7071,0.14228 1.0287,0.29712 0.21679,0.10438 0.32617,0.18544 0.55088,0.40825 0.23834,0.2363 0.30231,0.32372 0.4271,0.58349 0.70292,1.7554 -0.0435,1.4524 0.67191,-0.029 0.1064,-0.21543 0.19218,-0.33102 0.39423,-0.53224 0.14209,-0.14166 0.34132,-0.30591 0.44286,-0.36556 0.26695,-0.15649 0.6743,-0.28723 1.0894,-0.3497 l 0.36229,-0.0541 -0.31696,-0.04 c -0.75761,-0.0953 -1.3846,-0.41641 -1.7429,-0.89317 -0.28553,-0.37968 -0.43537,-0.76588 -0.52387,-1.3499 l -0.0537,-0.35645 z" />
          <path
             id="path88605-6-3-9-8-7-0-3-48-2"
             d="m -592.18,-60.504 c -0.0571,0.55548 -0.26032,1.1089 -0.54354,1.4774 -0.36229,0.47134 -0.98105,0.78667 -1.7305,0.8821 l -0.33425,0.0424 0.30299,0.0416 c 0.41169,0.0573 0.70709,0.14228 1.0287,0.29712 0.21679,0.10438 0.32616,0.18545 0.55087,0.40825 0.23834,0.2363 0.30232,0.32372 0.42711,0.58349 0.70292,1.7554 -0.0435,1.4524 0.67191,-0.029 0.10639,-0.21542 0.19218,-0.33102 0.39422,-0.53232 0.1421,-0.14158 0.34133,-0.30583 0.44287,-0.36548 0.26695,-0.15648 0.6743,-0.28723 1.0894,-0.3497 l 0.36229,-0.0541 -0.31696,-0.04 c -0.75762,-0.0953 -1.3846,-0.41641 -1.7429,-0.89317 -0.28553,-0.37968 -0.43537,-0.76587 -0.52388,-1.3499 l -0.0537,-0.35645 z" />
          <path
             id="path88605-6-3-9-8-7-0-3-0-9"
             d="m 557.95,-38.909 c -0.0571,0.55549 -0.26031,1.1089 -0.54354,1.4774 -0.36228,0.47129 -0.98104,0.78667 -1.7305,0.88207 l -0.33425,0.0425 0.30299,0.0418 c 0.4117,0.057 0.7071,0.14225 1.0287,0.29713 0.21679,0.10434 0.32617,0.18542 0.55088,0.40825 0.23834,0.23632 0.30232,0.32369 0.4271,0.5835 0.70292,1.7554 -0.0435,1.4524 0.67192,-0.029 0.10639,-0.21542 0.19218,-0.33103 0.39422,-0.5323 0.14209,-0.14164 0.34133,-0.30588 0.44286,-0.36552 0.26696,-0.15648 0.6743,-0.28723 1.0894,-0.34967 l 0.36229,-0.0545 -0.31696,-0.04 c -0.75761,-0.0953 -1.3846,-0.41646 -1.7429,-0.89322 -0.28554,-0.37966 -0.43538,-0.76585 -0.52388,-1.3499 l -0.0537,-0.35648 z" />
          <path
             id="path88605-6-3-9-8-7-0-3-59-7"
             d="m 520.78,-73.585 c -0.0571,0.55555 -0.26031,1.1089 -0.54354,1.4774 -0.36229,0.47126 -0.98104,0.78667 -1.7305,0.88202 l -0.33425,0.0424 0.30299,0.0416 c 0.4117,0.0573 0.7071,0.14228 1.0287,0.2972 0.21679,0.1043 0.32617,0.18537 0.55088,0.40825 0.23834,0.2363 0.30231,0.32364 0.4271,0.58349 0.70292,1.7553 -0.0435,1.4523 0.67192,-0.029 0.10639,-0.21542 0.19217,-0.33102 0.39422,-0.53232 0.14209,-0.14166 0.34133,-0.30591 0.44286,-0.36556 0.26696,-0.1564 0.6743,-0.28723 1.0894,-0.34962 l 0.36229,-0.0541 -0.31696,-0.04 c -0.75761,-0.0954 -1.3846,-0.41649 -1.7429,-0.89325 -0.28554,-0.37968 -0.43538,-0.7658 -0.52388,-1.3499 l -0.0537,-0.35645 z" />
          <path
             id="path88605-6-3-9-8-7-0-3-77-9"
             d="m 444.58,-152.07 c -0.0571,0.55555 -0.26031,1.1089 -0.54353,1.4774 -0.36229,0.47126 -0.98105,0.78667 -1.7305,0.88202 l -0.33425,0.0424 0.30299,0.0416 c 0.41169,0.0573 0.70709,0.14229 1.0287,0.2972 0.21679,0.1043 0.32616,0.18537 0.55087,0.40825 0.23834,0.2363 0.30232,0.32365 0.42711,0.58349 0.70292,1.7553 -0.0435,1.4523 0.67191,-0.029 0.10639,-0.21542 0.19218,-0.33102 0.39422,-0.53232 0.1421,-0.14165 0.34133,-0.30591 0.44287,-0.36555 0.26695,-0.15641 0.67429,-0.28724 1.0894,-0.34963 l 0.36228,-0.0541 -0.31696,-0.04 c -0.75761,-0.0953 -1.3846,-0.41649 -1.7429,-0.89325 -0.28554,-0.37968 -0.43538,-0.76587 -0.52388,-1.3499 l -0.0537,-0.35645 z" />
          <path
             id="path88605-6-3-9-8-7-0-3-56-4"
             d="m 179,-75.869 c -0.0571,0.55548 -0.26032,1.1089 -0.54354,1.4774 -0.36229,0.47126 -0.98105,0.78667 -1.7305,0.88202 l -0.33425,0.0424 0.30299,0.0416 c 0.41169,0.0573 0.7071,0.14229 1.0287,0.29712 0.21679,0.10438 0.32617,0.18545 0.55088,0.40825 0.23834,0.23638 0.30231,0.32373 0.4271,0.58357 0.70292,1.7553 -0.0435,1.4523 0.67191,-0.029 0.1064,-0.21542 0.19218,-0.3311 0.39423,-0.53232 0.14209,-0.14165 0.34132,-0.30591 0.44286,-0.36555 0.26695,-0.15649 0.6743,-0.28724 1.0894,-0.34963 l 0.36229,-0.0541 -0.31696,-0.04 c -0.75761,-0.0953 -1.3846,-0.41649 -1.7429,-0.89325 -0.28553,-0.37968 -0.43537,-0.76587 -0.52387,-1.3499 l -0.0537,-0.35645 z"
             style="fill:#ffcc00" />
          <path
             id="path88605-6-3-9-8-7-0-3-56-4-6"
             d="m -198.74,-229.42 c -0.0571,0.55548 -0.26032,1.1089 -0.54354,1.4774 -0.36229,0.47126 -0.98105,0.78667 -1.7305,0.88202 l -0.33425,0.0424 0.30299,0.0416 c 0.41169,0.0573 0.7071,0.14229 1.0287,0.29712 0.21679,0.10438 0.32617,0.18545 0.55088,0.40825 0.23834,0.23638 0.30231,0.32373 0.4271,0.58357 0.70292,1.7553 -0.0435,1.4523 0.67191,-0.029 0.1064,-0.21542 0.19218,-0.3311 0.39423,-0.53232 0.14209,-0.14165 0.34132,-0.30591 0.44286,-0.36555 0.26695,-0.15649 0.6743,-0.28724 1.0894,-0.34963 l 0.36229,-0.0541 -0.31696,-0.04 c -0.75761,-0.0953 -1.3846,-0.41649 -1.7429,-0.89325 -0.28553,-0.37968 -0.43537,-0.76587 -0.52387,-1.3499 l -0.0537,-0.35645 z" />
          <path
             id="path88605-6-3-9-8-7-0-3-56-4-4"
             d="m -303.25,-268.31 c -0.0571,0.55548 -0.26032,1.1089 -0.54354,1.4774 -0.36229,0.47126 -0.98105,0.78667 -1.7305,0.88202 l -0.33425,0.0424 0.30299,0.0416 c 0.41169,0.0573 0.7071,0.14229 1.0287,0.29712 0.21679,0.10438 0.32617,0.18545 0.55088,0.40825 0.23834,0.23638 0.30231,0.32373 0.4271,0.58357 0.70292,1.7553 -0.0435,1.4523 0.67191,-0.029 0.1064,-0.21542 0.19218,-0.3311 0.39423,-0.53232 0.14209,-0.14165 0.34132,-0.30591 0.44286,-0.36555 0.26695,-0.15649 0.6743,-0.28724 1.0894,-0.34963 l 0.36229,-0.0541 -0.31696,-0.04 c -0.75761,-0.0953 -1.3846,-0.41649 -1.7429,-0.89325 -0.28553,-0.37968 -0.43537,-0.76587 -0.52387,-1.3499 l -0.0537,-0.35645 z" />
          <path
             id="path88605-6-3-9-8-7-0-3-56-4-9"
             d="m -522.06,-224.39 c -0.0571,0.55548 -0.26032,1.1089 -0.54354,1.4774 -0.36229,0.47126 -0.98105,0.78667 -1.7305,0.88202 l -0.33425,0.0424 0.30299,0.0416 c 0.41169,0.0573 0.7071,0.14229 1.0287,0.29712 0.21679,0.10438 0.32617,0.18545 0.55088,0.40825 0.23834,0.23638 0.30231,0.32373 0.4271,0.58357 0.70292,1.7553 -0.0435,1.4523 0.67191,-0.029 0.1064,-0.21542 0.19218,-0.3311 0.39423,-0.53232 0.14209,-0.14165 0.34132,-0.30591 0.44286,-0.36555 0.26695,-0.15649 0.6743,-0.28724 1.0894,-0.34963 l 0.36229,-0.0541 -0.31696,-0.04 c -0.75761,-0.0953 -1.3846,-0.41649 -1.7429,-0.89325 -0.28553,-0.37968 -0.43537,-0.76587 -0.52387,-1.3499 l -0.0537,-0.35645 z" />
          <path
             id="path88605-6-3-9-8-7-0-3-56-4-2"
             d="m 550.03,-397.17 c -0.0571,0.55548 -0.26032,1.1089 -0.54354,1.4774 -0.36229,0.47126 -0.98105,0.78667 -1.7305,0.88202 l -0.33425,0.0424 0.30299,0.0416 c 0.41169,0.0573 0.7071,0.14229 1.0287,0.29712 0.21679,0.10438 0.32617,0.18545 0.55088,0.40825 0.23834,0.23638 0.30231,0.32373 0.4271,0.58357 0.70292,1.7553 -0.0435,1.4523 0.67191,-0.029 0.1064,-0.21542 0.19218,-0.3311 0.39423,-0.53232 0.14209,-0.14165 0.34132,-0.30591 0.44286,-0.36555 0.26695,-0.15649 0.6743,-0.28724 1.0894,-0.34963 l 0.36229,-0.0541 -0.31696,-0.04 c -0.75761,-0.0953 -1.3846,-0.41649 -1.7429,-0.89325 -0.28553,-0.37968 -0.43537,-0.76587 -0.52387,-1.3499 l -0.0537,-0.35645 z" />
          <path
             id="path88605-6-3-9-8-7-0-3-56-4-1"
             d="m 545.27,-275.46 c -0.0571,0.55548 -0.26032,1.1089 -0.54354,1.4774 -0.36229,0.47126 -0.98105,0.78667 -1.7305,0.88202 l -0.33425,0.0424 0.30299,0.0416 c 0.41169,0.0573 0.7071,0.14229 1.0287,0.29712 0.21679,0.10438 0.32617,0.18545 0.55088,0.40825 0.23834,0.23638 0.30231,0.32373 0.4271,0.58357 0.70292,1.7553 -0.0435,1.4523 0.67191,-0.029 0.1064,-0.21542 0.19218,-0.3311 0.39423,-0.53232 0.14209,-0.14165 0.34132,-0.30591 0.44286,-0.36555 0.26695,-0.15649 0.6743,-0.28724 1.0894,-0.34963 l 0.36229,-0.0541 -0.31696,-0.04 c -0.75761,-0.0953 -1.3846,-0.41649 -1.7429,-0.89325 -0.28553,-0.37968 -0.43537,-0.76587 -0.52387,-1.3499 l -0.0537,-0.35645 z" />
          <path
             id="path88605-6-3-9-8-7-0-3-56-4-0"
             d="m 710.63,-355.63 c -0.0571,0.55548 -0.26032,1.1089 -0.54354,1.4774 -0.36229,0.47126 -0.98105,0.78667 -1.7305,0.88202 l -0.33425,0.0424 0.30299,0.0416 c 0.41169,0.0573 0.7071,0.14229 1.0287,0.29712 0.21679,0.10438 0.32617,0.18545 0.55088,0.40825 0.23834,0.23638 0.30231,0.32373 0.4271,0.58357 0.70292,1.7553 -0.0435,1.4523 0.67191,-0.029 0.1064,-0.21542 0.19218,-0.3311 0.39423,-0.53232 0.14209,-0.14165 0.34132,-0.30591 0.44286,-0.36555 0.26695,-0.15649 0.6743,-0.28724 1.0894,-0.34963 l 0.36229,-0.0541 -0.31696,-0.04 c -0.75761,-0.0953 -1.3846,-0.41649 -1.7429,-0.89325 -0.28553,-0.37968 -0.43537,-0.76587 -0.52387,-1.3499 l -0.0537,-0.35645 z" />
          <path
             id="path88605-6-3-9-8-7-0-3-56-4-22"
             d="m -30.994,-460.4 c -0.0571,0.55548 -0.26032,1.1089 -0.54354,1.4774 -0.36229,0.47126 -0.98105,0.78667 -1.7305,0.88202 l -0.33425,0.0424 0.30299,0.0416 c 0.41169,0.0573 0.7071,0.14229 1.0287,0.29712 0.21679,0.10438 0.32617,0.18545 0.55088,0.40825 0.23834,0.23638 0.30231,0.32373 0.4271,0.58357 0.70292,1.7553 -0.0435,1.4523 0.67191,-0.029 0.1064,-0.21542 0.19218,-0.3311 0.39423,-0.53232 0.14209,-0.14165 0.34132,-0.30591 0.44286,-0.36555 0.26695,-0.15649 0.6743,-0.28724 1.0894,-0.34963 l 0.36229,-0.0541 -0.31696,-0.04 c -0.75761,-0.0953 -1.3846,-0.41649 -1.7429,-0.89325 -0.28553,-0.37968 -0.43537,-0.76587 -0.52387,-1.3499 l -0.0537,-0.35645 z" />
          <path
             id="path88605-6-3-9-8-7-0-3-56-4-8"
             d="m -388.45,-328.9 c -0.0571,0.55548 -0.26032,1.1089 -0.54354,1.4774 -0.36229,0.47126 -0.98105,0.78667 -1.7305,0.88202 l -0.33425,0.0424 0.30299,0.0416 c 0.41169,0.0573 0.7071,0.14229 1.0287,0.29712 0.21679,0.10438 0.32617,0.18545 0.55088,0.40825 0.23834,0.23638 0.30231,0.32373 0.4271,0.58357 0.70292,1.7553 -0.0435,1.4523 0.67191,-0.029 0.1064,-0.21542 0.19218,-0.3311 0.39423,-0.53232 0.14209,-0.14165 0.34132,-0.30591 0.44286,-0.36555 0.26695,-0.15649 0.6743,-0.28724 1.0894,-0.34963 l 0.36229,-0.0541 -0.31696,-0.04 c -0.75761,-0.0953 -1.3846,-0.41649 -1.7429,-0.89325 -0.28553,-0.37968 -0.43537,-0.76587 -0.52387,-1.3499 l -0.0537,-0.35645 z" />
          <path
             id="path88605-6-3-9-8-7-0-3-56-4-41"
             d="m -538.99,-506.44 c -0.0571,0.55548 -0.26032,1.1089 -0.54354,1.4774 -0.36229,0.47126 -0.98105,0.78667 -1.7305,0.88202 l -0.33425,0.0424 0.30299,0.0416 c 0.41169,0.0573 0.7071,0.14229 1.0287,0.29712 0.21679,0.10438 0.32617,0.18545 0.55088,0.40825 0.23834,0.23638 0.30231,0.32373 0.4271,0.58357 0.70292,1.7553 -0.0435,1.4523 0.67191,-0.029 0.1064,-0.21542 0.19218,-0.3311 0.39423,-0.53232 0.14209,-0.14165 0.34132,-0.30591 0.44286,-0.36555 0.26695,-0.15649 0.6743,-0.28724 1.0894,-0.34963 l 0.36229,-0.0541 -0.31696,-0.04 c -0.75761,-0.0953 -1.3846,-0.41649 -1.7429,-0.89325 -0.28553,-0.37968 -0.43537,-0.76587 -0.52387,-1.3499 l -0.0537,-0.35645 z" />
          <path
             id="path88605-6-3-9-8-7-0-3-56-4-7"
             d="m -383.42,-586.61 c -0.0571,0.55548 -0.26032,1.1089 -0.54354,1.4774 -0.36229,0.47126 -0.98105,0.78667 -1.7305,0.88202 l -0.33425,0.0424 0.30299,0.0416 c 0.41169,0.0573 0.7071,0.14229 1.0287,0.29712 0.21679,0.10438 0.32617,0.18545 0.55088,0.40825 0.23834,0.23638 0.30231,0.32373 0.4271,0.58357 0.70292,1.7553 -0.0435,1.4523 0.67191,-0.029 0.1064,-0.21542 0.19218,-0.3311 0.39423,-0.53232 0.14209,-0.14165 0.34132,-0.30591 0.44286,-0.36555 0.26695,-0.15649 0.6743,-0.28724 1.0894,-0.34963 l 0.36229,-0.0541 -0.31696,-0.04 c -0.75761,-0.0953 -1.3846,-0.41649 -1.7429,-0.89325 -0.28553,-0.37968 -0.43537,-0.76587 -0.52387,-1.3499 l -0.0537,-0.35645 z" />
          <path
             id="path88605-6-3-9-8-7-0-3-56-4-63"
             d="m 635.23,-494.27 c -0.0571,0.55548 -0.26032,1.1089 -0.54354,1.4774 -0.36229,0.47126 -0.98105,0.78667 -1.7305,0.88202 l -0.33425,0.0424 0.30299,0.0416 c 0.41169,0.0573 0.7071,0.14229 1.0287,0.29712 0.21679,0.10438 0.32617,0.18545 0.55088,0.40825 0.23834,0.23638 0.30231,0.32373 0.4271,0.58357 0.70292,1.7553 -0.0435,1.4523 0.67191,-0.029 0.1064,-0.21542 0.19218,-0.3311 0.39423,-0.53232 0.14209,-0.14165 0.34132,-0.30591 0.44286,-0.36555 0.26695,-0.15649 0.6743,-0.28724 1.0894,-0.34963 l 0.36229,-0.0541 -0.31696,-0.04 c -0.75761,-0.0953 -1.3846,-0.41649 -1.7429,-0.89325 -0.28553,-0.37968 -0.43537,-0.76587 -0.52387,-1.3499 l -0.0537,-0.35645 z" />
          <path
             id="path88605-6-3-9-8-7-0-3-56-4-3"
             d="m 294.97,-467.55 c -0.0571,0.55548 -0.26032,1.1089 -0.54354,1.4774 -0.36229,0.47126 -0.98105,0.78667 -1.7305,0.88202 l -0.33425,0.0424 0.30299,0.0416 c 0.41169,0.0573 0.7071,0.14229 1.0287,0.29712 0.21679,0.10438 0.32617,0.18545 0.55088,0.40825 0.23834,0.23638 0.30231,0.32373 0.4271,0.58357 0.70292,1.7553 -0.0435,1.4523 0.67191,-0.029 0.1064,-0.21542 0.19218,-0.3311 0.39423,-0.53232 0.14209,-0.14165 0.34132,-0.30591 0.44286,-0.36555 0.26695,-0.15649 0.6743,-0.28724 1.0894,-0.34963 l 0.36229,-0.0541 -0.31696,-0.04 c -0.75761,-0.0953 -1.3846,-0.41649 -1.7429,-0.89325 -0.28553,-0.37968 -0.43537,-0.76587 -0.52387,-1.3499 l -0.0537,-0.35645 z" />
          <path
             id="path88605-6-3-9-8-7-0-3-56-4-32"
             d="m 418.8,-557.5 c -0.0571,0.55548 -0.26032,1.1089 -0.54354,1.4774 -0.36229,0.47126 -0.98105,0.78667 -1.7305,0.88202 l -0.33425,0.0424 0.30299,0.0416 c 0.41169,0.0573 0.7071,0.14229 1.0287,0.29712 0.21679,0.10438 0.32617,0.18545 0.55088,0.40825 0.23834,0.23638 0.30231,0.32373 0.4271,0.58357 0.70292,1.7553 -0.0435,1.4523 0.67191,-0.029 0.1064,-0.21542 0.19218,-0.3311 0.39423,-0.53232 0.14209,-0.14165 0.34132,-0.30591 0.44286,-0.36555 0.26695,-0.15649 0.6743,-0.28724 1.0894,-0.34963 l 0.36229,-0.0541 -0.31696,-0.04 c -0.75761,-0.0953 -1.3846,-0.41649 -1.7429,-0.89325 -0.28553,-0.37968 -0.43537,-0.76587 -0.52387,-1.3499 l -0.0537,-0.35645 z" />
          <path
             id="path88605-6-3-9-8-7-0-3-96-3"
             d="m 307.32,-119.47 c -0.0571,0.55547 -0.26032,1.1089 -0.54354,1.4774 -0.36229,0.47127 -0.98105,0.78668 -1.7305,0.88203 l -0.33425,0.0424 0.30299,0.0416 c 0.41169,0.0573 0.70709,0.14228 1.0287,0.29712 0.21679,0.10438 0.32617,0.18545 0.55087,0.40825 0.23834,0.23638 0.30232,0.32372 0.42711,0.58357 0.70292,1.7553 -0.0435,1.4523 0.67191,-0.029 0.1064,-0.21543 0.19218,-0.3311 0.39422,-0.53232 0.1421,-0.14166 0.34133,-0.30591 0.44287,-0.36556 0.26695,-0.15648 0.6743,-0.28723 1.0894,-0.34962 l 0.36229,-0.0541 -0.31696,-0.04 c -0.75762,-0.0954 -1.3846,-0.41648 -1.7429,-0.89324 -0.28553,-0.37968 -0.43537,-0.76588 -0.52387,-1.3499 l -0.0537,-0.35645 z"
             style="fill:#ffcc00" />
          <path
             id="path88605-6-3-9-8-7-0-3-96-3-8"
             d="m 630.46,-136.82 c -0.0571,0.55547 -0.26032,1.1089 -0.54354,1.4774 -0.36229,0.47127 -0.98105,0.78668 -1.7305,0.88203 l -0.33425,0.0424 0.30299,0.0416 c 0.41169,0.0573 0.70709,0.14228 1.0287,0.29712 0.21679,0.10438 0.32617,0.18545 0.55087,0.40825 0.23834,0.23638 0.30232,0.32372 0.42711,0.58357 0.70292,1.7553 -0.0435,1.4523 0.67191,-0.029 0.1064,-0.21543 0.19218,-0.3311 0.39422,-0.53232 0.1421,-0.14166 0.34133,-0.30591 0.44287,-0.36556 0.26695,-0.15648 0.6743,-0.28723 1.0894,-0.34962 l 0.36229,-0.0541 -0.31696,-0.04 c -0.75762,-0.0954 -1.3846,-0.41648 -1.7429,-0.89324 -0.28553,-0.37968 -0.43537,-0.76588 -0.52387,-1.3499 l -0.0537,-0.35645 z" />
          <path
             id="path88605-6-3-9-8-7-0-3-96-3-88"
             d="m 759.32,18.759 c -0.0571,0.55547 -0.26032,1.1089 -0.54354,1.4774 -0.36229,0.47127 -0.98105,0.78668 -1.7305,0.88203 l -0.33425,0.0424 0.30299,0.0416 c 0.41169,0.0573 0.70709,0.14228 1.0287,0.29712 0.21679,0.10438 0.32617,0.18545 0.55087,0.40825 0.23834,0.23638 0.30232,0.32372 0.42711,0.58357 0.70292,1.7553 -0.0435,1.4523 0.67191,-0.029 0.1064,-0.21543 0.19218,-0.3311 0.39422,-0.53232 0.1421,-0.14166 0.34133,-0.30591 0.44287,-0.36556 0.26695,-0.15648 0.6743,-0.28723 1.0894,-0.34962 l 0.36229,-0.0541 -0.31696,-0.04 c -0.75762,-0.0954 -1.3846,-0.41648 -1.7429,-0.89324 -0.28553,-0.37968 -0.43537,-0.76588 -0.52387,-1.3499 l -0.0537,-0.35645 z" />
          <path
             id="path88605-6-3-9-8-7-0-3-96-3-5"
             d="m 761.7,-248.74 c -0.0571,0.55547 -0.26032,1.1089 -0.54354,1.4774 -0.36229,0.47127 -0.98105,0.78668 -1.7305,0.88203 l -0.33425,0.0424 0.30299,0.0416 c 0.41169,0.0573 0.70709,0.14228 1.0287,0.29712 0.21679,0.10438 0.32617,0.18545 0.55087,0.40825 0.23834,0.23638 0.30232,0.32372 0.42711,0.58357 0.70292,1.7553 -0.0435,1.4523 0.67191,-0.029 0.1064,-0.21543 0.19218,-0.3311 0.39422,-0.53232 0.1421,-0.14166 0.34133,-0.30591 0.44287,-0.36556 0.26695,-0.15648 0.6743,-0.28723 1.0894,-0.34962 l 0.36229,-0.0541 -0.31696,-0.04 c -0.75762,-0.0954 -1.3846,-0.41648 -1.7429,-0.89324 -0.28553,-0.37968 -0.43537,-0.76588 -0.52387,-1.3499 l -0.0537,-0.35645 z" />
          <path
             id="path88605-6-3-9-8-7-0-3-94-8"
             d="m 161.56,-173.88 c -0.0571,0.55548 -0.26032,1.1089 -0.54354,1.4774 -0.36229,0.47134 -0.98105,0.78667 -1.7305,0.8821 l -0.33425,0.0424 0.30299,0.0416 c 0.41169,0.0573 0.70709,0.14228 1.0287,0.29712 0.21679,0.10438 0.32617,0.18545 0.55087,0.40825 0.23834,0.2363 0.30232,0.32372 0.42711,0.58349 0.70292,1.7554 -0.0435,1.4524 0.67191,-0.029 0.1064,-0.21542 0.19218,-0.33102 0.39422,-0.53232 0.1421,-0.14158 0.34133,-0.30583 0.44287,-0.36548 0.26695,-0.15648 0.6743,-0.28723 1.0894,-0.3497 l 0.36229,-0.0541 -0.31696,-0.04 c -0.75762,-0.0953 -1.3846,-0.41641 -1.7429,-0.89317 -0.28553,-0.37968 -0.43537,-0.76587 -0.52387,-1.3499 l -0.0537,-0.35645 z" />
          <path
             id="path88605-6-3-9-8-7-0-3-6-8"
             d="m -457.01,-110.75 c -0.0571,0.55547 -0.26032,1.1089 -0.54354,1.4774 -0.36229,0.47127 -0.98105,0.78668 -1.7305,0.88203 l -0.33425,0.0424 0.30299,0.0416 c 0.41169,0.0573 0.7071,0.14228 1.0287,0.29712 0.21679,0.10438 0.32617,0.18545 0.55088,0.40825 0.23834,0.23638 0.30231,0.32372 0.4271,0.58357 0.70292,1.7553 -0.0435,1.4523 0.67191,-0.029 0.1064,-0.21542 0.19218,-0.3311 0.39423,-0.53232 0.14209,-0.14166 0.34132,-0.30591 0.44286,-0.36556 0.26695,-0.15648 0.6743,-0.28723 1.0894,-0.34962 l 0.36229,-0.0541 -0.31696,-0.04 c -0.75761,-0.0954 -1.3846,-0.41649 -1.7429,-0.89325 -0.28553,-0.37968 -0.43537,-0.76588 -0.52387,-1.3499 l -0.0537,-0.35645 z" />
          <path
             id="path88605-6-3-9-8-7-0-3-2-1"
             d="m -487.53,-38.909 c -0.0571,0.55549 -0.26032,1.1089 -0.54354,1.4774 -0.36229,0.47129 -0.98105,0.78667 -1.7305,0.88207 l -0.33425,0.0425 0.30299,0.0418 c 0.41169,0.057 0.70709,0.14225 1.0287,0.29713 0.21679,0.10434 0.32616,0.18542 0.55087,0.40825 0.23834,0.23632 0.30232,0.32369 0.42711,0.5835 0.70292,1.7554 -0.0435,1.4524 0.67191,-0.029 0.10639,-0.21542 0.19218,-0.33103 0.39422,-0.5323 0.1421,-0.14164 0.34133,-0.30588 0.44287,-0.36552 0.26695,-0.15648 0.67429,-0.28723 1.0894,-0.34967 l 0.36228,-0.0545 -0.31696,-0.04 c -0.75761,-0.0953 -1.3846,-0.41646 -1.7429,-0.89322 -0.28554,-0.37966 -0.43538,-0.76585 -0.52388,-1.3499 l -0.0537,-0.35648 z" />
          <path
             id="path88605-6-3-9-8-7-0-3-4-9"
             d="m -479.85,85.884 c -0.0571,0.55549 -0.26031,1.1089 -0.54353,1.4774 -0.36229,0.4713 -0.98105,0.78667 -1.7305,0.88208 l -0.33425,0.04254 0.30299,0.04175 c 0.41169,0.05705 0.70709,0.14225 1.0287,0.29713 0.21679,0.10434 0.32616,0.18542 0.55087,0.40826 0.23834,0.23632 0.30232,0.32369 0.42711,0.5835 0.70292,1.7554 -0.0435,1.4524 0.67191,-0.02904 0.10639,-0.21542 0.19218,-0.33103 0.39422,-0.53231 0.1421,-0.14164 0.34133,-0.30588 0.44287,-0.36552 0.26695,-0.15648 0.67429,-0.28723 1.0894,-0.34967 l 0.36229,-0.05446 -0.31696,-0.04002 c -0.75761,-0.09532 -1.3846,-0.41646 -1.7429,-0.89322 -0.28554,-0.37966 -0.43538,-0.76585 -0.52388,-1.3499 l -0.0537,-0.35648 z" />
          <path
             id="path88605-6-3-9-8-7-0-3-5-3"
             d="m -511.62,42.902 c -0.0571,0.55549 -0.26031,1.1089 -0.54354,1.4774 -0.36229,0.4713 -0.98105,0.78667 -1.7305,0.88208 l -0.33425,0.04254 0.30299,0.04175 c 0.41169,0.05705 0.7071,0.14225 1.0287,0.29713 0.21679,0.10434 0.32617,0.18542 0.55088,0.40825 0.23834,0.23632 0.30231,0.32369 0.4271,0.5835 0.70292,1.7554 -0.0435,1.4524 0.67191,-0.02904 0.1064,-0.21542 0.19218,-0.33103 0.39423,-0.53231 0.14209,-0.14164 0.34133,-0.30588 0.44286,-0.36552 0.26695,-0.15648 0.6743,-0.28723 1.0894,-0.34967 l 0.36229,-0.05446 -0.31696,-0.04002 c -0.75761,-0.09532 -1.3846,-0.41646 -1.7429,-0.89322 -0.28554,-0.37966 -0.43538,-0.76585 -0.52388,-1.3499 l -0.0537,-0.35648 z" />
          <path
             id="path88605-6-3-9-8-7-0-3-7-0"
             d="m -585.54,29.197 c -0.0571,0.55549 -0.26031,1.1089 -0.54354,1.4774 -0.36229,0.4713 -0.98104,0.78667 -1.7305,0.88208 l -0.33425,0.04254 0.30299,0.04175 c 0.4117,0.05705 0.7071,0.14225 1.0287,0.29713 0.21679,0.10434 0.32617,0.18542 0.55088,0.40825 0.23834,0.23632 0.30231,0.32369 0.4271,0.5835 0.70292,1.7554 -0.0435,1.4524 0.67192,-0.02904 0.10639,-0.21542 0.19217,-0.33103 0.39422,-0.53231 0.14209,-0.14164 0.34133,-0.30588 0.44286,-0.36552 0.26696,-0.15648 0.6743,-0.28723 1.0894,-0.34967 l 0.36229,-0.05447 -0.31696,-0.04002 c -0.75761,-0.09532 -1.3846,-0.41646 -1.7429,-0.89322 -0.28554,-0.37966 -0.43538,-0.76585 -0.52388,-1.3499 l -0.0537,-0.35648 z" />
          <path
             id="path88605-6-3-9-8-7-0-17-3-7"
             d="m -64.563,-32.888 c -0.05705,0.55549 -0.26032,1.1089 -0.54354,1.4774 -0.36229,0.47129 -0.98105,0.78667 -1.7305,0.88207 l -0.33425,0.0425 0.30299,0.0417 c 0.41169,0.0571 0.70709,0.14225 1.0287,0.29713 0.21679,0.10434 0.32617,0.18542 0.55087,0.40825 0.23834,0.23632 0.30232,0.32369 0.42711,0.5835 0.70292,1.7554 -0.04348,1.4524 0.67191,-0.029 0.10639,-0.21543 0.19218,-0.33104 0.39422,-0.53231 0.14209,-0.14164 0.34133,-0.30588 0.44286,-0.36552 0.26695,-0.15647 0.6743,-0.28723 1.0894,-0.34967 l 0.36229,-0.0545 -0.31696,-0.04 c -0.75761,-0.0953 -1.3846,-0.41647 -1.7429,-0.89323 -0.28554,-0.37965 -0.43538,-0.76585 -0.52388,-1.3499 l -0.05368,-0.35648 z"
             style="fill:#ffcc00" />
          <path
             id="path88605-6-3-9-8-7-0-17-2-0"
             d="m -121.66,-75.869 c -0.0571,0.55548 -0.26031,1.1089 -0.54353,1.4774 -0.36229,0.47134 -0.98105,0.78667 -1.7305,0.8821 l -0.33425,0.0424 0.30299,0.0416 c 0.41169,0.0573 0.70709,0.14229 1.0287,0.29712 0.21679,0.10438 0.32616,0.18545 0.55087,0.40825 0.23834,0.23638 0.30232,0.32373 0.42711,0.58349 0.70292,1.7554 -0.0435,1.4524 0.67191,-0.029 0.10639,-0.21542 0.19218,-0.33102 0.39422,-0.53224 0.1421,-0.14165 0.34133,-0.30591 0.44287,-0.36555 0.26695,-0.15649 0.67429,-0.28724 1.0894,-0.34963 l 0.36229,-0.0541 -0.31696,-0.04 c -0.75761,-0.0953 -1.3846,-0.41649 -1.7429,-0.89325 -0.28554,-0.37968 -0.43538,-0.76587 -0.52388,-1.3499 l -0.0537,-0.35645 z" />
          <path
             id="path88605-6-3-9-8-7-0-17-1-8"
             d="m -252.27,-65.487 c -0.0571,0.55547 -0.26031,1.1089 -0.54353,1.4774 -0.36229,0.47135 -0.98105,0.78667 -1.7305,0.8821 l -0.33425,0.0424 0.303,0.0416 c 0.41169,0.0573 0.70709,0.1422 1.0287,0.29712 0.21679,0.10429 0.32616,0.18544 0.55087,0.40824 0.23834,0.2363 0.30232,0.32373 0.42711,0.58349 0.70291,1.7553 -0.0435,1.4524 0.67191,-0.029 0.10639,-0.21543 0.19218,-0.33103 0.39422,-0.53233 0.14209,-0.14157 0.34133,-0.30583 0.44286,-0.36547 0.26696,-0.15649 0.6743,-0.28723 1.0894,-0.3497 l 0.36229,-0.0542 -0.31696,-0.04 c -0.75761,-0.0953 -1.3846,-0.41641 -1.7429,-0.89317 -0.28554,-0.37968 -0.43538,-0.76587 -0.52388,-1.3499 l -0.0537,-0.35653 z" />
          <path
             id="path88605-6-3-9-8-7-0-17-9-4"
             d="m -280.1,26.498 c -0.057,0.55549 -0.26031,1.1089 -0.54353,1.4774 -0.36229,0.4713 -0.98105,0.78667 -1.7305,0.88208 l -0.33425,0.04254 0.303,0.04175 c 0.41169,0.05705 0.70709,0.14225 1.0287,0.29713 0.21679,0.10434 0.32616,0.18542 0.55087,0.40826 0.23834,0.23632 0.30232,0.32369 0.4271,0.5835 0.70292,1.7554 -0.0435,1.4524 0.67192,-0.02904 0.10639,-0.21542 0.19218,-0.33103 0.39422,-0.53231 0.14209,-0.14164 0.34133,-0.30588 0.44286,-0.36552 0.26696,-0.15648 0.6743,-0.28723 1.0894,-0.34967 l 0.36229,-0.05446 -0.31696,-0.04002 c -0.75761,-0.09532 -1.3846,-0.41646 -1.7429,-0.89322 -0.28554,-0.37966 -0.43538,-0.76585 -0.52388,-1.3499 l -0.0537,-0.35648 z" />
        </g>
        <path
           id="path88605-6-6-8-78-8"
           d="m -415.58,24.168 c -0.0459,0.44697 -0.20947,0.89226 -0.43736,1.1888 -0.29151,0.37923 -0.7894,0.63299 -1.3924,0.70977 l -0.26895,0.0343 0.2438,0.03359 c 0.33127,0.04591 0.56896,0.11446 0.82778,0.23908 0.17444,0.08396 0.26245,0.1492 0.44325,0.3285 0.19179,0.19015 0.24326,0.26045 0.34367,0.46951 0.56561,1.4124 -0.0349,1.1687 0.54066,-0.02339 0.0856,-0.17334 0.15463,-0.26636 0.31721,-0.42831 0.11433,-0.11398 0.27464,-0.24613 0.35635,-0.29412 0.2148,-0.12591 0.54257,-0.23113 0.87658,-0.28136 l 0.2915,-0.04387 -0.25504,-0.03225 c -0.6096,-0.07667 -1.1141,-0.3351 -1.4024,-0.71873 -0.22975,-0.30549 -0.35032,-0.61624 -0.42153,-1.0862 l -0.0432,-0.28684 z"
           fill-opacity="0.90009"
           stroke-width="0.025878" />
        <g
           fill-opacity="0.31594"
           stroke-width="0.03216"
           id="g9"
           style="fill:#ffd42a">
          <path
             id="path88605-6-3-9-8-7-0-90-3"
             d="m 6.2432,71.764 c -0.05705,0.55549 -0.26031,1.1089 -0.54354,1.4774 -0.36229,0.4713 -0.98105,0.78667 -1.7305,0.88208 l -0.33425,0.04254 0.30299,0.04175 c 0.41169,0.05705 0.70709,0.14225 1.0287,0.29713 0.21679,0.10434 0.32617,0.18542 0.55088,0.40826 0.23834,0.23632 0.30232,0.32369 0.4271,0.5835 0.70292,1.7554 -0.04348,1.4524 0.67191,-0.02904 0.10639,-0.21542 0.19218,-0.33103 0.39422,-0.53231 0.14209,-0.14164 0.34133,-0.30588 0.44286,-0.36552 0.26695,-0.15648 0.6743,-0.28723 1.0894,-0.34967 L 8.90526,74.16566 8.5883,74.12564 C 7.83069,74.030312 7.2037,73.70917 6.8454,73.23241 6.55986,72.85275 6.41002,72.46656 6.32152,71.88251 L 6.26784,71.52603 Z"
             style="fill:#ffd42a" />
          <path
             id="path88605-6-3-9-8-7-0-17-5"
             d="m -133.71,36.257 c -0.0571,0.55549 -0.26032,1.1089 -0.54354,1.4774 -0.36229,0.4713 -0.98105,0.78667 -1.7305,0.88208 l -0.33425,0.04254 0.30299,0.04175 c 0.41169,0.05705 0.70709,0.14225 1.0287,0.29713 0.21679,0.10434 0.32616,0.18542 0.55087,0.40825 0.23834,0.23632 0.30232,0.32369 0.42711,0.5835 0.70292,1.7554 -0.0435,1.4524 0.67191,-0.02904 0.10639,-0.21542 0.19218,-0.33103 0.39422,-0.53231 0.1421,-0.14164 0.34133,-0.30588 0.44287,-0.36552 0.26695,-0.15648 0.6743,-0.28723 1.0894,-0.34967 l 0.36229,-0.05446 -0.31697,-0.04002 c -0.75761,-0.09532 -1.3846,-0.41646 -1.7429,-0.89322 -0.28554,-0.37966 -0.43538,-0.76585 -0.52388,-1.3499 l -0.0537,-0.35648 z"
             style="fill:#ffd42a" />
          <path
             id="path88605-6-3-9-8-7-0-7-0"
             d="m 27.63,-29.565 c -0.05705,0.55549 -0.26032,1.1089 -0.54354,1.4774 -0.36229,0.4713 -0.98105,0.78667 -1.7305,0.88208 l -0.33425,0.0425 0.30299,0.0418 c 0.41169,0.057 0.70709,0.14225 1.0287,0.29713 0.21679,0.10433 0.32617,0.18542 0.55087,0.40825 0.23834,0.23632 0.30232,0.32369 0.42711,0.5835 0.70292,1.7554 -0.04348,1.4524 0.67191,-0.029 0.10639,-0.21542 0.19218,-0.33103 0.39422,-0.5323 0.14209,-0.14164 0.34133,-0.30588 0.44286,-0.36552 0.26695,-0.15648 0.6743,-0.28723 1.0894,-0.34967 l 0.36229,-0.0545 -0.31696,-0.04 c -0.75761,-0.0953 -1.3846,-0.41646 -1.7429,-0.89322 -0.28554,-0.37966 -0.43538,-0.76585 -0.52388,-1.3499 l -0.05368,-0.35648 z"
             style="fill:#ffd42a" />
          <path
             id="path88605-6-3-9-8-7-0-1-7"
             d="m 46.526,-36.002 c -0.05705,0.55549 -0.26031,1.1089 -0.54354,1.4774 -0.36229,0.47129 -0.98105,0.78667 -1.7305,0.88208 l -0.33425,0.0425 0.30299,0.0417 c 0.41169,0.0571 0.7071,0.14225 1.0287,0.29713 0.21679,0.10434 0.32617,0.18542 0.55088,0.40826 0.23834,0.23631 0.30232,0.32368 0.4271,0.58349 0.70292,1.7554 -0.04348,1.4524 0.67191,-0.029 0.10639,-0.21543 0.19218,-0.33104 0.39422,-0.53231 0.14209,-0.14164 0.34133,-0.30588 0.44286,-0.36551 0.26695,-0.15648 0.6743,-0.28724 1.0894,-0.34968 l 0.36229,-0.0545 -0.31696,-0.04 c -0.75761,-0.0953 -1.3846,-0.41647 -1.7429,-0.89323 -0.28554,-0.37965 -0.43538,-0.76585 -0.52388,-1.3499 l -0.05368,-0.35648 z"
             style="fill:#ffd42a" />
          <path
             id="path88605-6-3-9-8-7-0-92-4"
             d="m 190.84,-31.642 c -0.0571,0.55549 -0.26031,1.1089 -0.54353,1.4774 -0.36229,0.47129 -0.98105,0.78667 -1.7305,0.88208 l -0.33424,0.0425 0.30299,0.0418 c 0.41169,0.0571 0.70709,0.14225 1.0287,0.29713 0.21679,0.10434 0.32616,0.18542 0.55087,0.40826 0.23834,0.23631 0.30232,0.32368 0.42711,0.58349 0.70292,1.7554 -0.0435,1.4524 0.67191,-0.029 0.10639,-0.21543 0.19218,-0.33103 0.39422,-0.53231 0.1421,-0.14164 0.34133,-0.30588 0.44287,-0.36551 0.26695,-0.15648 0.67429,-0.28724 1.0894,-0.34967 l 0.36229,-0.0545 -0.31696,-0.04 c -0.75761,-0.0953 -1.3846,-0.41647 -1.7429,-0.89323 -0.28554,-0.37965 -0.43538,-0.76585 -0.52388,-1.3499 l -0.0537,-0.35648 z"
             style="fill:#ffd42a" />
          <path
             id="path88605-6-3-9-8-7-0-9-1"
             d="m 114.63,24.422 c -0.0571,0.55549 -0.26031,1.1089 -0.54354,1.4774 -0.36229,0.4713 -0.98105,0.78667 -1.7305,0.88208 l -0.33425,0.04254 0.30299,0.04175 c 0.4117,0.05705 0.7071,0.14225 1.0287,0.29713 0.21679,0.10434 0.32617,0.18542 0.55088,0.40826 0.23834,0.23632 0.30231,0.32369 0.4271,0.5835 0.70292,1.7554 -0.0435,1.4524 0.67191,-0.02904 0.1064,-0.21542 0.19218,-0.33103 0.39423,-0.53231 0.14209,-0.14164 0.34133,-0.30588 0.44286,-0.36552 0.26695,-0.15648 0.67429,-0.28723 1.0894,-0.34967 l 0.36229,-0.05446 -0.31696,-0.04002 c -0.75761,-0.09532 -1.3846,-0.41646 -1.7429,-0.89322 -0.28554,-0.37966 -0.43538,-0.76585 -0.52388,-1.3499 l -0.0537,-0.35648 z"
             style="fill:#ffd42a" />
          <path
             id="path88605-6-3-9-8-7-2-8"
             d="m 552.34,51 c -0.0571,0.55549 -0.26032,1.1089 -0.54354,1.4774 -0.36229,0.4713 -0.98105,0.78667 -1.7305,0.88208 l -0.33425,0.04253 0.30299,0.04175 c 0.41169,0.05705 0.70709,0.14225 1.0287,0.29713 0.21679,0.10434 0.32617,0.18542 0.55087,0.40826 0.23834,0.23632 0.30232,0.32368 0.42711,0.5835 0.70292,1.7554 -0.0435,1.4524 0.67191,-0.02904 0.1064,-0.21542 0.19218,-0.33103 0.39422,-0.53231 0.1421,-0.14164 0.34133,-0.30588 0.44287,-0.36552 0.26695,-0.15648 0.6743,-0.28723 1.0894,-0.34967 l 0.36229,-0.05447 -0.31696,-0.04002 c -0.75762,-0.09532 -1.3846,-0.41646 -1.7429,-0.89322 -0.28553,-0.37966 -0.43537,-0.76585 -0.52387,-1.3499 l -0.0537,-0.35648 z"
             style="fill:#ffd42a" />
          <path
             id="path88605-6-3-9-8-7-0-32"
             d="m 204.54,49.962 c -0.0571,0.55549 -0.26032,1.1089 -0.54354,1.4774 -0.36229,0.4713 -0.98105,0.78667 -1.7305,0.88208 l -0.33425,0.04254 0.30299,0.04175 c 0.41169,0.05705 0.7071,0.14225 1.0287,0.29713 0.21679,0.10434 0.32617,0.18542 0.55088,0.40825 0.23834,0.23632 0.30231,0.32369 0.4271,0.5835 0.70292,1.7554 -0.0435,1.4524 0.67191,-0.02904 0.1064,-0.21542 0.19218,-0.33103 0.39423,-0.53231 0.14209,-0.14164 0.34132,-0.30588 0.44286,-0.36552 0.26695,-0.15648 0.6743,-0.28723 1.0894,-0.34967 l 0.36229,-0.05446 -0.31696,-0.04002 c -0.75761,-0.09532 -1.3846,-0.41646 -1.7429,-0.89322 -0.28553,-0.37966 -0.43537,-0.76585 -0.52387,-1.3499 l -0.0537,-0.35648 z"
             style="fill:#ffd42a" />
          <path
             id="path88605-6-3-9-8-7-1-9"
             d="m 299.85,3.6574 c -0.0571,0.55549 -0.26031,1.1089 -0.54354,1.4774 -0.36229,0.4713 -0.98104,0.78667 -1.7305,0.88208 l -0.33425,0.04254 0.30299,0.04175 c 0.4117,0.05705 0.7071,0.14225 1.0287,0.29713 0.21679,0.10434 0.32617,0.18542 0.55088,0.40825 0.23834,0.23632 0.30231,0.32369 0.4271,0.5835 0.70292,1.7554 -0.0435,1.4524 0.67192,-0.02904 0.10639,-0.21542 0.19217,-0.33103 0.39422,-0.53231 0.14209,-0.14164 0.34133,-0.30588 0.44286,-0.36551 0.26696,-0.15648 0.6743,-0.28723 1.0894,-0.34967 l 0.36229,-0.05446 -0.31696,-0.04002 c -0.75761,-0.09532 -1.3846,-0.41646 -1.7429,-0.89322 -0.28554,-0.37966 -0.43538,-0.76585 -0.52388,-1.3499 l -0.0537,-0.35648 z"
             style="fill:#ffd42a" />
          <path
             id="path88605-6-3-9-8-7-7-5"
             d="m 473.02,25.46 c -0.0571,0.55549 -0.26031,1.1089 -0.54353,1.4774 -0.36229,0.4713 -0.98105,0.78667 -1.7305,0.88208 l -0.33425,0.04254 0.30299,0.04175 c 0.41169,0.05705 0.70709,0.14225 1.0287,0.29713 0.21679,0.10434 0.32616,0.18542 0.55087,0.40826 0.23834,0.23632 0.30232,0.32369 0.42711,0.5835 0.70292,1.7554 -0.0435,1.4524 0.67191,-0.02904 0.10639,-0.21542 0.19218,-0.33103 0.39422,-0.53231 0.1421,-0.14164 0.34133,-0.30588 0.44287,-0.36552 0.26695,-0.15648 0.67429,-0.28723 1.0894,-0.34967 l 0.36229,-0.05446 -0.31696,-0.04002 c -0.75761,-0.09532 -1.3846,-0.41646 -1.7429,-0.89322 -0.28554,-0.37966 -0.43538,-0.76585 -0.52388,-1.3499 l -0.0537,-0.35648 z"
             style="fill:#ffd42a" />
          <path
             id="path88605-6-3-9-8-7-77"
             d="m 275.94,87.267 c -0.0571,0.55549 -0.26032,1.1089 -0.54354,1.4774 -0.36229,0.4713 -0.98105,0.78667 -1.7305,0.88208 l -0.33425,0.04254 0.30299,0.04175 c 0.41169,0.05705 0.70709,0.14225 1.0287,0.29713 0.21679,0.10434 0.32617,0.18542 0.55087,0.40826 0.23834,0.23632 0.30232,0.32369 0.42711,0.5835 0.70292,1.7554 -0.0435,1.4524 0.67191,-0.02904 0.1064,-0.21542 0.19218,-0.33103 0.39422,-0.53231 0.1421,-0.14164 0.34133,-0.30588 0.44287,-0.36552 0.26695,-0.15648 0.6743,-0.28723 1.0894,-0.34967 l 0.36229,-0.05446 -0.31696,-0.04002 c -0.75762,-0.09532 -1.3846,-0.41646 -1.7429,-0.89322 -0.28553,-0.37966 -0.43537,-0.76585 -0.52387,-1.3499 l -0.0537,-0.35648 z"
             style="fill:#ffd42a" />
        </g>
        <g
           fill-opacity="0.77615"
           stroke-width="0.03216"
           id="g10">
          <path
             id="path88605-6-3-9-37-5-9"
             d="m 449.47,80.752 c -0.0571,0.55549 -0.26032,1.1089 -0.54355,1.4774 -0.36228,0.4713 -0.98104,0.78667 -1.7305,0.88209 l -0.33426,0.04254 0.30299,0.04175 c 0.4117,0.05705 0.70711,0.14226 1.0287,0.29713 0.2168,0.10434 0.32617,0.18542 0.55089,0.40826 0.23834,0.23632 0.30231,0.32369 0.42709,0.5835 0.70293,1.7554 -0.0435,1.4524 0.67192,-0.02904 0.10639,-0.21542 0.19218,-0.33103 0.39423,-0.53231 0.14208,-0.14164 0.34133,-0.30587 0.44285,-0.36552 0.26696,-0.15647 0.67431,-0.28723 1.0894,-0.34966 l 0.36229,-0.05454 -0.31696,-0.04002 c -0.75761,-0.09531 -1.3846,-0.41646 -1.7429,-0.89322 -0.28554,-0.37966 -0.43538,-0.76585 -0.52388,-1.3499 l -0.0537,-0.35648 z" />
          <path
             id="path88605-6-3-9-37-5-9-8"
             d="m -45.546,-365.42 c -0.0571,0.55549 -0.26032,1.1089 -0.54355,1.4774 -0.36228,0.47129 -0.98104,0.78667 -1.7305,0.88208 l -0.33426,0.0425 0.30299,0.0417 c 0.4117,0.0571 0.70711,0.14226 1.0287,0.29713 0.2168,0.10434 0.32617,0.18542 0.55089,0.40826 0.23834,0.23631 0.30231,0.32368 0.42709,0.5835 0.70293,1.7554 -0.0435,1.4524 0.67192,-0.029 0.10639,-0.21542 0.19218,-0.33103 0.39423,-0.5323 0.14208,-0.14164 0.34133,-0.30588 0.44285,-0.36552 0.26696,-0.15647 0.67431,-0.28723 1.0894,-0.34966 l 0.36229,-0.0545 -0.31696,-0.04 c -0.75761,-0.0953 -1.3846,-0.41647 -1.7429,-0.89322 -0.28554,-0.37966 -0.43538,-0.76586 -0.52388,-1.3499 l -0.0537,-0.35648 z" />
          <path
             id="path88605-6-3-9-37-5-9-6"
             d="m -388.45,-314.35 c -0.0571,0.55549 -0.26032,1.1089 -0.54355,1.4774 -0.36228,0.47129 -0.98104,0.78667 -1.7305,0.88208 l -0.33426,0.0425 0.30299,0.0418 c 0.4117,0.0571 0.70711,0.14226 1.0287,0.29713 0.2168,0.10434 0.32617,0.18542 0.55089,0.40826 0.23834,0.23631 0.30231,0.32368 0.42709,0.5835 0.70293,1.7554 -0.0435,1.4524 0.67192,-0.029 0.10639,-0.21542 0.19218,-0.33103 0.39423,-0.53231 0.14208,-0.14163 0.34133,-0.30587 0.44285,-0.36551 0.26696,-0.15647 0.67431,-0.28723 1.0894,-0.34966 l 0.36229,-0.0545 -0.31696,-0.04 c -0.75761,-0.0953 -1.3846,-0.41647 -1.7429,-0.89323 -0.28554,-0.37965 -0.43538,-0.76585 -0.52388,-1.3499 l -0.0537,-0.35648 z" />
          <path
             id="path88605-6-3-9-37-5-9-60"
             d="m -249.8,-205.08 c -0.0571,0.55549 -0.26032,1.1089 -0.54355,1.4774 -0.36228,0.47129 -0.98104,0.78667 -1.7305,0.88208 l -0.33426,0.0425 0.30299,0.0418 c 0.4117,0.057 0.70711,0.14226 1.0287,0.29713 0.2168,0.10434 0.32617,0.18542 0.55089,0.40826 0.23834,0.23631 0.30231,0.32368 0.42709,0.5835 0.70293,1.7554 -0.0435,1.4524 0.67192,-0.029 0.10639,-0.21542 0.19218,-0.33103 0.39423,-0.5323 0.14208,-0.14164 0.34133,-0.30588 0.44285,-0.36552 0.26696,-0.15647 0.67431,-0.28723 1.0894,-0.34966 l 0.36229,-0.0545 -0.31696,-0.04 c -0.75761,-0.0953 -1.3846,-0.41647 -1.7429,-0.89323 -0.28554,-0.37965 -0.43538,-0.76585 -0.52388,-1.3499 l -0.0537,-0.35648 z" />
          <path
             id="path88605-6-3-9-37-5-9-2"
             d="m 482.03,-414.1 c -0.0571,0.55549 -0.26032,1.1089 -0.54355,1.4774 -0.36228,0.47129 -0.98104,0.78667 -1.7305,0.88208 l -0.33426,0.0425 0.30299,0.0417 c 0.4117,0.0571 0.70711,0.14226 1.0287,0.29713 0.2168,0.10434 0.32617,0.18542 0.55089,0.40826 0.23834,0.23631 0.30231,0.32368 0.42709,0.5835 0.70293,1.7554 -0.0435,1.4524 0.67192,-0.029 0.10639,-0.21542 0.19218,-0.33103 0.39423,-0.5323 0.14208,-0.14164 0.34133,-0.30588 0.44285,-0.36552 0.26696,-0.15647 0.67431,-0.28723 1.0894,-0.34966 l 0.36229,-0.0545 -0.31696,-0.04 c -0.75761,-0.0953 -1.3846,-0.41647 -1.7429,-0.89322 -0.28554,-0.37966 -0.43538,-0.76586 -0.52388,-1.3499 l -0.0537,-0.35648 z" />
          <path
             id="path88605-6-3-9-37-5-9-5"
             d="m 786.04,6.588 c -0.0571,0.55549 -0.26032,1.1089 -0.54355,1.4774 -0.36228,0.4713 -0.98104,0.78667 -1.7305,0.88209 l -0.33426,0.04254 0.30299,0.04175 c 0.4117,0.05705 0.70711,0.14226 1.0287,0.29713 0.2168,0.10434 0.32617,0.18542 0.55089,0.40826 0.23834,0.23632 0.30231,0.32369 0.42709,0.5835 0.70293,1.7554 -0.0435,1.4524 0.67192,-0.02904 0.10639,-0.21542 0.19218,-0.33103 0.39423,-0.53231 0.14208,-0.14164 0.34133,-0.30587 0.44285,-0.36552 0.26696,-0.15647 0.67431,-0.28723 1.0894,-0.34966 l 0.36229,-0.05454 -0.31696,-0.04002 c -0.75761,-0.09531 -1.3846,-0.41646 -1.7429,-0.89322 -0.28554,-0.37966 -0.43538,-0.76585 -0.52388,-1.3499 l -0.0537,-0.35648 z" />
        </g>
        <path
           id="path88605-6-6-3-9-7-6"
           d="m -68.274,78.571 c -0.0841,0.8185 -0.38357,1.634 -0.8009,2.1769 -0.53383,0.69445 -1.4456,1.1591 -2.5498,1.2997 l -0.49252,0.06278 0.44645,0.06153 c 0.60662,0.08407 1.0419,0.20961 1.5158,0.43781 0.31945,0.15375 0.4806,0.27322 0.81171,0.60156 0.35118,0.3482 0.44544,0.47694 0.62932,0.85978 1.0357,2.5865 -0.064,2.14 0.99006,-0.04277 0.15677,-0.31742 0.28316,-0.48776 0.58088,-0.78433 0.20937,-0.20871 0.50294,-0.4507 0.65255,-0.53859 0.39336,-0.23056 0.99356,-0.42324 1.6052,-0.51522 l 0.53382,-0.08028 -0.46704,-0.05894 c -1.1163,-0.14045 -2.0401,-0.61366 -2.5681,-1.3162 -0.42073,-0.55941 -0.64152,-1.1285 -0.77192,-1.989 l -0.0791,-0.52526 z"
           fill-opacity="0.90009"
           opacity="0.7"
           stroke-width="0.047388"
           style="fill:#ffcc00;fill-opacity:0.90008998" />
        <path
           id="path88605-6-6-3-99"
           d="m 200.74,361.36 c 0.0771,0.75046 0.35169,1.4981 0.73433,1.996 0.48945,0.63673 1.3254,1.0628 2.3379,1.1917 l 0.45158,0.0575 -0.40934,0.0564 c -0.5562,0.0771 -0.9553,0.19219 -1.3898,0.40142 -0.29289,0.14097 -0.44065,0.25051 -0.74423,0.55156 -0.322,0.31926 -0.40843,0.4373 -0.57702,0.78831 -0.94965,2.3715 0.0587,1.9622 -0.90776,-0.0392 -0.14374,-0.29104 -0.25963,-0.44722 -0.5326,-0.71914 -0.19196,-0.19136 -0.46113,-0.41324 -0.59831,-0.49383 -0.36066,-0.21139 -0.91098,-0.38805 -1.4718,-0.47239 l -0.48945,-0.0736 0.42822,-0.0541 c 1.0235,-0.12876 1.8705,-0.56264 2.3547,-1.2068 0.38576,-0.51291 0.5882,-1.0347 0.70776,-1.8237 l 0.0725,-0.4816 z"
           fill-opacity="0.90009"
           opacity="0.79465"
           stroke-width="0.043449" />
        <g
           stroke-width="0.04098"
           id="g11">
          <path
             id="path88605-6-3-9-36-4"
             d="m -120.49,405.1 c 0.0727,0.70782 0.33171,1.413 0.6926,1.8825 0.46163,0.60054 1.2501,1.0024 2.205,1.124 l 0.42592,0.0542 -0.38608,0.0532 c -0.52459,0.0727 -0.90101,0.18126 -1.3108,0.3786 -0.27625,0.13296 -0.41561,0.23628 -0.70195,0.52022 -0.3037,0.30111 -0.38521,0.41244 -0.54422,0.74351 -0.89569,2.2367 0.0554,1.8507 -0.85618,-0.037 -0.13556,-0.2745 -0.24487,-0.4218 -0.50233,-0.67827 -0.18105,-0.18049 -0.43493,-0.38976 -0.5643,-0.46576 -0.34017,-0.19938 -0.85922,-0.366 -1.3881,-0.44555 l -0.46164,-0.0694 0.40388,-0.051 c 0.96537,-0.12145 1.7642,-0.53067 2.2209,-1.1382 0.36384,-0.48377 0.55477,-0.97587 0.66754,-1.7201 l 0.0684,-0.45423 z"
             fill-opacity="0.77615" />
          <path
             id="path88605-6-3-9-1-3"
             d="m -394.24,392.67 c 0.0727,0.70781 0.3317,1.413 0.6926,1.8825 0.46163,0.60054 1.2501,1.0024 2.205,1.124 l 0.42591,0.0542 -0.38608,0.0532 c -0.52458,0.0727 -0.901,0.18126 -1.3108,0.3786 -0.27624,0.13296 -0.41561,0.23627 -0.70194,0.52022 -0.3037,0.30111 -0.38521,0.41244 -0.54422,0.74351 -0.89569,2.2367 0.0554,1.8507 -0.85618,-0.037 -0.13557,-0.2745 -0.24488,-0.4218 -0.50233,-0.67827 -0.18105,-0.18049 -0.43493,-0.38976 -0.5643,-0.46576 -0.34017,-0.19938 -0.85922,-0.366 -1.3881,-0.44555 l -0.46163,-0.0694 0.40388,-0.051 c 0.96537,-0.12145 1.7642,-0.53067 2.2209,-1.1382 0.36384,-0.48377 0.55477,-0.97587 0.66754,-1.7201 l 0.0684,-0.45423 z"
             fill-opacity="0.77615" />
          <path
             id="path88605-6-3-9-29-4"
             d="m -512.96,471.07 c 0.0727,0.70782 0.3317,1.413 0.69259,1.8825 0.46164,0.60054 1.2501,1.0024 2.205,1.124 l 0.42591,0.0542 -0.38608,0.0532 c -0.52459,0.0727 -0.901,0.18126 -1.3108,0.3786 -0.27624,0.13296 -0.41561,0.23627 -0.70194,0.52022 -0.3037,0.30111 -0.38522,0.41244 -0.54423,0.74351 -0.89568,2.2367 0.0554,1.8507 -0.85617,-0.037 -0.13557,-0.2745 -0.24488,-0.4218 -0.50233,-0.67827 -0.18106,-0.18049 -0.43493,-0.38976 -0.56431,-0.46576 -0.34016,-0.19938 -0.85921,-0.366 -1.3881,-0.44555 l -0.46163,-0.0695 0.40388,-0.051 c 0.96537,-0.12145 1.7642,-0.53067 2.2209,-1.1382 0.36384,-0.48377 0.55477,-0.97587 0.66754,-1.7201 l 0.0684,-0.45423 z"
             fill-opacity="0.3688" />
          <path
             id="path88605-6-3-9-31-3"
             d="m 308.82,421.35 c 0.0727,0.70782 0.3317,1.413 0.69259,1.8825 0.46164,0.60054 1.2501,1.0024 2.205,1.124 l 0.42591,0.0542 -0.38608,0.0532 c -0.52459,0.0727 -0.901,0.18126 -1.3108,0.37861 -0.27624,0.13295 -0.41561,0.23627 -0.70194,0.52021 -0.3037,0.30111 -0.38522,0.41245 -0.54423,0.74351 -0.89568,2.2367 0.0554,1.8507 -0.85617,-0.037 -0.13557,-0.27451 -0.24488,-0.42181 -0.50233,-0.67828 -0.18106,-0.18048 -0.43493,-0.38976 -0.56431,-0.46576 -0.34016,-0.19938 -0.85921,-0.366 -1.3881,-0.44555 l -0.46164,-0.0694 0.40388,-0.051 c 0.96537,-0.12146 1.7642,-0.53068 2.2209,-1.1382 0.36384,-0.48377 0.55477,-0.97587 0.66754,-1.7201 l 0.0684,-0.45424 z"
             fill-opacity="0.42033" />
          <path
             id="path88605-6-3-9-94-2"
             d="m 262.03,422.86 c 0.0727,0.70782 0.33171,1.413 0.6926,1.8825 0.46164,0.60054 1.2501,1.0024 2.205,1.124 l 0.42592,0.0542 -0.38608,0.0532 c -0.52459,0.0727 -0.901,0.18126 -1.3108,0.3786 -0.27624,0.13296 -0.41561,0.23627 -0.70195,0.52022 -0.3037,0.30111 -0.38521,0.41244 -0.54422,0.74351 -0.89569,2.2367 0.0554,1.8507 -0.85618,-0.037 -0.13556,-0.2745 -0.24487,-0.4218 -0.50232,-0.67827 -0.18106,-0.18049 -0.43493,-0.38976 -0.56431,-0.46576 -0.34017,-0.19938 -0.85922,-0.366 -1.3881,-0.44555 l -0.46164,-0.0695 0.40388,-0.051 c 0.96537,-0.12145 1.7642,-0.53067 2.2209,-1.1382 0.36384,-0.48377 0.55477,-0.97587 0.66754,-1.7201 l 0.0684,-0.45423 z"
             fill-opacity="0.77615"
             opacity="0.79465" />
          <path
             id="path88605-6-3-9-78-1"
             d="m -48.897,392.67 c 0.0727,0.70783 0.33171,1.413 0.6926,1.8826 0.46164,0.60054 1.2501,1.0024 2.205,1.124 l 0.42592,0.0542 -0.38608,0.0532 c -0.52459,0.0727 -0.901,0.18126 -1.3108,0.37861 -0.27624,0.13295 -0.41561,0.23627 -0.70194,0.52021 -0.3037,0.30111 -0.38522,0.41244 -0.54423,0.74351 -0.89569,2.2367 0.0554,1.8507 -0.85618,-0.037 -0.13556,-0.27451 -0.24487,-0.42181 -0.50232,-0.67828 -0.18106,-0.18049 -0.43493,-0.38976 -0.56431,-0.46576 -0.34016,-0.19938 -0.85921,-0.366 -1.3881,-0.44555 l -0.46164,-0.0694 0.40388,-0.051 c 0.96537,-0.12145 1.7642,-0.53067 2.2209,-1.1382 0.36384,-0.48377 0.55477,-0.97587 0.66754,-1.7201 l 0.0684,-0.45423 z"
             fill-opacity="0.43733" />
        </g>
        <path
           id="path88605-6-3-9-9-4-2"
           d="m 708.25,-80.989 c -0.0571,0.55549 -0.26032,1.1089 -0.54355,1.4774 -0.36228,0.4713 -0.98104,0.78666 -1.7305,0.88208 l -0.33425,0.04254 0.30299,0.04175 c 0.41169,0.05705 0.7071,0.14225 1.0287,0.29713 0.21679,0.10434 0.32617,0.18542 0.55088,0.40826 0.23834,0.23631 0.3023,0.32369 0.42709,0.5835 0.70293,1.7554 -0.0435,1.4524 0.67192,-0.02904 0.1064,-0.21543 0.19218,-0.33103 0.39423,-0.53231 0.14208,-0.14165 0.34132,-0.30588 0.44286,-0.36552 0.26695,-0.15647 0.6743,-0.28723 1.0894,-0.34966 l 0.36228,-0.05446 -0.31696,-0.04002 c -0.75761,-0.09532 -1.3846,-0.41647 -1.7429,-0.89323 -0.28554,-0.37966 -0.43538,-0.76585 -0.52388,-1.3499 l -0.0537,-0.35648 z"
           fill-opacity="0.90125"
           stroke-width="0.03216" />
        <path
           id="path88605-6-6-3-9-7"
           d="m 129.62,228.25 c 0.10715,1.043 0.48875,2.082 1.0205,2.7739 0.68021,0.88489 1.842,1.477 3.2491,1.6562 l 0.62758,0.08 -0.56888,0.0784 c -0.77297,0.10713 -1.3276,0.26709 -1.9315,0.55787 -0.40705,0.19591 -0.61239,0.34814 -1.0343,0.76653 -0.44749,0.44368 -0.5676,0.60773 -0.8019,1.0956 -1.3198,3.2958 0.0815,2.7269 -1.2616,-0.0545 -0.19976,-0.40447 -0.36081,-0.62152 -0.74017,-0.99942 -0.26678,-0.26594 -0.64086,-0.5743 -0.8315,-0.68629 -0.50123,-0.29379 -1.266,-0.5393 -2.0454,-0.65651 l -0.68021,-0.10229 0.59512,-0.0751 c 1.4224,-0.17896 2.5996,-0.78194 3.2724,-1.6771 0.53611,-0.71282 0.81744,-1.4379 0.98361,-2.5345 l 0.10079,-0.6693 z"
           fill-opacity="0.90009"
           opacity="0.7"
           stroke-width="0.060383" />
        <path
           id="path88605-6-3-9-9-4"
           d="m -364.11,110.37 c 0.0727,0.70782 0.3317,1.413 0.6926,1.8825 0.46163,0.60054 1.2501,1.0024 2.205,1.124 l 0.42591,0.0542 -0.38608,0.0532 c -0.52459,0.0727 -0.901,0.18126 -1.3108,0.37861 -0.27624,0.13295 -0.41561,0.23627 -0.70194,0.52021 -0.3037,0.30111 -0.38521,0.41245 -0.54422,0.74351 -0.89569,2.2367 0.0554,1.8507 -0.85618,-0.037 -0.13557,-0.27451 -0.24488,-0.42181 -0.50233,-0.67828 -0.18105,-0.18049 -0.43493,-0.38976 -0.56431,-0.46576 -0.34016,-0.19938 -0.85921,-0.366 -1.3881,-0.44555 l -0.46163,-0.0694 0.40388,-0.051 c 0.96537,-0.12146 1.7642,-0.53068 2.2209,-1.1382 0.36384,-0.48377 0.55477,-0.97587 0.66754,-1.7201 l 0.0684,-0.45424 z"
           fill-opacity="0.90125"
           stroke-width="0.04098" />
        <path
           d="m -58.110977,21.920285 c -3.107672,-0.145549 -5.923219,-1.038639 -8.421907,-2.67189 -2.524854,-1.650199 -4.463112,-3.82842 -5.81214,-6.531285 -0.912787,-1.829356 -1.439666,-3.6802394 -1.667204,-5.8568024 -0.05864,-0.554875 -0.05736,-2.491645 0,-3.016231 0.07592,-0.679353 0.143603,-1.156131 0.230229,-1.609891 0.904545,-4.735539 3.832543,-8.846178 8.027979,-11.268715 0.392611,-0.226794 1.708144,-0.880954 1.771642,-0.880954 0.02004,0 -0.105353,0.293786 -0.279414,0.652441 -0.860684,1.773874 -1.350631,3.534122 -1.549256,5.566566 -0.06533,0.669619 -0.05611,2.318215 0.01824,2.99928601 0.357111,3.30234399 1.566891,6.16598699 3.686023,8.72708299 0.378582,0.457541 1.481921,1.555497 1.961733,1.952115 1.046541,0.8654374 1.968376,1.4693834 3.117978,2.0426374 1.791738,0.893493 3.514539,1.394204 5.574754,1.620425 0.543769,0.05996 2.683113,0.05996 3.168764,0.0012 1.375653,-0.167695 2.355776,-0.378353 3.447664,-0.739241 0.690859,-0.228227 1.17428,-0.427252 1.92944,-0.793352 0.646429,-0.313481 0.681527,-0.32665 0.651238,-0.239447 -0.08531,0.245459 -0.733516,1.506714 -1.012242,1.970378 -1.676938,2.789554 -4.061856,4.982147 -6.964721,6.403031 -1.864396,0.912789 -3.838384,1.454725 -5.914058,1.623632 -0.48445,0.03951 -1.589106,0.06671 -1.965569,0.05039 z"
           opacity="0.79214"
           stroke-width="0.0423191"
           id="path17"
           style="mix-blend-mode:difference" />
        <path
           d="m -33.845536,62.624161 c 0.105185,-1.020659 0.478267,-2.037484 0.998674,-2.714488 0.665669,-0.865952 1.80256,-1.445392 3.17953,-1.620654 l 0.614193,-0.07828 -0.556766,-0.07667 c -0.756362,-0.10484 -1.299156,-0.261377 -1.890161,-0.545943 -0.398336,-0.191687 -0.599308,-0.340678 -1.012187,-0.750121 -0.4379,-0.434179 -0.555449,-0.594726 -0.784705,-1.072135 -1.291542,-3.225276 0.08004,-2.668512 -1.234571,0.05325 -0.195476,0.395875 -0.353217,0.60824 -0.7243,0.978004 -0.261032,0.260291 -0.627189,0.562034 -0.813734,0.671624 -0.490518,0.287486 -1.238923,0.527792 -2.001582,0.642478 l -0.665669,0.100139 0.582417,0.07357 c 1.392027,0.175153 2.543862,0.76518 3.202374,1.641211 0.524644,0.69756 0.799877,1.407143 0.962602,2.480251 l 0.09866,0.655019 z"
           opacity="0.90921"
           stroke-width="0.0547307"
           id="path21"
           style="mix-blend-mode:difference" />
        <path
           d="m -132.72235,-8.7006654 c 0.11033,-1.080951 0.50656,-2.1581786 1.05782,-2.8752066 0.70512,-0.917198 1.90935,-1.531047 3.36773,-1.716503 l 0.6505,-0.0833 -0.58963,-0.08198 c -0.8012,-0.111588 -1.37611,-0.276951 -2.00216,-0.578465 -0.42187,-0.203262 -0.63463,-0.36066 -1.07196,-0.794611 -0.46395,-0.459714 -0.58843,-0.629939 -0.8312,-1.135517 -1.36803,-3.416286 0.0847,-2.82654 -1.30786,0.05909 -0.20704,0.418606 -0.37371,0.644197 -0.76718,1.036063 -0.27655,0.275349 -0.66424,0.595529 -0.86183,0.711301 -0.51955,0.304894 -1.31244,0.559228 -2.12022,0.680613 l -0.70495,0.106218 0.61677,0.07793 c 1.47442,0.185001 2.69462,0.810529 3.39207,1.738317 0.55556,0.73913 0.84728,1.49074 1.01951,2.6271726 l 0.10472,0.693666 z"
           opacity="0.90921"
           stroke-width="0.0896642"
           id="path22"
           style="mix-blend-mode:difference" />
        <path
           d="m 268.24343,-24.226417 c 0.10519,-1.020659 0.47827,-2.037484 0.99868,-2.714488 0.66566,-0.865952 1.80256,-1.445392 3.17953,-1.620654 l 0.61419,-0.07828 -0.55677,-0.07667 c -0.75636,-0.10484 -1.29915,-0.261377 -1.89016,-0.545943 -0.39833,-0.191687 -0.59931,-0.340678 -1.01219,-0.750121 -0.4379,-0.434179 -0.55544,-0.594726 -0.7847,-1.072135 -1.29154,-3.225276 0.08,-2.668512 -1.23457,0.05325 -0.19548,0.395875 -0.35322,0.60824 -0.7243,0.978004 -0.26103,0.260291 -0.62719,0.562034 -0.81374,0.671624 -0.49051,0.287486 -1.23892,0.527792 -2.00158,0.642478 l -0.66567,0.100139 0.58242,0.07357 c 1.39203,0.175153 2.54386,0.76518 3.20237,1.641211 0.52465,0.69756 0.79988,1.407143 0.96261,2.480251 l 0.0987,0.655019 z"
           opacity="0.90921"
           stroke-width="0.0547307"
           id="path1"
           style="mix-blend-mode:difference" />
        <path
           d="m 130.38835,5.5635661 c 0.0478,-0.4634563 0.21717,-0.9251718 0.45348,-1.2325828 0.30226,-0.3932077 0.8185,-0.6563173 1.44374,-0.7358995 l 0.27889,-0.035545 -0.25281,-0.034814 c -0.34345,-0.047605 -0.58991,-0.1186849 -0.85828,-0.2478994 -0.18087,-0.08704 -0.27213,-0.1546936 -0.45961,-0.3406117 -0.19884,-0.1971501 -0.25221,-0.2700505 -0.35631,-0.4868303 -0.58646,-1.46451923 0.0363,-1.2117063 -0.56059,0.02418 -0.0888,0.1797572 -0.16039,0.276187 -0.32889,0.4440878 -0.11852,0.1181918 -0.28479,0.2552059 -0.3695,0.3049681 -0.22273,0.1305403 -0.56256,0.2396574 -0.90887,0.2917336 l -0.30226,0.045471 0.26446,0.033406 c 0.63209,0.079533 1.15511,0.3474496 1.45412,0.7452339 0.23823,0.316745 0.36321,0.6389493 0.4371,1.1262214 l 0.0448,0.2974282 z"
           opacity="0.90921"
           stroke-width="0.0248519"
           id="path2"
           style="mix-blend-mode:difference" />
        <path
           d="m 130.38835,5.5635661 c 0.0478,-0.4634563 0.21717,-0.9251718 0.45348,-1.2325828 0.30226,-0.3932077 0.8185,-0.6563173 1.44374,-0.7358995 l 0.27889,-0.035545 -0.25281,-0.034814 c -0.34345,-0.047605 -0.58991,-0.1186849 -0.85828,-0.2478994 -0.18087,-0.08704 -0.27213,-0.1546936 -0.45961,-0.3406117 -0.19884,-0.1971501 -0.25221,-0.2700505 -0.35631,-0.4868303 -0.58646,-1.46451923 0.0363,-1.2117063 -0.56059,0.02418 -0.0888,0.1797572 -0.16039,0.276187 -0.32889,0.4440878 -0.11852,0.1181918 -0.28479,0.2552059 -0.3695,0.3049681 -0.22273,0.1305403 -0.56256,0.2396574 -0.90887,0.2917336 l -0.30226,0.045471 0.26446,0.033406 c 0.63209,0.079533 1.15511,0.3474496 1.45412,0.7452339 0.23823,0.316745 0.36321,0.6389493 0.4371,1.1262214 l 0.0448,0.2974282 z"
           opacity="0.90921"
           stroke-width="0.0248519"
           id="path3"
           style="mix-blend-mode:difference" />
        <path
           d="m 326.39556,62.624154 c 0.10525,-1.020659 0.47827,-2.037482 0.99868,-2.714486 0.66565,-0.865953 1.80256,-1.445393 3.17953,-1.620654 l 0.61419,-0.07828 -0.55677,-0.07666 c -0.75635,-0.104837 -1.29915,-0.261376 -1.89016,-0.545943 -0.39834,-0.191687 -0.59931,-0.340678 -1.01219,-0.75012 -0.4379,-0.434178 -0.55544,-0.594726 -0.7847,-1.072134 -1.29153,-3.225275 0.0801,-2.668512 -1.23457,0.05325 -0.19548,0.395875 -0.35322,0.60824 -0.72431,0.978005 -0.26102,0.260291 -0.62717,0.562032 -0.81373,0.671622 -0.4905,0.287488 -1.23893,0.527793 -2.00158,0.642478 l -0.66567,0.100138 0.58243,0.07356 c 1.39203,0.175148 2.54384,0.765179 3.20235,1.641209 0.52466,0.697559 0.79989,1.407144 0.96261,2.480251 l 0.0987,0.655018 z"
           opacity="0.90921"
           stroke-width="0.0547307"
           id="path4"
           style="mix-blend-mode:difference" />
      </g>
      <path
         style="display:inline;opacity:0.8;fill:#ffffff;fill-opacity:0.929412;fill-rule:evenodd;stroke:none;stroke-width:0.0928232px;stroke-linecap:butt;stroke-linejoin:miter;stroke-opacity:1"
         d="m 267.34476,95.436114 c 2.17745,1.015154 2.50741,0.314795 4.94138,0.283274 3.0295,0.397864 3.43314,0.44723 4.67013,0.284882 2.71449,-1.171856 6.76357,0.09541 8.96197,-0.320715 -1.14432,-0.565271 -4.27147,0.15581 -4.50361,-1.321432 -1.89074,-1.063293 -2.71982,-1.445271 -3.79096,-0.823434 -1.60629,1.172325 -1.36455,0.682612 -3.2131,0.665283 -2.18909,-1.125107 -5.90745,-2.81219 -7.5694,-1.316906 -3.25187,1.182919 -5.66707,-1.189247 -6.86803,-0.807853 -2.76305,0.877462 -4.67263,3.309057 -6.98006,3.600903 2.52604,-0.06738 10.5132,0.08182 13.00442,0.369737 1.53003,-0.04811 0.99937,-0.394512 1.34726,-0.613739 z"
         id="path39093-7"
         inkscape:connector-curvature="0"
         sodipodi:nodetypes="ccccccccsccc"
         clip-path="none" />
      <path
         inkscape:export-ydpi="13.752652"
         inkscape:export-xdpi="13.752652"
         inkscape:export-filename="/home/russs/Dropbox/Vision Ecobrick Source FIles/GoBrik Development/Main Page HTML/images/mobile-background.png"
         style="display:inline;opacity:0.8;fill:#ffffff;fill-opacity:0.929412;fill-rule:evenodd;stroke:none;stroke-width:0.0693907px;stroke-linecap:butt;stroke-linejoin:miter;stroke-opacity:1"
         d="m 146.33648,113.85996 c 1.43327,0.86188 1.65048,0.26727 3.25253,0.2405 1.99412,0.3378 2.25977,0.37971 3.07401,0.24187 1.7867,-0.99493 4.45188,0.081 5.89892,-0.27229 -0.7532,-0.47994 -2.81157,0.13228 -2.9644,-1.12193 -1.24449,-0.90277 -1.7902,-1.22708 -2.49522,-0.69913 -1.05735,0.99535 -0.89823,0.57957 -2.11497,0.56486 -1.44088,-0.95525 -3.5327,-1.27767 -4.62665,-0.008 -2.4228,0.10306 -2.29989,0.54046 -4.63195,0.61008 1.66263,-0.0572 2.96796,0.19954 4.60773,0.44399 z"
         id="path39093-5"
         inkscape:connector-curvature="0"
         sodipodi:nodetypes="ccccccccccc"
         clip-path="url(#clipPath37599)"
         transform="matrix(1.6192238,0,0,1.6192238,-82.011928,-38.622498)" />
      <path
         style="display:inline;opacity:0.298065;fill:#ffffff;fill-opacity:1;fill-rule:evenodd;stroke:none;stroke-width:0.151449px;stroke-linecap:butt;stroke-linejoin:miter;stroke-opacity:1"
         d="m 58.076564,111.93431 c -5.214877,1.04143 -10.054701,1.97344 -15.071456,1.14913 -4.256385,-2.37018 -10.605572,0.19302 -14.052757,-0.64866 1.794309,-1.14335 6.697864,0.31512 7.061941,-2.67274 2.964725,-2.15063 4.264761,-2.92323 5.944287,-1.66551 2.518861,2.37119 4.36079,-4.68634 7.259409,-4.72139 3.432519,-2.27564 6.194835,3.0233 8.800922,6.04812 5.771699,0.2455 9.74444,2.29709 15.300019,2.46295 -3.927692,-0.0737 -12.088988,-0.42551 -15.242365,0.0481 z"
         id="path15883"
         inkscape:connector-curvature="0"
         sodipodi:nodetypes="cccccccccc"
         clip-path="url(#clipPath37595)"
         transform="matrix(1.1102949,0,0,1.1102949,-55.597264,-7.8051626)" />
      <path
         sodipodi:nodetypes="ccccccccccc"
         inkscape:connector-curvature="0"
         id="path15887"
         d="m 207.66288,132.36376 c -1.94422,1.15231 -2.23888,0.35733 -4.41205,0.32155 -2.70503,0.45162 -3.06537,0.50765 -4.16989,0.32337 -4.37889,0.0664 -6.039,0.10833 -8.00189,-0.36405 1.02172,-0.64167 5.19621,-0.46492 5.40351,-2.14177 0.95635,-2.39884 1.37137,-1.91563 2.32771,-1.20977 1.43429,1.33076 0.89319,1.69169 2.54373,1.67202 1.95452,-1.27715 4.79211,-1.70821 6.27604,-0.0106 3.28652,0.13778 3.1198,0.72258 6.28324,0.81566 -2.25538,-0.0765 -4.02605,0.26679 -6.2504,0.59362 z"
         style="display:inline;opacity:0.804;fill:#ffffff;fill-opacity:0.929412;fill-rule:evenodd;stroke:none;stroke-width:0.0600802px;stroke-linecap:butt;stroke-linejoin:miter;stroke-opacity:1"
         clip-path="url(#clipPath37587)"
         transform="matrix(1.1078248,0,0,1.2491686,-183.09203,-30.976416)" />
      <path
         transform="matrix(1.7281779,0,0,1.9486705,-133.30188,-125.03839)"
         clip-path="url(#clipPath37587)"
         style="display:inline;opacity:0.804;fill:#ffffff;fill-opacity:0.929412;fill-rule:evenodd;stroke:none;stroke-width:0.0600802px;stroke-linecap:butt;stroke-linejoin:miter;stroke-opacity:1"
         d="m 207.66288,132.36376 c -1.94422,1.15231 -2.23888,0.35733 -4.41205,0.32155 -2.70503,0.45162 -3.06537,0.50765 -4.16989,0.32337 -4.37889,0.0664 -6.039,0.10833 -8.00189,-0.36405 1.02172,-0.64167 5.19621,-0.46492 5.40351,-2.14177 0.95635,-2.39884 1.37137,-1.91563 2.32771,-1.20977 1.43429,1.33076 0.89319,1.69169 2.54373,1.67202 1.95452,-1.27715 4.79211,-1.70821 6.27604,-0.0106 3.28652,0.13778 3.1198,0.72258 6.28324,0.81566 -2.25538,-0.0765 -4.02605,0.26679 -6.2504,0.59362 z"
         id="path3097"
         inkscape:connector-curvature="0"
         sodipodi:nodetypes="ccccccccccc" />
    </g>
  </g>
</svg>
