<?xml version="1.0" encoding="UTF-8" standalone="no"?>
<svg
   width="223.43733mm"
   height="105.31222mm"
   viewBox="0 0 223.43734 105.31222"
   version="1.1"
   id="svg3346"
   inkscape:version="1.4.2 (2aeb623e1d, 2025-05-12)"
   sodipodi:docname="good-night.svg"
   xmlns:inkscape="http://www.inkscape.org/namespaces/inkscape"
   xmlns:sodipodi="http://sodipodi.sourceforge.net/DTD/sodipodi-0.dtd"
   xmlns:xlink="http://www.w3.org/1999/xlink"
   xmlns="http://www.w3.org/2000/svg"
   xmlns:svg="http://www.w3.org/2000/svg"
   xmlns:rdf="http://www.w3.org/1999/02/22-rdf-syntax-ns#"
   xmlns:cc="http://creativecommons.org/ns#"
   xmlns:dc="http://purl.org/dc/elements/1.1/">
  <defs
     id="defs3340">
    <linearGradient
       inkscape:collect="always"
       id="linearGradient36656">
      <stop
         style="stop-color:#000000;stop-opacity:1;"
         offset="0"
         id="stop36652" />
      <stop
         style="stop-color:#000000;stop-opacity:0;"
         offset="1"
         id="stop36654" />
    </linearGradient>
    <linearGradient
       inkscape:collect="always"
       xlink:href="#linearGradient36656"
       id="linearGradient36658"
       x1="110.00022"
       y1="127.92047"
       x2="110.00022"
       y2="133.93404"
       gradientUnits="userSpaceOnUse"
       gradientTransform="matrix(1,0,0,0.90751019,-3.7041668,-26.855228)" />
    <clipPath
       clipPathUnits="userSpaceOnUse"
       id="clipPath37579">
      <rect
         inkscape:export-ydpi="75.472282"
         inkscape:export-xdpi="75.472282"
         inkscape:export-filename="/home/russs/Dropbox/Vision Ecobrick Source FIles/Vision Landscapes/Blue sky top.png"
         y="74.653618"
         x="34.508389"
         height="104.12717"
         width="195.2485"
         id="rect37581"
         style="opacity:1;fill:#000000;fill-opacity:1;stroke:none;stroke-width:0.178806;stroke-opacity:1" />
    </clipPath>
    <clipPath
       clipPathUnits="userSpaceOnUse"
       id="clipPath37583">
      <rect
         inkscape:export-ydpi="75.472282"
         inkscape:export-xdpi="75.472282"
         inkscape:export-filename="/home/russs/Dropbox/Vision Ecobrick Source FIles/Vision Landscapes/Blue sky top.png"
         y="75.182785"
         x="34.955067"
         height="104.12717"
         width="195.33098"
         id="rect37585"
         style="opacity:1;fill:#000000;fill-opacity:1;stroke:none;stroke-width:0.178843;stroke-opacity:1" />
    </clipPath>
    <clipPath
       clipPathUnits="userSpaceOnUse"
       id="clipPath37587">
      <rect
         inkscape:export-ydpi="75.472282"
         inkscape:export-xdpi="75.472282"
         inkscape:export-filename="/home/russs/Dropbox/Vision Ecobrick Source FIles/Vision Landscapes/Blue sky top.png"
         y="74.653618"
         x="34.508389"
         height="104.12717"
         width="195.2485"
         id="rect37589"
         style="opacity:1;fill:#000000;fill-opacity:1;stroke:none;stroke-width:0.178806;stroke-opacity:1" />
    </clipPath>
    <clipPath
       clipPathUnits="userSpaceOnUse"
       id="clipPath37591">
      <rect
         inkscape:export-ydpi="75.472282"
         inkscape:export-xdpi="75.472282"
         inkscape:export-filename="/home/russs/Dropbox/Vision Ecobrick Source FIles/Vision Landscapes/Blue sky top.png"
         y="74.653618"
         x="34.508389"
         height="104.12717"
         width="195.2485"
         id="rect37593"
         style="opacity:1;fill:#000000;fill-opacity:1;stroke:none;stroke-width:0.178806;stroke-opacity:1" />
    </clipPath>
    <clipPath
       clipPathUnits="userSpaceOnUse"
       id="clipPath37595">
      <rect
         inkscape:export-ydpi="75.472282"
         inkscape:export-xdpi="75.472282"
         inkscape:export-filename="/home/russs/Dropbox/Vision Ecobrick Source FIles/Vision Landscapes/Blue sky top.png"
         y="74.653618"
         x="34.508389"
         height="104.12717"
         width="195.2485"
         id="rect37597"
         style="opacity:1;fill:#000000;fill-opacity:1;stroke:none;stroke-width:0.178806;stroke-opacity:1" />
    </clipPath>
    <clipPath
       clipPathUnits="userSpaceOnUse"
       id="clipPath37603">
      <rect
         inkscape:export-ydpi="75.472282"
         inkscape:export-xdpi="75.472282"
         inkscape:export-filename="/home/russs/Dropbox/Vision Ecobrick Source FIles/Vision Landscapes/Blue sky top.png"
         y="74.653618"
         x="34.508389"
         height="104.12717"
         width="195.2485"
         id="rect37605"
         style="opacity:1;fill:#000000;fill-opacity:1;stroke:none;stroke-width:0.178806;stroke-opacity:1" />
    </clipPath>
    <clipPath
       clipPathUnits="userSpaceOnUse"
       id="clipPath37607">
      <rect
         inkscape:export-ydpi="75.472282"
         inkscape:export-xdpi="75.472282"
         inkscape:export-filename="/home/russs/Dropbox/Vision Ecobrick Source FIles/Vision Landscapes/Blue sky top.png"
         y="74.653618"
         x="34.508389"
         height="104.12717"
         width="195.2485"
         id="rect37609"
         style="opacity:1;fill:#000000;fill-opacity:1;stroke:none;stroke-width:0.178806;stroke-opacity:1" />
    </clipPath>
    <clipPath
       clipPathUnits="userSpaceOnUse"
       id="clipPath37611">
      <rect
         inkscape:export-ydpi="75.472282"
         inkscape:export-xdpi="75.472282"
         inkscape:export-filename="/home/russs/Dropbox/Vision Ecobrick Source FIles/Vision Landscapes/Blue sky top.png"
         y="74.653618"
         x="34.508389"
         height="104.12717"
         width="195.2485"
         id="rect37613"
         style="opacity:1;fill:#000000;fill-opacity:1;stroke:none;stroke-width:0.178806;stroke-opacity:1" />
    </clipPath>
    <linearGradient
       inkscape:collect="always"
       xlink:href="#linearGradient3"
       id="linearGradient4"
       x1="114.63934"
       y1="108.45766"
       x2="99.860237"
       y2="88.481926"
       gradientUnits="userSpaceOnUse"
       gradientTransform="matrix(1.0000116,0,0,0.98884692,0.19399897,1.0075864)" />
    <linearGradient
       id="linearGradient3"
       inkscape:collect="always">
      <stop
         style="stop-color:#cccccc;stop-opacity:1;"
         offset="0"
         id="stop3" />
      <stop
         style="stop-color:#fdfdfd;stop-opacity:1;"
         offset="1"
         id="stop4" />
    </linearGradient>
    <filter
       style="color-interpolation-filters:sRGB"
       inkscape:label="Blur"
       id="filter3"
       x="-0.13567226"
       y="-0.27246447"
       width="1.270724"
       height="1.5446208">
      <feGaussianBlur
         stdDeviation="6.17821 6.8275"
         result="blur"
         id="feGaussianBlur3" />
    </filter>
    <clipPath
       clipPathUnits="userSpaceOnUse"
       id="clipPath1">
      <path
         style="opacity:1;fill:#ffffff;stroke-width:0.273579;stroke-linecap:round;stroke-linejoin:round;stroke-dasharray:none"
         d="M 34.973944,67.51495 H 118.31769 L 34.973944,133.28281 Z"
         id="path2" />
    </clipPath>
    <clipPath
       clipPathUnits="userSpaceOnUse"
       id="clipPath37595-3">
      <rect
         inkscape:export-ydpi="75.472282"
         inkscape:export-xdpi="75.472282"
         inkscape:export-filename="/home/russs/Dropbox/Vision Ecobrick Source FIles/Vision Landscapes/Blue sky top.png"
         y="74.653618"
         x="34.508389"
         height="104.12717"
         width="195.2485"
         id="rect37597-6"
         style="opacity:1;fill:#000000;fill-opacity:1;stroke:none;stroke-width:0.178806;stroke-opacity:1" />
    </clipPath>
    <clipPath
       clipPathUnits="userSpaceOnUse"
       id="clipPath37587-7">
      <rect
         inkscape:export-ydpi="75.472282"
         inkscape:export-xdpi="75.472282"
         inkscape:export-filename="/home/russs/Dropbox/Vision Ecobrick Source FIles/Vision Landscapes/Blue sky top.png"
         y="74.653618"
         x="34.508389"
         height="104.12717"
         width="195.2485"
         id="rect37589-5"
         style="opacity:1;fill:#000000;fill-opacity:1;stroke:none;stroke-width:0.178806;stroke-opacity:1" />
    </clipPath>
  </defs>
  <sodipodi:namedview
     id="base"
     pagecolor="#ffffff"
     bordercolor="#666666"
     borderopacity="1.0"
     inkscape:pageopacity="0.0"
     inkscape:pageshadow="2"
     inkscape:zoom="0.7"
     inkscape:cx="98.571428"
     inkscape:cy="182.14286"
     inkscape:document-units="mm"
     inkscape:current-layer="g37554"
     showgrid="false"
     inkscape:window-width="1366"
     inkscape:window-height="699"
     inkscape:window-x="0"
     inkscape:window-y="0"
     inkscape:window-maximized="1"
     fit-margin-top="0"
     fit-margin-left="0"
     fit-margin-right="0"
     fit-margin-bottom="0"
     showguides="false"
     inkscape:guide-bbox="true"
     inkscape:document-rotation="0"
     inkscape:pagecheckerboard="0"
     inkscape:showpageshadow="2"
     inkscape:deskcolor="#d1d1d1">
    <sodipodi:guide
       position="48.954836,107.89348"
       orientation="0,1"
       id="guide36674"
       inkscape:locked="false" />
    <sodipodi:guide
       position="195.56239,16.512463"
       orientation="1,0"
       id="guide37492"
       inkscape:locked="false" />
    <sodipodi:guide
       position="72.987713,-29.646126"
       orientation="0,-1"
       id="guide3099"
       inkscape:locked="false" />
    <sodipodi:guide
       position="199.01141,-1.3091181"
       orientation="0,-1"
       id="guide3107"
       inkscape:locked="false" />
  </sodipodi:namedview>
  <metadata
     id="metadata3343">
    <rdf:RDF>
      <cc:Work
         rdf:about="">
        <dc:format>image/svg+xml</dc:format>
        <dc:type
           rdf:resource="http://purl.org/dc/dcmitype/StillImage" />
      </cc:Work>
    </rdf:RDF>
  </metadata>
  <g
     inkscape:groupmode="layer"
     id="layer2"
     inkscape:label="bottom"
     transform="translate(-0.46555784,-0.25670108)" />
  <g
     inkscape:label="Layer 1"
     inkscape:groupmode="layer"
     id="layer1"
     transform="translate(-34.217991,-66.758998)">
    <g
       id="g37554"
       style="display:inline"
       transform="translate(-0.75595283,-0.75595236)">
      <path
         style="opacity:0.25;fill:#000000;stroke:#000000;stroke-width:0.273579;stroke-linejoin:round;stroke-dasharray:0.547158, 0.273579;filter:url(#filter3)"
         d="m 38.9734,124.70819 c 63.49999,-50.648813 73.62493,-48.92798 73.62493,-48.92798 l 36.29379,51.56051 -14.3631,9.07142 C 99.331363,129.96361 64.150807,126.14659 38.9734,124.70819 Z"
         id="path3-1"
         sodipodi:nodetypes="ccccc"
         transform="matrix(0.95917973,0,0,1.0118626,1.2915893,-0.74037925)" />
      <path
         id="rect2193"
         style="display:inline;opacity:1;fill:#000080;stroke-width:0.218013"
         d="m 35.042928,68.239149 c 48.182618,0.01175 86.553842,0.224 130.035152,-0.267269 l 1.07453,104.26817 H 35.760472 Z"
         sodipodi:nodetypes="ccccc"
         clip-path="url(#clipPath1)"
         transform="matrix(1,0,0,1.0057873,0,-0.77135218)" />
      <path
         d="m 42.140084,107.44602 c 0.02081,-0.20186 0.09459,-0.40295 0.197502,-0.53684 0.131646,-0.17125 0.356486,-0.28585 0.628805,-0.32051 l 0.121467,-0.0155 -0.110111,-0.0152 c -0.149581,-0.0207 -0.256931,-0.0517 -0.373809,-0.10797 -0.07878,-0.0379 -0.118523,-0.0674 -0.200177,-0.14835 -0.0866,-0.0859 -0.109849,-0.11762 -0.155186,-0.21203 -0.255424,-0.63785 0.01582,-0.52774 -0.244156,0.0105 -0.03866,0.0783 -0.06986,0.12029 -0.143243,0.19342 -0.05163,0.0515 -0.124037,0.11115 -0.16093,0.13282 -0.09701,0.0569 -0.245016,0.10438 -0.395846,0.12706 l -0.131645,0.0198 0.115182,0.0145 c 0.275295,0.0346 0.50309,0.15133 0.63332,0.32458 0.103758,0.13795 0.158191,0.27829 0.190371,0.49051 l 0.0195,0.12954 z"
         opacity="0.90921"
         stroke-width="0.0108239"
         id="path21-9"
         style="display:inline;mix-blend-mode:difference;fill:#ffdd55" />
      <path
         d="m 58.430854,76.981139 c 0.02081,-0.201852 0.09459,-0.402945 0.197502,-0.536833 0.131646,-0.171256 0.356486,-0.28585 0.628805,-0.320511 l 0.121467,-0.01548 -0.110111,-0.01516 c -0.149581,-0.02074 -0.256931,-0.05169 -0.373809,-0.107969 -0.07878,-0.03791 -0.118523,-0.06738 -0.200177,-0.148349 -0.0866,-0.08586 -0.109849,-0.117616 -0.155186,-0.212032 -0.255424,-0.63785 0.01582,-0.52774 -0.244156,0.01053 -0.03866,0.07829 -0.06986,0.12029 -0.143243,0.193416 -0.05163,0.05148 -0.124037,0.111151 -0.16093,0.132825 -0.09701,0.05685 -0.245016,0.104379 -0.395846,0.12706 l -0.131645,0.0198 0.115182,0.01455 c 0.275295,0.03464 0.50309,0.151326 0.63332,0.324575 0.103758,0.137954 0.158191,0.278285 0.190371,0.49051 l 0.0195,0.12954 z"
         opacity="0.90921"
         stroke-width="0.0108239"
         id="path21-2"
         style="display:inline;mix-blend-mode:difference;fill:#ffd42a" />
      <path
         id="path88605-6-6-3-9-7-6"
         d="m 95.571275,77.123406 c -0.02976,0.289664 -0.135743,0.578265 -0.283434,0.770395 -0.18892,0.245762 -0.511591,0.410199 -0.902362,0.459957 l -0.174301,0.02222 0.157997,0.02178 c 0.21468,0.02975 0.368723,0.07418 0.536434,0.154939 0.113052,0.05441 0.170082,0.09669 0.28726,0.212889 0.124281,0.123226 0.157639,0.168787 0.222714,0.304272 0.366529,0.91535 -0.02265,0.757335 0.350377,-0.01514 0.05548,-0.112334 0.100209,-0.172616 0.205571,-0.277571 0.07409,-0.07386 0.177988,-0.1595 0.230934,-0.190604 0.139208,-0.08159 0.351616,-0.149783 0.568072,-0.182334 l 0.188917,-0.02841 -0.165283,-0.02086 c -0.395054,-0.0497 -0.721982,-0.217172 -0.908839,-0.465797 -0.148894,-0.197973 -0.22703,-0.399371 -0.273178,-0.703898 l -0.02799,-0.185887 z"
         fill-opacity="0.90009"
         opacity="0.7"
         stroke-width="0.0167704"
         style="display:inline;fill:#ffcc00;fill-opacity:0.90009" />
      <path
         d="m 50.862205,71.387091 c 0.02081,-0.201852 0.09459,-0.402945 0.197502,-0.536833 0.131646,-0.171256 0.356486,-0.28585 0.628805,-0.320511 l 0.121467,-0.01548 -0.110111,-0.01516 c -0.149581,-0.02074 -0.256931,-0.05169 -0.373809,-0.107969 -0.07878,-0.03791 -0.118523,-0.06737 -0.200177,-0.148349 -0.0866,-0.08586 -0.109849,-0.117616 -0.155186,-0.212032 -0.255424,-0.63785 0.01582,-0.52774 -0.244156,0.01053 -0.03866,0.07829 -0.06986,0.12029 -0.143243,0.193416 -0.05163,0.05148 -0.124037,0.111151 -0.16093,0.132825 -0.09701,0.05685 -0.245016,0.104379 -0.395846,0.12706 l -0.131645,0.0198 0.115182,0.01455 c 0.275295,0.03464 0.50309,0.151326 0.63332,0.324575 0.103758,0.137954 0.158191,0.278285 0.190371,0.49051 l 0.0195,0.12954 z"
         opacity="0.90921"
         stroke-width="0.0108239"
         id="path21"
         style="display:inline;mix-blend-mode:difference" />
      <path
         d="m 65.959746,91.406545 c 0.03905,-0.382543 0.17927,-0.763769 0.374358,-1.017522 0.249538,-0.324592 0.675709,-0.54183 1.191823,-0.607462 l 0.230209,-0.02948 -0.208667,-0.02901 c -0.283541,-0.03949 -0.486999,-0.09801 -0.708555,-0.204716 -0.149298,-0.07193 -0.224592,-0.127635 -0.379361,-0.281208 -0.16419,-0.162691 -0.208243,-0.222933 -0.294158,-0.401854 -0.484139,-1.209007 0.02998,-1.000299 -0.462845,0.02091 -0.07327,0.148143 -0.132255,0.227978 -0.271502,0.366658 -0.09787,0.09744 -0.235071,0.210755 -0.304997,0.251726 -0.183866,0.1079 -0.464466,0.197908 -0.750335,0.240865 l -0.249479,0.03759 0.218272,0.02758 c 0.52179,0.06547 0.953613,0.286842 1.200437,0.615181 0.19661,0.261575 0.299848,0.527566 0.3608,0.929744 l 0.03706,0.245485 z"
         opacity="0.90921"
         stroke-width="0.0317317"
         id="path22"
         style="display:inline;mix-blend-mode:difference;fill:#ffcc00" />
      <path
         d="m 56.873528,101.38436 c -1.099789,-0.0515 -2.096198,-0.36757 -2.980473,-0.94557 -0.893532,-0.583998 -1.579473,-1.354859 -2.056888,-2.31139 -0.323028,-0.6474 -0.509488,-1.302419 -0.590014,-2.072694 -0.02074,-0.196368 -0.02031,-0.881781 0,-1.067429 0.02686,-0.24042 0.05082,-0.40915 0.08148,-0.569733 0.320112,-1.675884 1.356317,-3.130619 2.841063,-3.987943 0.138942,-0.08026 0.604502,-0.311766 0.626974,-0.311766 0.0071,0 -0.03728,0.10397 -0.09888,0.230896 -0.304594,0.627765 -0.477985,1.250709 -0.548276,1.969981 -0.02311,0.236975 -0.01985,0.820405 0.0064,1.061432 0.126379,1.168684 0.554515,2.182113 1.304464,3.088472 0.133978,0.161922 0.524445,0.550483 0.694251,0.690844 0.370365,0.306274 0.696596,0.520008 1.103434,0.72288 0.634088,0.316203 1.243779,0.493402 1.97288,0.57346 0.192438,0.02122 0.94954,0.02122 1.121409,4.25e-4 0.486836,-0.05935 0.833699,-0.133897 1.220114,-0.261614 0.244488,-0.08077 0.415572,-0.151202 0.682819,-0.280763 0.228765,-0.11094 0.241187,-0.1156 0.230467,-0.08474 -0.03019,0.08687 -0.259585,0.533218 -0.358226,0.697307 -0.593461,0.987209 -1.437469,1.763155 -2.464781,2.266005 -0.659802,0.32303 -1.358384,0.51482 -2.092957,0.57459 -0.171444,0.014 -0.562375,0.0236 -0.695606,0.0178 z"
         opacity="0.79214"
         stroke-width="0.0149765"
         id="path17"
         style="display:inline;mix-blend-mode:difference;fill:#ffcc00;opacity:1" />
      <path
         style="display:inline;opacity:0.4;fill:#ffffff;fill-opacity:0.929412;fill-rule:evenodd;stroke:none;stroke-width:0.0582046px;stroke-linecap:butt;stroke-linejoin:miter;stroke-opacity:1"
         d="m 49.876077,117.60933 c 1.365365,0.63654 1.572265,0.19738 3.09848,0.17762 1.899641,0.24948 2.152742,0.28043 2.928394,0.17863 1.702114,-0.7348 4.24108,0.0598 5.619581,-0.2011 -0.717543,-0.35445 -2.678414,0.0977 -2.823977,-0.8286 -1.185584,-0.66674 -1.705457,-0.90626 -2.377112,-0.51633 -1.007221,0.7351 -0.855638,0.42803 -2.014767,0.41716 -1.372664,-0.70549 -3.704252,-1.76338 -4.746374,-0.82576 -2.039077,0.74175 -3.553522,-0.74572 -4.306581,-0.50656 -1.732564,0.55021 -2.929962,2.07493 -4.37683,2.25794 1.583947,-0.0423 6.592276,0.0513 8.15439,0.23184 0.959401,-0.0302 0.626652,-0.24738 0.844796,-0.38484 z"
         id="path39093-7"
         inkscape:connector-curvature="0"
         sodipodi:nodetypes="ccccccccsccc"
         clip-path="none" />
      <path
         style="display:inline;opacity:0.298065;fill:#ffffff;fill-opacity:1;fill-rule:evenodd;stroke:none;stroke-width:0.151449px;stroke-linecap:butt;stroke-linejoin:miter;stroke-opacity:1"
         d="m 58.076564,111.93431 c -5.214877,1.04143 -10.054701,1.97344 -15.071456,1.14913 -4.256385,-2.37018 -10.605572,0.19302 -14.052757,-0.64866 1.794309,-1.14335 6.697864,0.31512 7.061941,-2.67274 2.964725,-2.15063 4.264761,-2.92323 5.944287,-1.66551 2.518861,2.37119 4.36079,-4.68634 7.259409,-4.72139 3.432519,-2.27564 6.194835,3.0233 8.800922,6.04812 5.771699,0.2455 9.74444,2.29709 15.300019,2.46295 -3.927692,-0.0737 -12.088988,-0.42551 -15.242365,0.0481 z"
         id="path15883"
         inkscape:connector-curvature="0"
         sodipodi:nodetypes="cccccccccc"
         clip-path="url(#clipPath37595-3)"
         transform="matrix(0.68145003,0,0,0.68145003,9.7951054,2.1987312)" />
      <path
         sodipodi:nodetypes="ccccccccccc"
         inkscape:connector-curvature="0"
         id="path15887"
         d="m 207.66288,132.36376 c -1.94422,1.15231 -2.23888,0.35733 -4.41205,0.32155 -2.70503,0.45162 -3.06537,0.50765 -4.16989,0.32337 -4.37889,0.0664 -6.039,0.10833 -8.00189,-0.36405 1.02172,-0.64167 5.19621,-0.46492 5.40351,-2.14177 0.95635,-2.39884 1.37137,-1.91563 2.32771,-1.20977 1.43429,1.33076 0.89319,1.69169 2.54373,1.67202 1.95452,-1.27715 4.79211,-1.70821 6.27604,-0.0106 3.28652,0.13778 3.1198,0.72258 6.28324,0.81566 -2.25538,-0.0765 -4.02605,0.26679 -6.2504,0.59362 z"
         style="display:inline;opacity:0.3;fill:#ffffff;fill-opacity:0.929412;fill-rule:evenodd;stroke:none;stroke-width:0.0600802px;stroke-linecap:butt;stroke-linejoin:miter;stroke-opacity:1"
         clip-path="url(#clipPath37587-7)"
         transform="matrix(1.1078248,0,0,1.2491686,-136.08918,-76.784843)" />
      <path
         inkscape:export-ydpi="13.752652"
         inkscape:export-xdpi="13.752652"
         inkscape:export-filename="/home/russs/Dropbox/Vision Ecobrick Source FIles/GoBrik Development/Main Page HTML/images/mobile-background.png"
         style="display:inline;opacity:0.3;fill:#ffffff;fill-opacity:0.929412;fill-rule:evenodd;stroke:none;stroke-width:0.0693907px;stroke-linecap:butt;stroke-linejoin:miter;stroke-opacity:1"
         d="m 146.33648,113.85996 c 1.43327,0.86188 1.65048,0.26727 3.25253,0.2405 1.99412,0.3378 2.25977,0.37971 3.07401,0.24187 1.7867,-0.99493 4.45188,0.081 5.89892,-0.27229 -0.7532,-0.47994 -2.81157,0.13228 -2.9644,-1.12193 -1.24449,-0.90277 -1.7902,-1.22708 -2.49522,-0.69913 -1.05735,0.99535 -0.89823,0.57957 -2.11497,0.56486 -1.44088,-0.95525 -3.5327,-1.27767 -4.62665,-0.008 -2.4228,0.10306 -2.29989,0.54046 -4.63195,0.61008 1.66263,-0.0572 2.96796,0.19954 4.60773,0.44399 z"
         id="path39093-5"
         inkscape:connector-curvature="0"
         sodipodi:nodetypes="ccccccccccc"
         clip-path="none"
         transform="matrix(1.6192238,0,0,1.6192238,-82.011928,-38.622498)" />
      <path
         transform="matrix(1.7281779,0,0,1.9486705,-133.30188,-125.03839)"
         clip-path="url(#clipPath37587)"
         style="display:inline;opacity:0.3;fill:#ffffff;fill-opacity:0.929412;fill-rule:evenodd;stroke:none;stroke-width:0.0600802px;stroke-linecap:butt;stroke-linejoin:miter;stroke-opacity:1"
         d="m 207.66288,132.36376 c -1.94422,1.15231 -2.23888,0.35733 -4.41205,0.32155 -2.70503,0.45162 -3.06537,0.50765 -4.16989,0.32337 -4.37889,0.0664 -6.039,0.10833 -8.00189,-0.36405 1.02172,-0.64167 5.19621,-0.46492 5.40351,-2.14177 0.95635,-2.39884 1.37137,-1.91563 2.32771,-1.20977 1.43429,1.33076 0.89319,1.69169 2.54373,1.67202 1.95452,-1.27715 4.79211,-1.70821 6.27604,-0.0106 3.28652,0.13778 3.1198,0.72258 6.28324,0.81566 -2.25538,-0.0765 -4.02605,0.26679 -6.2504,0.59362 z"
         id="path3097"
         inkscape:connector-curvature="0"
         sodipodi:nodetypes="ccccccccccc" />
      <path
         style="fill:url(#linearGradient4);fill-opacity:1;stroke:#000000;stroke-width:0.272051;stroke-linecap:round;stroke-linejoin:round;stroke-dasharray:none"
         d="M 35.080757,133.46968 117.48054,67.889459 c 14.78719,1.686033 18.73641,18.726264 19.9324,25.5719 0.76479,4.377548 -4.65955,9.074491 -11.23203,9.189931 -36.389821,0.6392 -57.707299,15.95442 -91.100153,30.81839 z"
         id="path2-4"
         sodipodi:nodetypes="ccssc" />
      <path
         d="m 58.166274,73.276972 c 0.02081,-0.201852 0.09459,-0.402945 0.197502,-0.536833 0.131646,-0.171256 0.356486,-0.28585 0.628805,-0.320511 l 0.121467,-0.01548 -0.110111,-0.01516 c -0.149581,-0.02074 -0.256931,-0.05169 -0.373809,-0.107969 -0.07878,-0.03791 -0.118523,-0.06737 -0.200177,-0.148349 -0.0866,-0.08586 -0.109849,-0.117616 -0.155186,-0.212032 -0.255424,-0.63785 0.01582,-0.52774 -0.244156,0.01053 -0.03866,0.07829 -0.06986,0.12029 -0.143243,0.193416 -0.05163,0.05148 -0.124037,0.111151 -0.16093,0.132825 -0.09701,0.05685 -0.245016,0.104379 -0.395846,0.12706 l -0.131645,0.0198 0.115182,0.01455 c 0.275295,0.03464 0.50309,0.151326 0.63332,0.324575 0.103758,0.137954 0.158191,0.278285 0.190371,0.49051 l 0.0195,0.12954 z"
         opacity="0.90921"
         stroke-width="0.0108239"
         id="path21-5"
         style="display:inline;mix-blend-mode:difference" />
      <path
         d="m 40.239145,89.904847 c 0.01244,-0.120677 0.05655,-0.240894 0.118072,-0.320937 0.0787,-0.102378 0.213117,-0.170889 0.375916,-0.191609 l 0.07262,-0.0093 -0.06583,-0.0091 c -0.08942,-0.01238 -0.1536,-0.03091 -0.223473,-0.06455 -0.0471,-0.02266 -0.07086,-0.04029 -0.119671,-0.08869 -0.05177,-0.05135 -0.06567,-0.07032 -0.09277,-0.126757 -0.152699,-0.381324 0.0095,-0.315497 -0.145963,0.0063 -0.02311,0.04681 -0.04176,0.07191 -0.08563,0.115632 -0.03086,0.03079 -0.07415,0.06645 -0.09621,0.0794 -0.05799,0.03402 -0.146477,0.0624 -0.236647,0.07596 l -0.0787,0.01184 0.06886,0.0087 c 0.164579,0.02068 0.30076,0.09047 0.378615,0.194042 0.06203,0.08247 0.09457,0.166369 0.113809,0.29324 l 0.01166,0.07744 z"
         opacity="0.90921"
         stroke-width="0.00647082"
         id="path3"
         style="display:inline;mix-blend-mode:difference;fill:#ffdd55" />
    </g>
  </g>
</svg>
