<?xml version="1.0" encoding="UTF-8"?>
<!-- Created with Inkscape (http://www.inkscape.org/) -->
<svg width="168.71mm" height="93.307mm" version="1.1" viewBox="0 0 168.71 93.307" xmlns="http://www.w3.org/2000/svg">
 <defs>
  <clipPath id="clipPath14">
   <ellipse transform="matrix(.9996 .028384 -.013912 .9999 0 0)" cx="106.13" cy="91.443" rx="117.86" ry="38.66" fill="#0ff" stroke-width=".32164"/>
  </clipPath>
 </defs>
 <g transform="matrix(.93555 0 0 1 -12.419 -11.772)" style="mix-blend-mode:difference">
  <ellipse cx="103.44" cy="70.321" rx="90.165" ry="28.162" fill="#4cffff" fill-opacity=".5848" stroke-width=".2401"/>
  <path d="m76.513 40.619 20.996 19.643 47.992-47.144 22.916 20.092-70.548 63.532-43.792-36.256c6.9582-6.0542 15.718-13.582 22.436-19.868z" fill="#00fcfc" stroke-width=".27354"/>
  <g transform="matrix(.92895 -.020679 .012925 .72824 6.7956 3.7091)" clip-path="url(#clipPath14)" opacity=".86056">
   <path d="m80.205 119.5c0.78266-2.441 0.81359-1.1754 0.65624-0.19034 0.77965-1.7561-0.32288 1.803 0.76204-0.35445-0.75132 2.4271 1.2715-2.1531 0.33244 0.5636 1.0464-1.8257 1.165-2.0814 0.37675 0.0521 0.44508-0.57094 1.0677-1.6394 0.39586 0.51681 0.64173-0.43065 0.47837-0.97874 0.49353 0.0549 0.88314-0.46552-0.51607 1.2081 0.83446-0.22535-0.0797 0.75977 0.3853 0.10695-0.25842 1.6837 0.81951-1.2176 1.1522-2.6355 0.7097-0.38257 1.3613-2.2495-0.09093 1.4581 1.1948-0.9864 0.05491 0.32522-0.14729 1.5382-0.22208 2.224" fill="#32c63d" stroke-opacity="0"/>
   <path d="m15.274 121.06c-0.05467-5.4217-0.58405-11.475 6.9305-6.8322 2.1259-2.8852 0.42816-6.2696 7.0794-8.564l0.56058 1.7068c6.613-1.8719 5.6384-0.5814 6.6693 1.4147 1.5957-3.9695 5.014-4.3044 8.2441-5.0149 8.2767-0.86306 7.3899 4.0338 9.8397 6.8333 2.3327-2.4244 3.9663-6.9934 9.5577-2.9283 1.9929-3.972 4.0214-7.7994 8.785-0.51663 3.1456-5.3403 5.7476-6.0531 7.8647-2.6387 8.6584 7.5159 3.3309 9.8592 4.8316 17.228z" fill="#26972e" stroke-width=".32162"/>
   <path d="m9.0677 127.45c-2.6365-6.3204 27.569-15.03 37.542-15.489 16.721-0.76192 39.3 6.6615 44.083 15.534 0.2996 0.55578 0.16868 0.31312 0.38521 0.78324 0.28639 0.6218 0.38004 1.2773-0.0052 1.5815-14.96 12.445-66.933 11.824-82.006-2.4102z" fill="#32c63d"/>
   <path d="m28.658 116.04c-0.50948-2.5589-0.67781-1.3119-0.62917-0.30821-0.58102-1.8804 0.12358 1.8434-0.71609-0.48995 0.47994 2.5394-1.0249-2.3632-0.39054 0.49711-0.83757-1.9981-0.92721-2.2728-0.37876-0.0173-0.37864-0.64637-0.87894-1.8175-0.44824 0.43922-0.58864-0.54341-0.36724-1.0561-0.49471-0.0358-0.8239-0.62205 0.37962 1.2899-0.80184-0.37544-0.0037 0.76654-0.39321 0.0355 0.07271 1.7136-0.67907-1.3547-0.85424-2.8188-0.66119-0.50827-1.1034-2.475-0.0686 1.4597-1.0759-1.1944-0.08979 0.31182-0.02151 1.5493-0.02206 2.2417" fill="#32c63d" stroke-opacity="0"/>
   <path d="m185.13 131.15c0.63699-5.3569-0.34021-14.314-8.2782-11.119-1.7943-3.2523 2.4021-3.2224-3.9356-6.7332l-2.7632 1.5277c-6.3452-3.0854-3.4943-1.5688-4.7294 0.21509-1.1529-4.2269-4.3756-2.5316-7.4967-3.8368-4.6285-5.1958-7.8744-0.0478-10.6 2.267-2.0485-2.8347 0.12337-8.5676-5.8487-5.5854-1.0198-2.8389-3.5257-3.1504-6.6721-2.6303-1.6232 0.26829-3.3956-0.7641-5.2668 1.3873-2.5399-5.8727-5.039-7.0633-7.5019-4.0778-1.8038 1.3573-0.59305 7.6783-2.022 8.1787-7.512 2.6305-5.0008 6.7632-6.5266 12.179z" fill="#26972e" stroke-width=".32162"/>
   <path d="m185.95 134.06c2.8102-6.1657-27.129-16.584-37.082-17.608-16.687-1.7106-39.454 4.4252-44.481 13.02-0.31483 0.53833-0.17725 0.3033-0.40669 0.76075-0.30346 0.60506-0.41527 1.2547-0.039 1.5805 14.602 13.284 66.552 15.615 82.008 2.247z" fill="#32c63d"/>
  </g>
  <g transform="matrix(.090962 0 0 .090962 -30.683 344.62)" fill="#fff">
   <path d="m870.53-3108c-1.7571 5e-4 -3.4298 0.3656-4.977 0.9983-2.3148-10.109-10.856-17.617-21.046-17.617-10.193-1e-4 -18.735 7.5079-21.047 17.616-1.5463-0.6331-3.223-0.9977-4.9783-0.9977-7.6652 0-13.878 6.6331-13.878 14.81 0 8.1793 6.2132 14.81 13.878 14.809 2.4052 1e-4 14.43 1e-4 26.026 1e-4 11.594 1e-4 23.617 1e-4 26.023-1e-4 7.6645 1e-4 13.878-6.6301 13.878-14.81-7e-5 -8.1764-6.2136-14.81-13.878-14.81z" stroke-width=".24007"/>
   <path d="m1930.1-3011.1c-1.3989 0-2.7306 0.2724-3.962 0.7449-1.8428-7.5431-8.6417-13.146-16.754-13.146-8.1148 2e-4 -14.915 5.6027-16.755 13.146-1.2307-0.4723-2.5659-0.7447-3.963-0.7447-6.1023-1e-4 -11.048 4.95-11.048 11.052-1e-4 6.1033 4.946 11.051 11.048 11.051 1.9145 2e-4 11.487 0 20.718 1e-4 9.2295-1e-4 18.801-1e-4 20.716-1e-4 6.1015 0 11.048-4.9474 11.048-11.051 0-6.1014-4.9466-11.051-11.048-11.052z" stroke-width=".18503"/>
   <path d="m2114.7-3137.2c-1.6645-6e-4 -3.2489 0.3244-4.7145 0.8864-2.1924-8.9753-10.282-15.642-19.934-15.642-9.6553 1e-4 -17.746 6.6665-19.936 15.642-1.4644-0.5619-3.053-0.886-4.7154-0.8862-7.2605 2e-4 -13.146 5.89-13.146 13.15-2e-4 7.2624 5.8852 13.149 13.146 13.149 2.2777 0 13.668-4e-4 24.652 0h24.649c7.2597 0 13.146-5.8869 13.146-13.149 0-7.2596-5.8859-13.149-13.145-13.15z" stroke-width=".22016"/>
   <path d="m1067.3-3165.7c-1.412-5e-4 -2.7561 0.2752-3.9993 0.752-1.8599-7.6138-8.7226-13.269-16.91-13.269-8.1906 1e-4 -15.054 5.6552-16.912 13.269-1.2422-0.4767-2.5899-0.7516-4.0001-0.7518-6.159 2e-4 -11.152 4.9965-11.152 11.155-2e-4 6.1607 4.9924 11.154 11.152 11.154 1.9322 0 11.595-3e-4 20.912 0h20.91c6.1584 0 11.151-4.9939 11.151-11.154 0-6.1584-4.993-11.155-11.151-11.155z" stroke-width=".18676"/>
  </g>
 </g>
 <g transform="translate(-20.916 -11.772)">
  <g transform="matrix(.92895 -.020679 .012925 .72824 55.479 5.1355)" fill="#2db337">
   <path d="m9.0677 127.45c-2.6365-6.3204 27.402-16.349 34.13-17.724 3.2117-0.20801 7.777-0.8166 13.939 0.69551 13.174 3.2328 30.299 11.029 33.557 17.074 0.29959 0.55579 0.16868 0.31312 0.38521 0.78324 0.28639 0.6218 0.38004 1.2773-0.0052 1.5815-14.96 12.445-66.933 11.824-82.006-2.4102z"/>
   <g transform="translate(-1.0462 .35683)">
    <path d="m63.354 117.01c-0.03763 2.7046-6.3386 4.7252-14.074 4.5056-7.7349-0.21964-13.975-2.5963-13.937-5.301 0.03763-2.7047 6.3386-4.725 14.074-4.5053 7.7348 0.21964 13.975 2.596 13.937 5.3007z" fill="#1a1a1a" opacity=".2" stroke-width=".13184"/>
    <g transform="matrix(.13745 .0039029 -.0024394 .17533 429.81 598.26)">
     <g stroke="#231f20" stroke-linecap="round" stroke-linejoin="round" stroke-miterlimit="10" stroke-width="4">
      <path d="m-2822.1-2705.7v-42.16c0-2.578 2.096-4.675 4.674-4.675 2.576 0 4.672 2.097 4.672 4.675v41.431c55.233 0.631 53.779 12.346 53.779 12.346h-71.706c-0.715-7.505 4.48-10.457 8.581-11.617z" fill="#919191"/>
      <path d="m-2844-2697.7v-42.16c0-2.579 2.096-4.674 4.675-4.674 2.583 0 4.679 2.095 4.679 4.674v41.426c55.227 0.636 53.772 12.352 53.772 12.352h-71.705c-0.718-7.507 4.482-10.457 8.579-11.618z" fill="#919191"/>
      <path d="m-2917.1-2764.4c-0.069-0.612 99.626-97.947 133.43-97.947 33.802 0 61.219 27.413 61.219 61.221 0 33.816-27.417 61.23-61.219 61.23-28.163 0-102.05 5.157-125.97-12.646-37.363 66.929-71.234 23.368-71.234 23.368z" fill="#fff"/>
      <path d="m-2735-2822.6c24.788-8.118 40.457-33.453 35.755-59.871-5.164-28.92-32.781-48.184-61.703-43.031-28.925 5.157-48.182 32.775-43.032 61.701 0.872 4.893 2.388 9.508 4.447 13.771" fill="#fff"/>
      <path d="m-2717.3-2835.3c-28.349 2.932-28.914-24.668-4.88-27.371 0 0 10.768-11.717 22.927-19.883 15.36 18.48 43.516 19.977 46.341 49.161z" fill="#ffd500"/>
      <path d="m-2747-2806.2s9.356 48.997-31.167 52.895c0 0-110.68 6.229-109.11-14.807l41.761-17.929" fill="#ececec"/>
     </g>
     <circle cx="-2755.5" cy="-2885" r="8.473" fill="#231f20"/>
     <path d="m-2843.7-2785.1 45.167-20.505c23.554-9.4499 33.277-6.9727 49.405 0.091l-1.6129 16.091z" fill="#ececec" stroke-width="2.0714"/>
    </g>
    <path d="m72.088 91.14s-9.9196-1.3985-10.187-3.2549" fill="none" stroke="#231f20" stroke-linecap="round" stroke-linejoin="round" stroke-miterlimit="10" stroke-width=".4658"/>
    <g stroke="#000">
     <path d="m66.164 90.119-5.9658 6.1809 12.358 3.0682 5.9143-11.308-7.2836-1.9663-0.82128 0.71457c1.1479 1.6647 1.7446 3.3666 1.7233 4.3317z" fill="#e6e6e6" stroke-width=".38372"/>
     <path d="m60.198 96.3 13.076-5.9831-2.0869-4.223" fill="none" stroke-width=".21558"/>
     <path d="m65.418 92.992-2.2423 2.2684 3.523 0.62284 1.6439-2.2427z" fill="#f0f" stroke-width=".21558"/>
     <path d="m72.556 99.368-2.5023-7.4784" fill="none" stroke-width=".14372"/>
     <path d="m72.679 88.884 5.791-0.82329" fill="none" stroke-width=".071858"/>
    </g>
   </g>
   <path d="m27.652 115.95c-2.3526-7.7296-2.5036-3.7599-2.0517-0.65438-2.3724-5.5795 0.93667 5.6872-2.3768-1.1786 2.2548 7.6831-3.8993-6.8685-1.0674 1.7401-3.2065-5.8212-3.5678-6.634-1.1847 0.1306-1.3727-1.8307-3.2812-5.2382-1.2645 1.5877-1.9959-1.4074-1.4598-3.1136-1.5514 0.12933-2.7521-1.538 1.5684 3.8365-2.6095-0.77986 0.2178 2.3917-1.2139 0.30231 0.73943 5.3073-2.5203-3.8927-3.5041-8.3722-2.2113-1.2625-4.1771-7.1789 0.22333 4.5843-3.7081-3.1999-0.18628 1.0159 0.39681 4.8408 0.60237 7" stroke-opacity="0" stroke-width="3.1393"/>
   <path d="m69.029 116.3c2.3942-8.5628 2.6562-4.2106 2.2356-0.78675 2.468-6.2036-0.88986 6.2737 2.5796-1.3731-2.288 8.5086 4.1123-7.6691 1.2136 1.8744 3.3777-6.4966 3.7545-7.4009 1.3033 0.10406 1.4619-2.0552 3.4739-5.8593 1.4262 1.7006 2.1561-1.6114 1.5264-3.4662 1.7056 0.0904 2.9829-1.7798-1.628 4.2636 2.8448-0.94298-0.18097 2.6324 1.3395 0.29125-0.68263 5.85 2.6714-4.357 3.6424-9.3065 2.396-1.4594 4.4096-8.019-0.1338 5.0395 3.9917-3.6359 0.22899 1.109-0.31797 5.3267-0.49113 7.7034" stroke-opacity="0" stroke-width="3.4466"/>
  </g>
 </g>
</svg>
