<?xml version="1.0" encoding="UTF-8" standalone="no"?>
<!-- Created with Inkscape (http://www.inkscape.org/) -->

<svg
   width="1549.4mm"
   height="1102.4mm"
   version="1.1"
   viewBox="0 0 1549.4 1102.4"
   id="svg119"
   sodipodi:docname="starry-night-2.svg"
   inkscape:version="1.4.1-rc (06eac75fbf, 2025-03-29)"
   xmlns:inkscape="http://www.inkscape.org/namespaces/inkscape"
   xmlns:sodipodi="http://sodipodi.sourceforge.net/DTD/sodipodi-0.dtd"
   xmlns="http://www.w3.org/2000/svg"
   xmlns:svg="http://www.w3.org/2000/svg">
  <sodipodi:namedview
     id="namedview119"
     pagecolor="#ffffff"
     bordercolor="#000000"
     borderopacity="0.25"
     inkscape:showpageshadow="2"
     inkscape:pageopacity="0.0"
     inkscape:pagecheckerboard="0"
     inkscape:deskcolor="#d1d1d1"
     inkscape:document-units="mm"
     inkscape:zoom="0.22627417"
     inkscape:cx="3084.7533"
     inkscape:cy="2777.6038"
     inkscape:window-width="2256"
     inkscape:window-height="1427"
     inkscape:window-x="0"
     inkscape:window-y="40"
     inkscape:window-maximized="1"
     inkscape:current-layer="g119" />
  <defs
     id="defs2">
    <linearGradient
       id="linearGradient2"
       x1="44.876"
       x2="44.876"
       y1="-906.13"
       y2="-1319.3"
       gradientTransform="matrix(1 0 0 1.631 -1.5957 1554.3)"
       gradientUnits="userSpaceOnUse">
      <stop
         offset="0"
         id="stop1" />
      <stop
         stop-opacity="0"
         offset="1"
         id="stop2" />
    </linearGradient>
  </defs>
  <g
     transform="translate(699.56 617)"
     id="g119">
    <rect
       x="-699.56"
       y="-617"
       width="1549.4"
       height="1102.4"
       fill="url(#linearGradient2)"
       stroke-width="3.5951"
       id="rect2" />
    <g
       fill="#fdf4c8"
       id="g43">
      <g
         fill-opacity=".31594"
         stroke-width=".04098"
         id="g15">
        <path
           d="m827.07-42.411c9.7251 6.4967-10.045 5.8178 0 0z"
           id="path2" />
        <path
           d="m802.2 121.37c9.7251 6.4967-10.045 5.8178 0 0z"
           id="path3" />
        <path
           d="m-663.32 148.88c9.7251 6.4975-10.046 5.8181 0 0z"
           id="path4" />
        <path
           d="m-615.96 104.7c9.7251 6.4968-10.045 5.8179 0 0z"
           id="path5" />
        <path
           d="m-518.86 4.6846c9.7251 6.4968-10.045 5.8179 0 0z"
           id="path6" />
        <path
           d="m-180.46 101.79c9.7251 6.4967-10.045 5.818 0 0z"
           id="path7" />
        <path
           d="m-343.97 46.224c9.7251 6.4967-10.045 5.818 0 0z"
           id="path8" />
        <path
           d="m-158.23-23.097c9.7251 6.4967-10.045 5.8178 0 0z"
           id="path9" />
        <path
           d="m629.96 57.337c9.7251 6.4967-10.045 5.818 0 0z"
           id="path10" />
        <path
           d="m668.85 148.88c9.7251 6.4975-10.046 5.8181 0 0z"
           id="path11" />
        <path
           d="m52.904 426.43c9.7251 6.4975-10.046 5.8181 0 0z"
           id="path12" />
        <path
           d="m659.06 307.9c9.7251 6.4975-10.046 5.8181 0 0z"
           id="path13" />
        <path
           d="m699.55 253.13c9.7251 6.4975-10.046 5.8181 0 0z"
           id="path14" />
        <path
           d="m793.74 235.67c9.7251 6.4975-10.046 5.8181 0 0z"
           id="path15" />
      </g>
      <g
         fill-opacity=".77615"
         stroke-width=".04098"
         id="g19">
        <path
           d="m831.31 436.22c9.7252 6.4976-10.046 5.8179 0 0z"
           opacity=".79465"
           id="path16" />
        <path
           d="m810.41 382.25c9.7252 6.4976-10.046 5.8179 0 0z"
           opacity=".79465"
           id="path17" />
        <path
           d="m713.3 444.69c9.7252 6.4976-10.046 5.8179 0 0z"
           opacity=".79465"
           id="path18" />
        <path
           d="m584.19 468.23c9.7252 6.4976-10.046 5.8179 0 0z"
           opacity=".79465"
           id="path19" />
      </g>
      <path
         d="m752.22 314.66c14.33 9.5736-14.802 8.574 0 0z"
         fill-opacity=".90009"
         opacity=".7"
         stroke-width=".060383"
         id="path20" />
      <g
         fill-opacity=".31594"
         stroke-width=".04098"
         id="g24">
        <path
           d="m129.9 156.56c9.7251 6.4975-10.046 5.8181 0 0z"
           id="path21" />
        <path
           d="m202.66 101.79c9.7251 6.4966-10.046 5.8179 0 0z"
           id="path22" />
        <path
           d="m369.08 115.02c9.7251 6.4968-10.046 5.8176 0 0z"
           id="path23" />
        <path
           d="m404.54 232.23c9.7251 6.4975-10.046 5.8181 0 0z"
           id="path24" />
      </g>
      <path
         d="m598.21 371.13c9.7252 6.4976-10.046 5.8179 0 0z"
         fill-opacity=".77615"
         opacity=".79465"
         stroke-width=".04098"
         id="path25" />
      <path
         d="m590.54 338.32c9.7252 6.4976-10.046 5.8179 0 0z"
         fill-opacity=".77615"
         opacity=".79465"
         stroke-width=".04098"
         id="path26" />
      <path
         d="m577.17 229.26c7.8256 5.2283-8.0834 4.6816 0 0z"
         fill-opacity=".90009"
         stroke-width=".032974"
         id="path27" />
      <path
         d="m730.63 368.16c7.8256 5.2283-8.0834 4.6816 0 0z"
         fill-opacity=".90009"
         stroke-width=".032974"
         id="path28" />
      <g
         fill-opacity=".31594"
         stroke-width=".04098"
         id="g42">
        <path
           d="m478.88 440.98c9.7251 6.4975-10.046 5.8181 0 0z"
           id="path29" />
        <path
           d="m169.32 409.76c9.7251 6.4975-10.046 5.8181 0 0z"
           id="path30" />
        <path
           d="m39.675 289.91c9.7251 6.4975-10.046 5.8181 0 0z"
           id="path31" />
        <path
           d="m218 244.66c9.7251 6.4975-10.046 5.8181 0 0z"
           id="path32" />
        <path
           d="m12.423 160.79c9.7251 6.4975-10.046 5.8181 0 0z"
           id="path33" />
        <path
           d="m-11.654 152.59c9.7251 6.4975-10.046 5.8181 0 0z"
           id="path34" />
        <path
           d="m-195.54 158.14c9.7251 6.4975-10.046 5.8181 0 0z"
           id="path35" />
        <path
           d="m-98.438 229.58c9.7251 6.4975-10.046 5.8181 0 0z"
           id="path36" />
        <path
           d="m-189.98 368.22c9.7251 6.4975-10.046 5.8181 0 0z"
           id="path37" />
        <path
           d="m-225.44 451.57c9.7251 6.4975-10.046 5.8181 0 0z"
           id="path38" />
        <path
           d="m-656.18 263.45c9.7251 6.4975-10.046 5.8181 0 0z"
           id="path39" />
        <path
           d="m-213 262.12c9.7251 6.4975-10.046 5.8181 0 0z"
           id="path40" />
        <path
           d="m-334.45 203.12c9.7251 6.4975-10.046 5.8181 0 0z"
           id="path41" />
        <path
           d="m-555.11 230.9c9.7251 6.4975-10.046 5.8181 0 0z"
           id="path42" />
      </g>
      <path
         d="m-80.354 329.15c9.7251 6.4974-10.045 5.8181 0 0z"
         fill-opacity=".77615"
         stroke-width=".04098"
         id="path43" />
    </g>
    <path
       d="m-250.4 333.81c9.7251 6.4975-10.046 5.8181 0 0z"
       fill="#fcf1b9"
       fill-opacity=".77615"
       stroke-width=".04098"
       id="path44" />
    <g
       fill="#fdf4c8"
       id="g52">
      <path
         d="m-310.76 443.1c12.55 8.3844-12.963 7.5079 0 0z"
         fill-opacity=".60811"
         stroke-width=".05288"
         id="path45" />
      <g
         stroke-width=".04098"
         id="g51">
        <path
           d="m-303.98 309.66c9.7251 6.4975-10.046 5.8181 0 0z"
           fill-opacity=".31594"
           id="path46" />
        <path
           d="m-444.98 430.89c9.7251 6.4977-10.046 5.8179 0 0z"
           fill-opacity=".37206"
           id="path47" />
        <path
           d="m-525.1 301.36c9.7252 6.4976-10.046 5.8179 0 0z"
           fill-opacity=".77615"
           id="path48" />
        <path
           d="m-533.66 391.61c9.7251 6.4974-10.046 5.8181 0 0z"
           fill-opacity=".77615"
           id="path49" />
        <path
           d="m-593.68 340.77c9.7251 6.4977-10.046 5.8178 0 0z"
           fill-opacity=".37339"
           id="path50" />
        <path
           d="m-643.58 359.47c9.7252 6.4976-10.046 5.8179 0 0z"
           fill-opacity=".77615"
           id="path51" />
      </g>
    </g>
    <path
       d="m-610.48 441.19c-22.454 15.009 23.194 13.427 0 0z"
       fill="#fbc02d"
       opacity=".25922"
       stroke-width=".094615"
       id="path52" />
    <g
       fill="#fdf4c8"
       id="g118">
      <path
         d="m314.84 340.72c14.206 9.4907-14.674 8.4989 0 0z"
         fill-opacity=".74157"
         opacity=".79465"
         stroke-width=".059859"
         id="path53" />
      <path
         d="m409.25 384.3c7.8256 5.2283-8.0834 4.6816 0 0z"
         fill-opacity=".90009"
         stroke-width=".032974"
         id="path54" />
      <path
         d="m472.59 325.33c10.311 6.8888-10.651 6.169 0 0z"
         fill-opacity=".54929"
         stroke-width=".043449"
         id="path55" />
      <path
         d="m-0.15969 472.08c10.311 6.8889-10.651 6.169 0 0z"
         fill-opacity=".36501"
         stroke-width=".043449"
         id="path56" />
      <g
         fill-opacity=".31594"
         stroke-width=".03216"
         id="g89">
        <path
           d="m-611.7-189.03c-7.6323 5.0982 7.8835 4.5664 0 0z"
           id="path57" />
        <path
           d="m-592.18-60.504c-7.6323 5.0983 7.8835 4.5663 0 0z"
           id="path58" />
        <path
           d="m557.95-38.909c-7.6323 5.099 7.8836 4.5662 0 0z"
           id="path59" />
        <path
           d="m520.78-73.585c-7.6323 5.0983 7.8836 4.5661 0 0z"
           id="path60" />
        <path
           d="m444.58-152.07c-7.6323 5.0983 7.8836 4.5661 0 0z"
           id="path61" />
        <path
           d="m179-75.869c-7.6323 5.0982 7.8835 4.5662 0 0z"
           id="path62" />
        <path
           d="m-198.74-229.42c-7.6323 5.0982 7.8835 4.5662 0 0z"
           id="path63" />
        <path
           d="m-303.25-268.31c-7.6323 5.0982 7.8835 4.5662 0 0z"
           id="path64" />
        <path
           d="m-522.06-224.39c-7.6323 5.0982 7.8835 4.5662 0 0z"
           id="path65" />
        <path
           d="m550.03-397.17c-7.6323 5.0982 7.8835 4.5662 0 0z"
           id="path66" />
        <path
           d="m545.27-275.46c-7.6323 5.0982 7.8835 4.5662 0 0z"
           id="path67" />
        <path
           d="m710.63-355.63c-7.6323 5.0982 7.8835 4.5662 0 0z"
           id="path68" />
        <path
           d="m-30.994-460.4c-7.6323 5.0982 7.8835 4.5662 0 0z"
           id="path69" />
        <path
           d="m-388.45-328.9c-7.6323 5.0982 7.8835 4.5662 0 0z"
           id="path70" />
        <path
           d="m-538.99-506.44c-7.6323 5.0982 7.8835 4.5662 0 0z"
           id="path71" />
        <path
           d="m-383.42-586.61c-7.6323 5.0982 7.8835 4.5662 0 0z"
           id="path72" />
        <path
           d="m635.23-494.27c-7.6323 5.0982 7.8835 4.5662 0 0z"
           id="path73" />
        <path
           d="m294.97-467.55c-7.6323 5.0982 7.8835 4.5662 0 0z"
           id="path74" />
        <path
           d="m418.8-557.5c-7.6323 5.0982 7.8835 4.5662 0 0z"
           id="path75" />
        <path
           d="m307.32-119.47c-7.6323 5.0982 7.8835 4.5662 0 0z"
           id="path76" />
        <path
           d="m630.46-136.82c-7.6323 5.0982 7.8835 4.5662 0 0z"
           id="path77" />
        <path
           d="m759.32 18.759c-7.6323 5.0982 7.8835 4.5662 0 0z"
           id="path78" />
        <path
           d="m761.7-248.74c-7.6323 5.0982 7.8835 4.5662 0 0z"
           id="path79" />
        <path
           d="m161.56-173.88c-7.6323 5.0982 7.8835 4.5663 0 0z"
           id="path80" />
        <path
           d="m-457.01-110.75c-7.6323 5.0982 7.8835 4.5662 0 0z"
           id="path81" />
        <path
           d="m-487.53-38.909c-7.6323 5.099 7.8836 4.5662 0 0z"
           id="path82" />
        <path
           d="m-479.85 85.884c-7.6323 5.0991 7.8836 4.5661 0 0z"
           id="path83" />
        <path
           d="m-511.62 42.902c-7.6323 5.0991 7.8836 4.5661 0 0z"
           id="path84" />
        <path
           d="m-585.54 29.197c-7.6323 5.0991 7.8836 4.566 0 0z"
           id="path85" />
        <path
           d="m-64.563-32.888c-7.6323 5.0991 7.8836 4.5658 0 0z"
           id="path86" />
        <path
           d="m-121.66-75.869c-7.6323 5.0982 7.8835 4.5664 0 0z"
           id="path87" />
        <path
           d="m-252.27-65.487c-7.6323 5.0986 7.8836 4.5659 0 0z"
           id="path88" />
        <path
           d="m-280.1 26.498c-7.6323 5.0991 7.8836 4.5661 0 0z"
           id="path89" />
      </g>
      <path
         d="m-415.58 24.168c-6.1413 4.1032 6.3437 3.674 0 0z"
         fill-opacity=".90009"
         stroke-width=".025878"
         id="path90" />
      <g
         fill-opacity=".31594"
         stroke-width=".03216"
         id="g101">
        <path
           d="m6.2432 71.764c-7.6323 5.0991 7.8836 4.5661 0 0z"
           id="path91" />
        <path
           d="m-133.71 36.257c-7.6323 5.0991 7.8836 4.5661 0 0z"
           id="path92" />
        <path
           d="m27.63-29.565c-7.6323 5.099 7.8836 4.5663 0 0z"
           id="path93" />
        <path
           d="m46.526-36.002c-7.6323 5.0991 7.8836 4.5659 0 0z"
           id="path94" />
        <path
           d="m190.84-31.642c-7.6323 5.099 7.8836 4.5662 0 0z"
           id="path95" />
        <path
           d="m114.63 24.422c-7.6323 5.0991 7.8836 4.5661 0 0z"
           id="path96" />
        <path
           d="m552.34 51c-7.6323 5.0991 7.8836 4.566 0 0z"
           id="path97" />
        <path
           d="m204.54 49.962c-7.6323 5.0991 7.8836 4.5661 0 0z"
           id="path98" />
        <path
           d="m299.85 3.6574c-7.6323 5.0991 7.8836 4.5661 0 0z"
           id="path99" />
        <path
           d="m473.02 25.46c-7.6323 5.0991 7.8836 4.5661 0 0z"
           id="path100" />
        <path
           d="m275.94 87.267c-7.6323 5.0991 7.8836 4.5661 0 0z"
           id="path101" />
      </g>
      <g
         fill-opacity=".77615"
         stroke-width=".03216"
         id="g107">
        <path
           d="m449.47 80.752c-7.6323 5.0992 7.8836 4.566 0 0z"
           id="path102" />
        <path
           d="m-45.546-365.42c-7.6323 5.099 7.8836 4.566 0 0z"
           id="path103" />
        <path
           d="m-388.45-314.35c-7.6323 5.099 7.8836 4.5663 0 0z"
           id="path104" />
        <path
           d="m-249.8-205.08c-7.6323 5.099 7.8836 4.5663 0 0z"
           id="path105" />
        <path
           d="m482.03-414.1c-7.6323 5.099 7.8836 4.566 0 0z"
           id="path106" />
        <path
           d="m786.04 6.588c-7.6323 5.0992 7.8836 4.566 0 0z"
           id="path107" />
      </g>
      <path
         d="m-68.274 78.571c-11.246 7.5133 11.616 6.7284 0 0z"
         fill-opacity=".90009"
         opacity=".7"
         stroke-width=".047388"
         id="path108" />
      <path
         d="m200.74 361.36c10.311 6.8889-10.651 6.169 0 0z"
         fill-opacity=".90009"
         opacity=".79465"
         stroke-width=".043449"
         id="path109" />
      <g
         stroke-width=".04098"
         id="g115">
        <path
           d="m-120.49 405.1c9.7252 6.4974-10.046 5.8181 0 0z"
           fill-opacity=".77615"
           id="path110" />
        <path
           d="m-394.24 392.67c9.7251 6.4974-10.045 5.8181 0 0z"
           fill-opacity=".77615"
           id="path111" />
        <path
           d="m-512.96 471.07c9.7251 6.4976-10.046 5.8179 0 0z"
           fill-opacity=".3688"
           id="path112" />
        <path
           d="m308.82 421.35c9.7251 6.4975-10.046 5.8181 0 0z"
           fill-opacity=".42033"
           id="path113" />
        <path
           d="m262.03 422.86c9.7252 6.4976-10.046 5.8179 0 0z"
           fill-opacity=".77615"
           opacity=".79465"
           id="path114" />
        <path
           d="m-48.897 392.67c9.7251 6.4975-10.045 5.8184 0 0z"
           fill-opacity=".43733"
           id="path115" />
      </g>
      <path
         d="m708.25-80.989c-7.6323 5.0991 7.8836 4.5661 0 0z"
         fill-opacity=".90125"
         stroke-width=".03216"
         id="path116" />
      <path
         d="m129.62 228.25c14.33 9.5736-14.802 8.574 0 0z"
         fill-opacity=".90009"
         opacity=".7"
         stroke-width=".060383"
         id="path117" />
      <path
         d="m-364.11 110.37c9.7251 6.4975-10.046 5.8181 0 0z"
         fill-opacity=".90125"
         stroke-width=".04098"
         id="path118" />
    </g>
  </g>
</svg>
